<svg xmlns="http://www.w3.org/2000/svg" width="19.36" height="22.511" viewBox="0 0 19.36 22.511">
  <g id="_1076702_abroad_airport_country_document_flight_icon" data-name="1076702_abroad_airport_country_document_flight_icon" transform="translate(-89.536 -39.005)">
    <path id="Path_223" data-name="Path 223" d="M177.923,39H162.782a.983.983,0,0,0-.983.983V60.533a.983.983,0,0,0,.983.983h15.141a.983.983,0,0,0,.983-.983V39.988A.983.983,0,0,0,177.923,39Zm0,21.528H162.782V39.988h15.141Z" transform="translate(-70.01 0)" fill="#ed197a"/>
    <path id="Path_224" data-name="Path 224" d="M243.862,146.644h0a6.068,6.068,0,0,0,4.412,1.914h.011a6.046,6.046,0,1,0-4.423-10.177h0a6.041,6.041,0,0,0,0,8.263Zm3.254-7.059c.017-.064.034-.125.052-.186.009-.03.017-.061.026-.09.021-.071.043-.138.065-.2l.015-.048q.042-.121.085-.23l.018-.042c.023-.057.046-.112.069-.164.01-.023.021-.044.031-.066.019-.04.038-.08.057-.117s.024-.044.035-.067.035-.065.052-.1l.037-.062c.017-.027.034-.055.05-.08l.038-.055c.016-.023.033-.046.049-.067l.037-.047.048-.056.036-.038c.016-.016.031-.031.047-.045l.034-.03.045-.035.032-.023a.491.491,0,0,1,.044-.026l.028-.015a.443.443,0,0,1,.046-.017l.021-.007a.229.229,0,0,1,.122,0l.022.008a.33.33,0,0,1,.045.016l.029.015c.014.008.029.015.044.025l.032.024.044.034.035.032.046.044.037.04.046.054.039.049.047.065.039.057c.016.024.032.05.049.077s.026.042.039.065.033.06.05.091.026.047.038.072.035.072.053.11.023.048.035.074c.021.047.041.1.062.147.008.02.016.038.024.058.028.072.056.148.083.227.007.021.014.044.021.065.02.061.04.122.06.187.01.032.019.066.028.1.017.058.033.116.049.177.01.038.019.078.029.117s.021.088.032.133c-.121.03-.244.055-.366.076l-.072.011c-.107.017-.215.03-.323.04l-.07.006a5.069,5.069,0,0,1-.775,0l-.068-.006c-.109-.01-.217-.023-.325-.04l-.07-.011c-.123-.021-.246-.046-.368-.076.011-.047.022-.092.033-.137S247.106,139.622,247.115,139.586Zm2.361,5.89c-.016.065-.032.127-.049.189-.009.033-.017.067-.026.1q-.038.138-.079.265l-.008.023c-.025.077-.05.15-.075.221-.01.026-.02.051-.029.076-.019.05-.038.1-.057.146-.012.028-.023.053-.035.08s-.036.082-.054.121l-.037.075c-.018.036-.035.071-.053.1s-.026.047-.039.069-.035.061-.052.089-.026.042-.039.062l-.052.076-.039.053-.051.064-.038.044c-.017.019-.033.036-.05.052l-.037.036c-.016.015-.033.028-.049.041s-.023.019-.035.027a.551.551,0,0,1-.048.03l-.031.018a.457.457,0,0,1-.051.02c-.008,0-.016.007-.024.009a.246.246,0,0,1-.138,0l-.024-.009a.429.429,0,0,1-.05-.02c-.01,0-.021-.012-.031-.018s-.032-.018-.048-.03l-.035-.027c-.016-.013-.032-.026-.048-.041s-.025-.024-.037-.036l-.049-.052-.039-.046c-.016-.02-.033-.041-.05-.063s-.027-.036-.04-.055-.033-.048-.05-.074l-.041-.064c-.017-.027-.034-.056-.05-.086s-.027-.047-.04-.072-.034-.066-.051-.1-.026-.051-.039-.078-.035-.077-.052-.117-.024-.055-.036-.084c-.019-.045-.037-.093-.055-.141-.01-.027-.021-.053-.031-.081-.026-.071-.051-.145-.076-.222l-.007-.021c-.027-.085-.053-.174-.079-.267-.007-.027-.014-.056-.022-.084-.018-.067-.036-.134-.052-.2-.009-.037-.017-.075-.025-.112s-.023-.1-.035-.159c.128-.033.258-.06.388-.083l.082-.013c.107-.017.214-.03.322-.04l.076-.007a5.056,5.056,0,0,1,.79,0l.076.007q.161.015.322.04l.083.013c.13.023.26.05.388.083-.01.049-.021.1-.032.144S249.487,145.434,249.477,145.476Zm-2.116-4.58q.168.025.337.042l.144.013c.128.009.256.015.384.016l.048,0,.047,0c.128,0,.256-.007.384-.016l.146-.013c.111-.01.222-.024.332-.041l.107-.016c.127-.021.253-.046.378-.076.009.068.016.138.024.207.012.1.026.205.035.31.007.077.012.155.017.232.008.105.017.21.022.317,0,.009,0,.018,0,.027h-2.989c0-.01,0-.02,0-.029.005-.1.014-.2.021-.3.006-.083.011-.166.018-.248.01-.1.022-.2.034-.3.009-.073.016-.147.026-.219.126.03.252.055.38.076C247.293,140.887,247.327,140.89,247.361,140.9Zm1.9,3.246c-.152-.025-.305-.044-.459-.058l-.047,0c-.161-.013-.323-.022-.485-.022s-.324.009-.485.022l-.047,0c-.154.014-.306.032-.458.058l-.024,0c-.136.023-.272.05-.407.082,0-.03-.006-.062-.009-.092-.018-.165-.034-.332-.046-.5,0-.069-.008-.139-.012-.209q-.012-.212-.018-.427c0-.039,0-.078,0-.118h3.018c0,.039,0,.078,0,.117,0,.144-.01.287-.018.429,0,.069-.007.137-.012.205q-.019.261-.048.515c0,.027,0,.054-.008.08-.135-.033-.271-.059-.408-.083Zm-3.486-1.261c0,.038,0,.074,0,.111q.007.322.028.637c0,.043,0,.086.008.129.019.246.044.486.075.724,0,.02,0,.042.006.062l-.059.028q-.165.073-.326.155l-.117.062q-.152.082-.3.173l-.087.053q-.185.119-.361.25l-.074.058q-.139.107-.272.223c-.017.015-.035.027-.052.042a5.033,5.033,0,0,1-1.03-2.709h2.554Zm-.852,3.43.042-.037c.052-.044.1-.087.158-.13.033-.026.065-.053.1-.078.058-.044.117-.085.177-.126.03-.021.06-.043.091-.063.081-.053.164-.1.248-.153l.031-.019c.095-.054.191-.1.29-.152l.015-.007c.005.024.012.044.017.068q.044.191.093.371c.008.031.016.064.025.095q.062.219.131.419c.011.032.023.061.034.092q.055.154.115.3l.047.11q.066.15.137.286c.007.014.014.03.021.044A4.993,4.993,0,0,1,244.927,146.311Zm4.944.971q.07-.135.136-.283c.016-.037.032-.074.048-.111q.059-.142.114-.294c.012-.032.024-.063.035-.1q.069-.2.13-.415c.01-.035.019-.072.029-.107.031-.115.061-.233.089-.354.006-.026.013-.049.019-.075l.015.007c.1.047.194.1.289.152l.035.022c.082.048.164.1.243.15.032.021.062.043.093.065.059.041.117.081.174.125.034.026.068.053.1.08.052.041.1.084.154.127l.043.039a5,5,0,0,1-1.771,1.017C249.857,147.313,249.864,147.3,249.872,147.281Zm2.421-1.691c-.017-.015-.036-.028-.053-.043q-.132-.115-.27-.221l-.076-.06q-.175-.131-.36-.25c-.029-.019-.059-.036-.088-.054q-.146-.091-.3-.172l-.118-.063q-.158-.081-.321-.153c-.021-.009-.041-.021-.063-.03,0-.021,0-.042.007-.063q.046-.356.075-.723c0-.044,0-.089.008-.133q.021-.313.029-.632c0-.038,0-.074,0-.112h2.554A5.035,5.035,0,0,1,252.293,145.59Zm-1.539-3.692c0-.024,0-.046,0-.069q-.016-.3-.043-.6c0-.017,0-.035,0-.053-.021-.213-.047-.422-.077-.628,0-.018,0-.037-.007-.055.022-.009.042-.021.064-.03q.165-.072.326-.153l.12-.063c.1-.056.2-.114.3-.176l.087-.052q.187-.12.366-.253c.028-.021.054-.043.082-.064q.138-.107.27-.221c.018-.016.038-.03.056-.046A5.037,5.037,0,0,1,253.3,141.9Zm.866-3.182-.046.041c-.053.046-.107.09-.162.133-.033.026-.066.053-.1.079-.063.047-.127.092-.192.136-.028.019-.055.039-.083.057q-.141.092-.287.175l-.042.022c-.084.046-.17.091-.257.132l-.025.011c0-.021-.011-.038-.016-.058-.041-.166-.084-.327-.131-.479,0-.011-.007-.02-.01-.031-.045-.143-.092-.278-.142-.409-.013-.034-.026-.068-.039-.1-.053-.133-.108-.261-.167-.38L249.9,138c-.053-.105-.108-.2-.165-.3-.009-.015-.017-.032-.026-.046A4.994,4.994,0,0,1,251.62,138.715Zm-4.8-1.017c-.058.094-.113.194-.167.3-.007.015-.016.029-.023.044-.059.12-.114.248-.168.382-.013.032-.025.064-.037.1-.051.133-.1.271-.145.418l-.008.022c-.047.154-.091.317-.133.484,0,.019-.01.036-.015.055l-.025-.011c-.086-.041-.17-.085-.253-.131l-.045-.024c-.1-.055-.193-.113-.287-.174-.029-.019-.056-.039-.084-.058-.065-.044-.129-.089-.192-.136-.034-.025-.067-.052-.1-.078-.055-.044-.11-.088-.163-.134l-.046-.041a5,5,0,0,1,1.916-1.062C246.834,137.667,246.826,137.684,246.818,137.7Zm-2.563,1.737c.018.016.037.029.055.044q.132.115.271.222c.028.021.055.044.083.065q.178.132.365.252c.03.019.06.036.09.054q.148.091.3.173l.123.064c.106.054.213.1.323.152.022.01.043.022.066.031,0,.021,0,.043-.008.064q-.04.276-.069.561c0,.025-.006.049-.009.074-.021.216-.036.435-.047.656,0,.016,0,.032,0,.048h-2.545A5.03,5.03,0,0,1,244.254,139.436Z" transform="translate(-147.931 -94.423)" fill="#ed197a"/>
    <path id="Path_225" data-name="Path 225" d="M274.427,576.425h-9.739a.492.492,0,0,0,0,.983h9.739a.492.492,0,1,0,0-.983Z" transform="translate(-169.215 -520.663)" fill="#ed197a"/>
    <path id="Path_226" data-name="Path 226" d="M340.98,653.924h-5.312a.492.492,0,0,0,0,.983h5.312a.492.492,0,1,0,0-.983Z" transform="translate(-237.981 -595.746)" fill="#ed197a"/>
    <path id="Path_227" data-name="Path 227" d="M90.028,41.5a.492.492,0,0,0-.492.492V63.366a.492.492,0,1,0,.983,0V41.995A.492.492,0,0,0,90.028,41.5Z" transform="translate(0 -2.42)" fill="#ed197a"/>
  </g>
</svg>
