<svg id="_352064_blur_on_icon" data-name="352064_blur_on_icon" xmlns="http://www.w3.org/2000/svg" width="30.769" height="30.769" viewBox="0 0 30.769 30.769">
  <path id="Path_221" data-name="Path 221" d="M9.487,18.461a1.282,1.282,0,1,0,1.282,1.282A1.286,1.286,0,0,0,9.487,18.461Zm0,5.128a1.282,1.282,0,1,0,1.282,1.282A1.286,1.286,0,0,0,9.487,23.589Zm0-10.256a1.282,1.282,0,1,0,1.282,1.282A1.286,1.286,0,0,0,9.487,13.333Zm-3.846.641a.641.641,0,1,0,.641.641A.643.643,0,0,0,5.641,13.974ZM9.487,8.205a1.282,1.282,0,1,0,1.282,1.282A1.286,1.286,0,0,0,9.487,8.205Zm19.23,7.051a.641.641,0,1,0-.641-.641A.643.643,0,0,0,28.717,15.256Zm-8.974-4.487a1.282,1.282,0,1,0-1.282-1.282A1.286,1.286,0,0,0,19.743,10.769Zm0-4.487a.641.641,0,1,0-.641-.641A.643.643,0,0,0,19.743,6.282ZM5.641,19.1a.641.641,0,1,0,.641.641A.643.643,0,0,0,5.641,19.1Zm8.974,8.974a.641.641,0,1,0,.641.641A.643.643,0,0,0,14.615,28.076Zm0-21.794a.641.641,0,1,0-.641-.641A.643.643,0,0,0,14.615,6.282Zm0,4.487a1.282,1.282,0,1,0-1.282-1.282A1.286,1.286,0,0,0,14.615,10.769Zm0,7.051a1.923,1.923,0,1,0,1.923,1.923A1.92,1.92,0,0,0,14.615,17.82Zm10.256.641a1.282,1.282,0,1,0,1.282,1.282A1.286,1.286,0,0,0,24.871,18.461Zm0,5.128a1.282,1.282,0,1,0,1.282,1.282A1.286,1.286,0,0,0,24.871,23.589Zm0-10.256a1.282,1.282,0,1,0,1.282,1.282A1.286,1.286,0,0,0,24.871,13.333Zm0-5.128a1.282,1.282,0,1,0,1.282,1.282A1.286,1.286,0,0,0,24.871,8.205Zm3.846,10.9a.641.641,0,1,0,.641.641A.643.643,0,0,0,28.717,19.1Zm-8.974,4.487a1.282,1.282,0,1,0,1.282,1.282A1.286,1.286,0,0,0,19.743,23.589Zm0,4.487a.641.641,0,1,0,.641.641A.643.643,0,0,0,19.743,28.076ZM14.615,12.692a1.923,1.923,0,1,0,1.923,1.923A1.92,1.92,0,0,0,14.615,12.692Zm0,10.9A1.282,1.282,0,1,0,15.9,24.871,1.286,1.286,0,0,0,14.615,23.589Zm5.128-5.769a1.923,1.923,0,1,0,1.923,1.923A1.92,1.92,0,0,0,19.743,17.82Zm0-5.128a1.923,1.923,0,1,0,1.923,1.923A1.92,1.92,0,0,0,19.743,12.692Z" transform="translate(-1.795 -1.795)" fill="#ed197a"/>
  <path id="Path_222" data-name="Path 222" d="M0,0H30.769V30.769H0Z" fill="none"/>
</svg>
