<svg xmlns="http://www.w3.org/2000/svg" width="25.127" height="25.129" viewBox="0 0 25.127 25.129">
  <g id="_24-Email" data-name="24-Email" transform="translate(0 0.003)">
    <path id="Path_228" data-name="Path 228" d="M24.805,8.786,21.2,6.148V3.926a.785.785,0,0,0-.785-.785H17.1L13.027.149a.785.785,0,0,0-.927,0L8.025,3.14H4.711a.785.785,0,0,0-.785.785V6.148L.322,8.786A.785.785,0,0,0,0,9.422V22.771a2.356,2.356,0,0,0,2.356,2.356H22.772a2.356,2.356,0,0,0,2.356-2.356V9.422A.785.785,0,0,0,24.805,8.786ZM21.2,8.1l1.728,1.264L21.2,10.388ZM12.564,1.758,14.448,3.14H10.679ZM5.5,4.711H19.631V11.33l-7.067,4.24L5.5,11.33ZM3.926,8.1v2.3L2.2,9.359ZM23.557,22.771a.785.785,0,0,1-.785.785H2.356a.785.785,0,0,1-.785-.785V10.812l10.593,6.352a.785.785,0,0,0,.785,0l10.608-6.352Z" transform="translate(0)" fill="#ed197a"/>
  </g>
</svg>
