<svg xmlns="http://www.w3.org/2000/svg" width="17.281" height="22" viewBox="0 0 17.281 22">
  <g id="_1" data-name="1" transform="translate(-104.23 -48)">
    <path id="Path_207" data-name="Path 207" d="M143.545,66.06a.821.821,0,0,1-.4-.1,12.631,12.631,0,0,1-6.464-11.011q0-.137,0-.274a6.594,6.594,0,0,1,2.217-5,7.3,7.3,0,0,1,9.289,0,6.594,6.594,0,0,1,2.217,5h0q0,.137,0,.274a12.631,12.631,0,0,1-6.465,11.012A.821.821,0,0,1,143.545,66.06Zm0-16.418a5.424,5.424,0,0,0-3.569,1.266,5,5,0,0,0-1.652,3.8v.239a10.987,10.987,0,0,0,5.223,9.343,10.986,10.986,0,0,0,5.222-9.343c0-.08,0-.16,0-.239h0a5,5,0,0,0-1.652-3.8A5.43,5.43,0,0,0,143.545,49.642Z" transform="translate(-30.674)" fill="#ed197a"/>
    <path id="Path_208" data-name="Path 208" d="M194.247,111.035a3.947,3.947,0,1,1,3.947-3.947A3.947,3.947,0,0,1,194.247,111.035Zm0-6.252a2.306,2.306,0,1,0,2.306,2.305A2.306,2.306,0,0,0,194.247,104.782Z" transform="translate(-81.36 -52.122)" fill="#ed197a"/>
    <path id="Path_209" data-name="Path 209" d="M112.871,294.279a13.408,13.408,0,0,1-5.9-1.242c-1.769-.893-2.742-2.141-2.742-3.519,0-1.828,1.71-3.407,4.575-4.223a.821.821,0,1,1,.447,1.58c-2.055.585-3.383,1.622-3.383,2.643,0,1.478,2.874,3.119,7,3.119s7-1.642,7-3.119c0-1.021-1.328-2.058-3.383-2.643a.821.821,0,1,1,.449-1.579c2.865.815,4.575,2.394,4.575,4.223,0,1.379-.974,2.627-2.742,3.519A13.408,13.408,0,0,1,112.871,294.279Z" transform="translate(0 -224.279)" fill="#ed197a"/>
  </g>
</svg>
