<svg xmlns="http://www.w3.org/2000/svg" width="26.391" height="33.651" viewBox="0 0 26.391 33.651">
  <defs>
    <style>
      .cls-1 {
        fill: #ed197a;
      }
    </style>
  </defs>
  <path id="download" class="cls-1" d="M225.516,173.842a6.614,6.614,0,0,0-3.6-4.253,20.025,20.025,0,0,0-4.338-1.364,2.146,2.146,0,0,0-1.988.429,4,4,0,0,1-2.619.8,3.919,3.919,0,0,1-2.629-.8,2.126,2.126,0,0,0-1.977-.429,20.02,20.02,0,0,0-4.324,1.354,6.612,6.612,0,0,0-3.6,4.253,63.8,63.8,0,0,0-.649,6.687h0a2.243,2.243,0,0,0,.875,1.913,20.855,20.855,0,0,0,2.835,1.832.677.677,0,0,0,.968-.39c.042-.12.075-.212.092-.255.113-.241.223-.482.326-.709a2.868,2.868,0,0,0,.188-.985l.1-2.282v-.106c0-.054,0-.109,0-.163a.241.241,0,0,1,.195-.209.319.319,0,0,1,.376.085.27.27,0,0,1,.071.184.822.822,0,0,0,.071.252.684.684,0,0,0,1.063.255.763.763,0,0,0,.213-.255l.1-.2q.577-1.12,1.152-2.247h0a.305.305,0,0,1,.245-.191.354.354,0,0,1,.308.12.269.269,0,0,1,.039.354c-.174.354-.627,1.233-.875,1.708l-.124.294a.67.67,0,0,0-.021.571.681.681,0,0,0,.422.386.8.8,0,0,1,.259.131.464.464,0,0,1,.2.422.776.776,0,0,0,.308.648.489.489,0,0,1,.227.454.938.938,0,0,0,.191.624.479.479,0,0,1,.06.539.867.867,0,0,1-.177.28.681.681,0,0,0,.493,1.141h2.892c3.491,0,8.484-.053,9.193-.308a18.05,18.05,0,0,0,3.229-2h0a2.243,2.243,0,0,0,.89-1.9,62.161,62.161,0,0,0-.652-6.673Zm-1.063,7.5a15.769,15.769,0,0,1-2.849,1.8,100.742,100.742,0,0,1-10.568.23,6.96,6.96,0,0,0-.826-2.58,1.824,1.824,0,0,0-.691-1.233c.255-.489.588-1.138.73-1.417h0a1.627,1.627,0,0,0-.223-1.839,1.745,1.745,0,0,0-1.506-.6,1.662,1.662,0,0,0-1.3.929c-.248.489-.5.975-.748,1.46a1.662,1.662,0,0,0-1.506-.22,1.592,1.592,0,0,0-1.116,1.223,2.684,2.684,0,0,0-.042.4v.082c-.042.755-.078,1.513-.117,2.265a1.647,1.647,0,0,1-.082.524c-.05.11-.1.223-.145.333-.638-.379-1.4-.907-1.988-1.35h0a.865.865,0,0,1-.354-.744,51.689,51.689,0,0,1,.6-6.379,5.216,5.216,0,0,1,2.892-3.413,18.829,18.829,0,0,1,4.029-1.255.8.8,0,0,1,.833.163,5.26,5.26,0,0,0,3.494,1.088,5.358,5.358,0,0,0,3.491-1.1.8.8,0,0,1,.833-.163,18.815,18.815,0,0,1,4.03,1.255,5.216,5.216,0,0,1,2.892,3.413,55.25,55.25,0,0,1,.6,6.379h0a.865.865,0,0,1-.351.748Zm-11.535-12.882c4.026,0,7.3-3.9,7.3-8.7,0-4.207-.564-8.7-7.3-8.7s-7.3,4.49-7.3,8.682c0,4.809,3.278,8.711,7.3,8.711Zm0-16.033c5.011,0,5.943,2.576,5.943,7.321,0,4.047-2.668,7.336-5.943,7.336s-5.943-3.274-5.943-7.336c0-4.745.946-7.322,5.943-7.322Z" transform="translate(-199.78 -151.07)"/>
</svg>
