<svg id="download" xmlns="http://www.w3.org/2000/svg" width="22.93" height="29.106" viewBox="0 0 22.93 29.106">
  <defs>
    <style>
      .cls-1 {
        fill: #ed197a;
      }
    </style>
  </defs>
  <path id="Path_160" data-name="Path 160" class="cls-1" d="M354.255,365.626a.581.581,0,0,0-.821-.064c-.966.827-1.589.262-1.758.07a.581.581,0,1,0-.891.745,2.3,2.3,0,0,0,1.5.774c.064.006.122.006.186.006a2.662,2.662,0,0,0,1.717-.71.592.592,0,0,0,.064-.82Z" transform="translate(-341.059 -351.649)"/>
  <path id="Path_161" data-name="Path 161" class="cls-1" d="M336.882,324.408a.584.584,0,0,0-.582-.582h-.53a.582.582,0,0,0,0,1.164h.53A.58.58,0,0,0,336.882,324.408Z" transform="translate(-326.736 -313.121)"/>
  <path id="Path_162" data-name="Path 162" class="cls-1" d="M394.418,324.985h.524a.582.582,0,1,0,0-1.164h-.524a.582.582,0,1,0,0,1.164Z" transform="translate(-381.059 -313.116)"/>
  <path id="Path_163" data-name="Path 163" class="cls-1" d="M225.826,197.333a7.1,7.1,0,0,0-5.233,6.84V207.2a.584.584,0,0,0,.582.582h21.765a.584.584,0,0,0,.582-.582v-3.021a7.109,7.109,0,0,0-5.28-6.852l-2.934-.547-.151-.774c1.95-1.135,3.2-3.411,3.382-6.421l.006-.151c.012-.186.018-.314.023-.431.483-.477,1.182-1.612,1.275-4.278a3.287,3.287,0,0,0-1.019-2.928,2.2,2.2,0,0,0-1.4-.384,3.1,3.1,0,0,0-.711-1.38,5.087,5.087,0,0,0-3.941-1.356h-.018a15.371,15.371,0,0,0-9.594,3.423.579.579,0,0,0,.082.943,1.731,1.731,0,0,1,.926,1.723c-.157,3.341.815,4.517,1.426,4.931.2,2.952,1.444,5.193,3.37,6.316l-.151.774Zm16.526,6.846v2.439H221.757v-2.439a5.931,5.931,0,0,1,4.331-5.711l2.963-.553,2.538,3.522a.588.588,0,0,0,.472.245.572.572,0,0,0,.472-.245l2.538-3.522,2.916.541a5.94,5.94,0,0,1,4.366,5.722Zm-17.871-21.643a14.568,14.568,0,0,1,8.272-2.7h.018a4.112,4.112,0,0,1,3.062.949,1.78,1.78,0,0,1,.472,1.251.586.586,0,0,0,.216.518.6.6,0,0,0,.559.093,1.3,1.3,0,0,1,1.06.1c.384.285.57.955.536,1.939a6.026,6.026,0,0,1-.792,3.324,5.692,5.692,0,0,1-1.921-3.766.6.6,0,0,0-.32-.477.583.583,0,0,0-.576.035c-.047.029-5.006,3.19-8.51,2.276a.574.574,0,0,0-.547.145.586.586,0,0,0-.169.541,5.029,5.029,0,0,1,.052,1.578,6.138,6.138,0,0,1-.565-3.528,2.88,2.88,0,0,0-.845-2.282Zm2.259,6.956a4.264,4.264,0,0,0,.343-2.125c2.975.349,6.357-1.3,7.847-2.125a6.9,6.9,0,0,0,2.457,3.883c-.006.07-.006.151-.012.25l-.006.145c-.221,3.72-2.305,6.124-5.315,6.124s-5.088-2.4-5.315-6.153Zm5.315,7.317a6.362,6.362,0,0,0,2-.314l.128.652-2.131,2.957-2.13-2.963.128-.652a6.2,6.2,0,0,0,2,.32Z" transform="translate(-220.593 -178.676)"/>
</svg>
