<svg xmlns="http://www.w3.org/2000/svg" width="22.7" height="25.223" viewBox="0 0 22.7 25.223">
  <g id="Glyph" transform="translate(-5 -2)">
    <g id="Glyph-2" data-name="Glyph" transform="translate(5 2)">
      <circle id="Ellipse_153" data-name="Ellipse 153" cx="0.371" cy="0.371" r="0.371" transform="translate(16.543 12.611)" fill="#ed197a"/>
      <circle id="Ellipse_154" data-name="Ellipse 154" cx="0.371" cy="0.371" r="0.371" transform="translate(7.641 10.386)" fill="#ed197a"/>
      <circle id="Ellipse_155" data-name="Ellipse 155" cx="0.371" cy="0.371" r="0.371" transform="translate(15.059 17.062)" fill="#ed197a"/>
      <circle id="Ellipse_156" data-name="Ellipse 156" cx="0.371" cy="0.371" r="0.371" transform="translate(12.092 9.644)" fill="#ed197a"/>
      <path id="Path_210" data-name="Path 210" d="M32.191,32.612a.42.42,0,0,0,.593,0l2.1-2.1a.42.42,0,1,0-.593-.593l-2.1,2.1A.42.42,0,0,0,32.191,32.612Z" transform="translate(-20.69 -18.096)" fill="#ed197a"/>
      <path id="Path_211" data-name="Path 211" d="M22.353,34.619c-.488-.483-2.943-2.863-3.867-1.959-.122.122-2.585,7.882-2.585,7.882a.42.42,0,0,0,.53.551s7.756-2.48,7.9-2.606C25.22,37.579,22.836,35.107,22.353,34.619Zm-1.312,1.312a7.385,7.385,0,0,1-1.9-2.623,7.535,7.535,0,0,1,2.619,1.909,7.5,7.5,0,0,1,1.9,2.619,7.663,7.663,0,0,1-2.619-1.9Z" transform="translate(-11.301 -19.654)" fill="#ed197a"/>
      <path id="Path_212" data-name="Path 212" d="M36.551,38.419a.419.419,0,1,0,.593.593,1.808,1.808,0,0,1,2.522,0,.421.421,0,0,0,.6-.593A2.64,2.64,0,0,0,36.551,38.419Z" transform="translate(-23.217 -22.667)" fill="#ed197a"/>
      <path id="Path_213" data-name="Path 213" d="M27.83,26.852a.42.42,0,0,0,.6,0,2.64,2.64,0,0,0,0-3.733.422.422,0,0,0-.6.6,1.8,1.8,0,0,1,0,2.543A.42.42,0,0,0,27.83,26.852Z" transform="translate(-18.161 -14.17)" fill="#ed197a"/>
      <path id="Path_214" data-name="Path 214" d="M25.6,3.682H24.337v-.21a1.471,1.471,0,1,0-2.943,0v.21H17.822v-.21a1.471,1.471,0,0,0-2.943,0v.21H11.306v-.21a1.471,1.471,0,0,0-2.943,0v.21H7.1A2.1,2.1,0,0,0,5,5.783V25.121a2.1,2.1,0,0,0,2.1,2.1H25.6a2.1,2.1,0,0,0,2.1-2.1V5.783A2.1,2.1,0,0,0,25.6,3.682Zm-3.363-.21a.631.631,0,1,1,1.261,0V5.153a.631.631,0,1,1-1.261,0Zm-6.516,0a.631.631,0,1,1,1.261,0V5.153a.631.631,0,1,1-1.261,0Zm-6.516,0a.631.631,0,0,1,1.261,0V5.153a.631.631,0,0,1-1.261,0ZM23.076,24.108v-1.93a1.261,1.261,0,0,1,1.261-1.261h1.93Zm3.783-4.452a.42.42,0,0,1-.42.42h-2.1a2.1,2.1,0,0,0-2.1,2.1v2.1a.42.42,0,0,1-.42.42L7.1,24.675a1.261,1.261,0,0,1-1.261-1.261V9.567H26.86Z" transform="translate(-5 -2)" fill="#ed197a"/>
    </g>
  </g>
</svg>
