<svg xmlns="http://www.w3.org/2000/svg" xmlns:xlink="http://www.w3.org/1999/xlink" width="20.206" height="16.989" viewBox="0 0 20.206 16.989">
  <defs>
    <linearGradient id="linear-gradient" x1="0.125" y1="0.273" x2="1.092" y2="1.277" gradientUnits="objectBoundingBox">
      <stop offset="0" stop-color="#ebcd6e"/>
      <stop offset="0.556" stop-color="#9b6e29"/>
      <stop offset="1" stop-color="#834c1f"/>
    </linearGradient>
  </defs>
  <path id="Path_152" data-name="Path 152" d="M40.733,34.377h0c-.007-.022-.015-.045-.022-.074s-.022-.089-.037-.134a2.077,2.077,0,0,1,.06-1.72c-.35.119-.38.834-.387,1.065a2.108,2.108,0,0,0-.469-.491,1.041,1.041,0,0,0-.194-.119,1.294,1.294,0,0,0-.2-.1l-.216-.074a.78.78,0,0,0-.216-.06,3.189,3.189,0,0,0-1.749.141,8.709,8.709,0,0,0-1.593.819c-.514.313-1.012.633-1.526.9a3.843,3.843,0,0,1-1.615.469,3.439,3.439,0,0,1-1.63-.32,4.163,4.163,0,0,1-1.37-1.065c-.06-.067-.112-.134-.171-.2a6.337,6.337,0,0,1-.32-2.606.257.257,0,0,0,.141-.1.54.54,0,0,0,.089-.342.3.3,0,0,0-.223-.283.249.249,0,0,0-.268.1.486.486,0,0,0,.1.6,6.149,6.149,0,0,0,.2,2.248,7.641,7.641,0,0,1-1.184-2.747,7.5,7.5,0,0,1-.164-1.913c.007-.179.03-.357.052-.536.186-.1.357-.208.536-.32.223-.149.447-.3.655-.462a5.3,5.3,0,0,0,.61-.551,2.374,2.374,0,0,0,.275-.328.8.8,0,0,0,.171-.432v-.052h-.045a1.818,1.818,0,0,0-.782.223,3.125,3.125,0,0,0-.685.491,3.218,3.218,0,0,0-.529.692l-.112.2a4.349,4.349,0,0,1,.261-.759,4.867,4.867,0,0,1,.618-1c.424-.3,2.055-1.318,3.462-.826a.357.357,0,0,0,.208.409c.186.082.625.127.588-.231a.4.4,0,0,0-.082-.2.47.47,0,0,0-.6-.127h0a3.842,3.842,0,0,0-3.112.476A5.042,5.042,0,0,1,30.7,24.1a4.2,4.2,0,0,1,1.779-.335,3.043,3.043,0,0,1,1.132.275,1.365,1.365,0,0,1,.484.372.543.543,0,0,1,.156.328.584.584,0,0,1-.156.417c-.082.1-.179.194-.261.3a.812.812,0,0,0-.179.357.568.568,0,0,0,.089.395.441.441,0,0,0,.32.179.462.462,0,0,0,.29-.1,1.079,1.079,0,0,0,.417-.789,1.428,1.428,0,0,0-.231-.893,1.779,1.779,0,0,0-.878-.677,3.949,3.949,0,0,0-1.161-.246c-.141-.007-.275-.007-.417-.007a4.808,4.808,0,0,0-.916.112c.089-.067.171-.141.261-.223a5.51,5.51,0,0,0,.409-.424,3.313,3.313,0,0,0,.335-.506,1.51,1.51,0,0,0,.194-.61l.007-.112-.074.06c-.149.127-.29.253-.432.395a3.776,3.776,0,0,0-.409.432,2.451,2.451,0,0,0-.305.529,2.385,2.385,0,0,0-.171.506,3.289,3.289,0,0,0-.357.112,4.93,4.93,0,0,0-1.132.618,2.593,2.593,0,0,0,.141-1.869.242.242,0,0,0,.127-.171.408.408,0,0,0-.06-.313c-.164-.253-.7-.313-.648.134a.431.431,0,0,0,.156.275.459.459,0,0,0,.275.1l-.015.007a2.5,2.5,0,0,1-.32,2.1c-.022.022-.052.037-.074.06a4.751,4.751,0,0,0-.536.558c.022-.089.037-.179.052-.268a5.2,5.2,0,0,0,.06-.6,3.281,3.281,0,0,0-.037-.6,1.756,1.756,0,0,0-.179-.581l-.037-.067-.045.052a1.648,1.648,0,0,0-.253.573,2.319,2.319,0,0,0-.074.64,2.449,2.449,0,0,0,.119.625,1.98,1.98,0,0,0,.119.29c.022.045.052.089.074.134a.039.039,0,0,1,.015.03,6.06,6.06,0,0,0-.447.737,4.446,4.446,0,0,0-.29.782A4.61,4.61,0,0,0,26.983,25a.255.255,0,0,0-.007-.253.557.557,0,0,0-.365-.261.257.257,0,0,0-.253.082c-.208.253.067.529.283.588a.28.28,0,0,0,.231-.03,5.412,5.412,0,0,1,.61,2.71c-.007.052-.015.112-.022.164-.156-.357-.476-1.02-.8-1.094a5.4,5.4,0,0,1,.767,1.519,7.705,7.705,0,0,0,.156,1.943q.067.3.156.6c-.1-.149-.208-.29-.313-.432a6.909,6.909,0,0,0-.767-.841,4.809,4.809,0,0,0-.908-.648,3.242,3.242,0,0,0-1.035-.335h-.007a1.671,1.671,0,0,1-.573-.082,1.749,1.749,0,0,1-.275-.1,1.414,1.414,0,0,1-.253-.149l-.268-.186.171.3a2.579,2.579,0,0,0,.231.35c.045.052.089.112.134.156a.007.007,0,0,1,.007.007,2.164,2.164,0,0,0-.29.089,2.806,2.806,0,0,0-.454.216,2.711,2.711,0,0,0-.409.313,2.109,2.109,0,0,0-.35.409l-.1.164.179-.022.38-.045c-.03.03-.06.052-.089.082a3.944,3.944,0,0,0-.283.32,1.783,1.783,0,0,0-.231.38,1.173,1.173,0,0,0-.119.454l-.007.156.119-.074c.484-.305.931-.655,1.422-.908a4.427,4.427,0,0,1,.752-.328,2.984,2.984,0,0,0-1.347,1.422,4.165,4.165,0,0,0-.328,2.293,5.023,5.023,0,0,0,.29,1.117,4.409,4.409,0,0,0,.529,1,2.217,2.217,0,0,0,1.831.968A1.973,1.973,0,0,0,27.356,35.1a1.878,1.878,0,0,0-1.027-1.727.975.975,0,0,0-.2-.045.886.886,0,0,0-.864.715c-.037.141-.022.328.089.395a.243.243,0,0,0,.253-.037,1.491,1.491,0,0,0,.29-.283,1.043,1.043,0,0,1,.305-.268c.5-.253.826.573.886,1.012a1.555,1.555,0,0,1-.432,1.347,1.824,1.824,0,0,1-.395.283,1.921,1.921,0,0,1-.9.223A1.955,1.955,0,0,1,25,36.67a.931.931,0,0,0-.022-.32,2.219,2.219,0,0,0-.164-.439,2.528,2.528,0,0,0-.521-.744c-.216-.216-.462-.35-.655-.543a.949.949,0,0,1-.35-.677h0l.052.037c.037.022.067.045.1.067a1.251,1.251,0,0,0,.223.112,1.267,1.267,0,0,0,.238.074.4.4,0,0,0,.246-.022l.037-.022-.037-.03a1.871,1.871,0,0,1-.365-.521c-.1-.194-.179-.395-.261-.6s-.141-.417-.208-.633c-.037-.134-.074-.268-.1-.4a1.62,1.62,0,0,1,.082-.2,2.693,2.693,0,0,1,1.347-1.4,2.3,2.3,0,0,1,.916-.194,2.424,2.424,0,0,1,.931.194,3.96,3.96,0,0,1,1.34.931,7.407,7.407,0,0,0,1.429,2.539,4.578,4.578,0,0,0,1.481,1.124,3.7,3.7,0,0,0,1.757.328,4.12,4.12,0,0,0,1.712-.514,16.946,16.946,0,0,0,1.534-.945,8.932,8.932,0,0,1,1.541-.849,3.1,3.1,0,0,1,1.66-.186.943.943,0,0,1,.208.045l.2.06c.067.022.127.06.194.089a1.5,1.5,0,0,1,.186.1,1.989,1.989,0,0,1,.61.655,2.86,2.86,0,0,1,.328.893,3.928,3.928,0,0,1,.082.983A2.49,2.49,0,0,0,40.733,34.377ZM32.075,22.5a5.334,5.334,0,0,1-.335.469c-.119.149-.238.305-.365.454-.1.119-.2.238-.3.357a.027.027,0,0,0-.022.007c.015-.022.022-.045.037-.067.194-.246.38-.5.566-.744.208-.29.417-.581.618-.886A1.742,1.742,0,0,1,32.075,22.5Zm-.782.856c.1-.171.2-.335.305-.506a3.111,3.111,0,0,1,.335-.484,1.774,1.774,0,0,1,.342-.29h0c-.223.275-.439.566-.648.856-.164.231-.335.469-.491.7C31.19,23.553,31.242,23.456,31.294,23.359Zm-2.792.618a4.984,4.984,0,0,1,.022.573c0,.32-.015.648-.03.983a.134.134,0,0,0-.037.052,4.19,4.19,0,0,1-.037-.439c-.007-.194-.007-.395,0-.588.007-.29.022-.573.037-.864A2.019,2.019,0,0,1,28.5,23.977Zm-.112,1.474c-.03-.1-.052-.194-.082-.3a5.58,5.58,0,0,1-.112-.6,1.683,1.683,0,0,1-.007-.61.941.941,0,0,1,.223-.447.866.866,0,0,1,.03.134c-.03.305-.052.61-.067.923,0,.2-.007.395.007.6a2.225,2.225,0,0,0,.06.447l-.007.007V25.6Zm-.253,1.72a7.669,7.669,0,0,1,.521-.67c.045-.052.089-.1.141-.156s.1-.1.149-.149l.156-.134c.06-.037.112-.074.171-.112a1.251,1.251,0,0,1,.663-.164,3.782,3.782,0,0,0-.581.335,6.732,6.732,0,0,0-.64.5,7.218,7.218,0,0,0-.573.6c-.089.1-.179.216-.261.328,0,.007-.007.007-.007.015C27.966,27.431,28.048,27.3,28.137,27.171Zm-.283.462c.1-.134.208-.261.32-.387a7.047,7.047,0,0,1,.573-.581,6.731,6.731,0,0,1,.625-.514,5.847,5.847,0,0,1,.581-.365h.015a1,1,0,0,1-.164.283,2.541,2.541,0,0,1-.275.29c-.194.186-.4.35-.61.521s-.417.342-.625.506c-.149.127-.313.246-.462.372C27.84,27.714,27.847,27.677,27.854,27.632ZM23.3,32.441a5.12,5.12,0,0,0,.179.663,2.488,2.488,0,0,0,.685,1.072.475.475,0,0,1-.179.007.659.659,0,0,1-.223-.074c-.074-.03-.141-.074-.216-.112l-.1-.067-.052-.037c-.015-.007-.082-.082-.082-.074l-.015.067a.969.969,0,0,0,.06.484,1.266,1.266,0,0,0,.261.387c.208.216.447.372.64.573a3.637,3.637,0,0,1,.521.677,3.872,3.872,0,0,1,.194.395.869.869,0,0,1,.06.275,2.1,2.1,0,0,1-1.2-.849,4.157,4.157,0,0,1-.476-.923,4.428,4.428,0,0,1-.261-1.027,3.894,3.894,0,0,1,.149-1.735C23.261,32.233,23.276,32.337,23.3,32.441Zm3.328-2.211a2.647,2.647,0,0,0-.983-.268h-.007a3.638,3.638,0,0,0-.4-.022,3.588,3.588,0,0,0-1.593.447c-.454.231-.871.543-1.3.811a1.6,1.6,0,0,1,.29-.558,3.131,3.131,0,0,1,.566-.566l.253-.2-.305.037-.462.052a2.321,2.321,0,0,1,.581-.506,2.244,2.244,0,0,1,.424-.208,2.42,2.42,0,0,1,.454-.127l.335-.074-.335-.089a.306.306,0,0,1-.127-.089c-.045-.045-.082-.089-.127-.141l-.045-.067c.007,0,.007.007.015.007a2.322,2.322,0,0,0,.29.112,1.654,1.654,0,0,0,.6.067,3.207,3.207,0,0,1,1,.3,4.8,4.8,0,0,1,.9.61,7.26,7.26,0,0,1,.782.8c.127.156.253.313.372.476.022.067.037.134.06.194A3.936,3.936,0,0,0,26.626,30.23Z" transform="matrix(0.995, 0.105, -0.105, 0.995, -18.11, -24.09)" fill="url(#linear-gradient)"/>
</svg>
