<svg id="download_1_" data-name="download (1)" xmlns="http://www.w3.org/2000/svg" width="26.091" height="34.452" viewBox="0 0 26.091 34.452">
  <defs>
    <style>
      .cls-1 {
        fill: #ed197a;
      }
    </style>
  </defs>
  <path id="Path_164" data-name="Path 164" class="cls-1" d="M363.826,348.211c-.287-.229-1.146,0-1.318.172-.172-.057-1.376,0-1.089.286a1.024,1.024,0,0,0,.4.287c.516.974,1.6.115,2.006-.4V348.5a.255.255,0,0,0,0-.287Z" transform="translate(-349.469 -333.057)"/>
  <path id="Path_165" data-name="Path 165" class="cls-1" d="M361.812,303.642c.4.917,2.064.4.573-.115h-.057a.056.056,0,0,0-.057-.057v-.344c.344-.172.172-1.777.057-2.006-.115-.115-.458-.631-.4-.057a7.347,7.347,0,0,0-.115,2.579Z" transform="translate(-349.806 -289.406)"/>
  <path id="Path_166" data-name="Path 166" class="cls-1" d="M317.139,275.051c.344-.057.688-.229,1.032-.287h0c.229,0,1.949.4,1.949.344,0-.172-.057-.287-.287-.344.057-.344-.917-.4-.974-.458h.057c-.4-.115-1.49-.172-1.777.172-.115.172-.573.631,0,.573Z" transform="translate(-308.4 -264.884)"/>
  <path id="Path_167" data-name="Path 167" class="cls-1" d="M320.914,293.617a.123.123,0,0,0,.115-.115c.057,0,.172-.115.229-.229a.925.925,0,0,0,.229-.4c.745.917.631-.4-.172-.745a2.3,2.3,0,0,0-1.835.344c-.172.057-.458.115-.344.344-.287.516.688.4.974-.057-.114.458.058,1.2.8.859Z" transform="translate(-310.455 -281.33)"/>
  <path id="Path_168" data-name="Path 168" class="cls-1" d="M233.67,187.112c.344-2.809-.115-6.133-2.809-7.738-1.032-.631-2.35-.8-3.152-1.72-.974-1.089-.86-2.637-.745-4.012a56.4,56.4,0,0,0-.057-10.318c-.287-2.694-.458-6.592-2.809-8.483-2.121-1.662-5.732-1.318-7.853.115-2.579,1.662-2.694,5.445-2.809,8.2a85.724,85.724,0,0,0,.516,10.833c.115,1.2.745,3.5-.287,4.3-.975.688-2.637.688-3.726,1.433a5.159,5.159,0,0,0-2.178,4.127c-.115,1.032-.229,3.1.516,3.955,1.2,1.261,1.089-.917,1.032-1.719a10.394,10.394,0,0,1,.8-5.445c2.006,1.891.631,5.159,2.293,7.05,1.261,1.433.573-1.49.458-2.178a39.428,39.428,0,0,0-1.662-5.216c1.662-.745,2.809-1.662,4.528-.8,1.662.86,3.783,2.35,5.732,2.35,1.834,0,3.324-1.777,4.757-2.694,1.72-1.146,3.554.516,4.987,1.6-.745,1.433-1.376,2.923-2.006,4.471-.172.458-1.433,4.012.229,2.465,1.6-1.548.573-4.643,2.637-6.018.229,1.6.516,3.153.745,4.757,0,.4.631,2.349.86.687ZM224.384,156.1c.057.115.172.172.229.287-.229-.229-.458-.516-.688-.745ZM214.125,168.37a42.323,42.323,0,0,1,.344-8.941c.229-1.376,1.6-5.5,3.783-4.356,4.184-2.407,7.165,2.98,7.738,6.305a47.388,47.388,0,0,1,.057,14.788c-1.949.458-2.579-3.267-2.35-4.528.4-1.891,1.949-3.038,1.949-5.1,0-1.49-.458-3.668-2.235-3.668-.4,0-.745.287-1.146.229-.516-.057-.516-.287-.917-.4-.516-.172-1.261-.516-.8.688a4.962,4.962,0,0,1-2.293-6.305c-1.376-.344-1.089,2.407-1.318,3.038-.344,1.089-1.834,2.293-1.662,3.5-.057-.86-.172-1.777-.287-2.637-1.891,4.929,4.413,9.17,2.637,13.985a1.983,1.983,0,0,1-1.777,1.376c-.974.115-.974-.057-1.261-1.089a34.7,34.7,0,0,1-.458-6.878Zm3.382,10.259c-.344-.287-.745-.631-1.089-.917.229-.172.573-.287.745-.516l.057-.057a.517.517,0,0,0,.344-.344.361.361,0,0,0,.229-.458,9.21,9.21,0,0,0,.229-5.56c1.6,1.6,3.382,2.637,5.273.8a8.064,8.064,0,0,0,1.146,5.388c.172,2.064-2.293,2.866-3.038,4.356-.115-.057-.172-.115-.287-.172l.057.057c-1.147-.917-2.465-1.662-3.669-2.579Zm-.516-10.088c-.229-.573-.458-1.089-.688-1.662v.057c-.057-.172-.172-.4-.229-.573.229-.4-.344-1.72-.287-2.235v-.057a1.573,1.573,0,0,0,.115-.745c.631.172,1.261-2.407,1.376-2.751a4.814,4.814,0,0,0,2.35,3.038c.229.172.688.745,1.089.573a.362.362,0,0,0,.344,0,3.415,3.415,0,0,0,.631-.344.056.056,0,0,0,.057-.057,6.839,6.839,0,0,0,.86.516.728.728,0,0,0-.4.229c-.631.287-.745,1.376-.287.974.115.057.229.057.287-.057.057,0,.057-.057.115-.057a.252.252,0,0,0,.057.287.554.554,0,0,0,.8.057.565.565,0,0,0,.573-.516c1.376-.344-.057-.917-.688-.86a.2.2,0,0,1-.115-.057c.057,0,.057,0,.057-.057.344.057.631-.115.631-.458v-.115a4.7,4.7,0,0,1,1.376,1.433,5.389,5.389,0,0,1,0,1.662,8.133,8.133,0,0,1-2.522,4.528c-2.006,1.548-4.356-.8-5.445-2.522.058-.115,0-.172-.057-.23Zm4.3-4.986v-.172c.057.057.115.057.115.115C221.346,163.5,221.346,163.556,221.289,163.556Zm1.72-.115h0c-.057.057-.057,0-.115,0C222.951,163.5,223.009,163.5,223.009,163.441Zm-.516,1.834,1.891,9.916c0,.057.057.057,0,0C224.441,175.248,224.384,175.248,224.384,175.191Zm.115.172v0Zm.917,1.261c-.057.057-.057.057-.057.115l-.172-.172a.211.211,0,0,0,.172-.057h.229C225.473,176.566,225.416,176.566,225.416,176.624Zm-6.936,3.554c-1.318-.573-2.579-.86-3.5-2.006,0-.057-.057-.115-.057-.172v-.057a2.633,2.633,0,0,1,1.834-1.146v.057c-.229.172-1.318.4-1.146.86.115,1.032,2.98,2.293,3.726,2.809-.229-.114-.573-.229-.86-.344Zm8.082-2.293c-1.032.745-1.949,1.662-2.98,2.407a7.894,7.894,0,0,0,1.318-2.064l.516-.86.057-.057a.123.123,0,0,1,.115-.115.368.368,0,0,0,.287-.287.346.346,0,0,0-.057-.229,3.315,3.315,0,0,1,1.146,1.032,1.205,1.205,0,0,0-.4.172Z" transform="translate(-207.678 -153.732)"/>
</svg>
