<svg xmlns="http://www.w3.org/2000/svg" width="21.533" height="21.415" viewBox="0 0 21.533 21.415">
  <path id="_8674943_ic_fluent_edit_settings_regular_icon" data-name="8674943_ic_fluent_edit_settings_regular_icon" d="M21.687,3.006a3.7,3.7,0,0,1,0,5.235l-3.095,3.095q-.275-.023-.557-.023a6.728,6.728,0,0,0-1.882.267l2.336-2.337L15.449,6.2,5.168,16.483a.775.775,0,0,0-.2.344L3.882,20.81l3.982-1.086a.776.776,0,0,0,.344-.2l3.369-3.369a6.725,6.725,0,0,0-.267,1.882q0,.281.023.557L9.306,20.621a2.328,2.328,0,0,1-1.033.6L2.981,22.664a.776.776,0,0,1-.953-.953L3.471,16.42a2.328,2.328,0,0,1,.6-1.033L16.452,3.006A3.7,3.7,0,0,1,21.687,3.006ZM17.549,4.1l-1,1,3.04,3.041,1-1A2.15,2.15,0,0,0,17.549,4.1ZM14.7,14.391a2.069,2.069,0,0,1-1.491,2.582l-.6.149a5.95,5.95,0,0,0,.007,1.869l.558.134a2.069,2.069,0,0,1,1.5,2.6l-.193.653a5.465,5.465,0,0,0,1.535.953l.51-.537a2.069,2.069,0,0,1,3,0l.516.543a5.461,5.461,0,0,0,1.534-.944l-.2-.71A2.069,2.069,0,0,1,22.859,19.1l.6-.149a5.947,5.947,0,0,0-.007-1.87l-.557-.134a2.069,2.069,0,0,1-1.5-2.6l.193-.653a5.461,5.461,0,0,0-1.535-.954l-.51.536a2.069,2.069,0,0,1-3,0l-.516-.543a5.459,5.459,0,0,0-1.534.944Zm3.333,5.2a1.553,1.553,0,1,1,1.5-1.552A1.526,1.526,0,0,1,18.035,19.588Z" transform="translate(-2 -1.921)" fill="#fff"/>
</svg>
