<svg xmlns="http://www.w3.org/2000/svg" width="43" height="42" viewBox="0 0 43 42">
  <g id="_4781833_filter_filters_funnel_list_navigation_icon" data-name="4781833_filter_filters_funnel_list_navigation_icon" transform="translate(-0.083 -0.5)">
    <g id="Layer_2" data-name="Layer 2" transform="translate(3.992 6.57)">
      <path id="Path_191" data-name="Path 191" d="M33.953,9.661H11.331a1.331,1.331,0,1,1,0-2.661H33.953a1.331,1.331,0,1,1,0,2.661Z" transform="translate(-0.685 -4.339)" fill="#ed197a"/>
      <path id="Path_192" data-name="Path 192" d="M8.323,9.661H4.331A1.331,1.331,0,0,1,4.331,7H8.323a1.331,1.331,0,1,1,0,2.661Z" transform="translate(-3 -4.339)" fill="#ed197a"/>
      <path id="Path_193" data-name="Path 193" d="M26.953,17.661H4.331a1.331,1.331,0,1,1,0-2.661H26.953a1.331,1.331,0,1,1,0,2.661Z" transform="translate(-3 -1.693)" fill="#ed197a"/>
      <path id="Path_194" data-name="Path 194" d="M13.646,25.661H4.331a1.331,1.331,0,0,1,0-2.661h9.315a1.331,1.331,0,0,1,0,2.661Z" transform="translate(-3 0.953)" fill="#ed197a"/>
      <path id="Path_195" data-name="Path 195" d="M9.992,12.984a3.992,3.992,0,1,1,3.992-3.992A3.992,3.992,0,0,1,9.992,12.984Zm0-5.323a1.331,1.331,0,1,0,1.331,1.331A1.331,1.331,0,0,0,9.992,7.661Z" transform="translate(-2.008 -5)" fill="#ed197a"/>
      <path id="Path_196" data-name="Path 196" d="M23.992,20.984a3.992,3.992,0,1,1,3.992-3.992A3.992,3.992,0,0,1,23.992,20.984Zm0-5.323a1.331,1.331,0,1,0,1.331,1.331A1.331,1.331,0,0,0,23.992,15.661Z" transform="translate(2.622 -2.354)" fill="#ed197a"/>
      <path id="Path_197" data-name="Path 197" d="M13.992,28.984a3.992,3.992,0,1,1,3.992-3.992A3.992,3.992,0,0,1,13.992,28.984Zm0-5.323a1.331,1.331,0,1,0,1.331,1.331A1.331,1.331,0,0,0,13.992,23.661Z" transform="translate(-0.685 0.292)" fill="#ed197a"/>
      <path id="Path_198" data-name="Path 198" d="M29.323,17.661H25.331a1.331,1.331,0,1,1,0-2.661h3.992a1.331,1.331,0,1,1,0,2.661Z" transform="translate(3.945 -1.693)" fill="#ed197a"/>
      <path id="Path_199" data-name="Path 199" d="M32.63,25.661h-17.3a1.331,1.331,0,1,1,0-2.661h17.3a1.331,1.331,0,1,1,0,2.661Z" transform="translate(0.638 0.953)" fill="#ed197a"/>
    </g>
    <g id="frame" transform="translate(0 0.5)">
      <rect id="Rectangle_94" data-name="Rectangle 94" width="43" height="42" transform="translate(0.083 0)" fill="none"/>
    </g>
  </g>
</svg>
