<svg id="download_1_" data-name="download (1)" xmlns="http://www.w3.org/2000/svg" width="33.916" height="32.535" viewBox="0 0 33.916 32.535">
  <defs>
    <style>
      .cls-1 {
        fill: #ed197a;
      }
    </style>
  </defs>
  <path id="Path_159" data-name="Path 159" class="cls-1" d="M148.145,178.128h0v.009a15.639,15.639,0,0,0,.831,3.78h0a0,0,0,0,0,0,0c2.433,6.469,9.654,7.555,14.223,7.555,1.252,0,5-.151,5-.151h.02a12.047,12.047,0,0,0,9.444-4.7,11.443,11.443,0,0,0,2.025-4.3h0a19.148,19.148,0,0,0,.57-3.806c0-.006,0-.013,0-.019h0a12.9,12.9,0,0,0,.014-1.4,5.025,5.025,0,0,0,.914-1.01,2.422,2.422,0,0,0,.186-2.228,19.922,19.922,0,0,0-3.32-5.444.362.362,0,1,0-.547.474,19.2,19.2,0,0,1,3.2,5.247,1.723,1.723,0,0,1,.105.964,6.15,6.15,0,0,0-.7-1.111.362.362,0,0,0-.56.459,5,5,0,0,1,.824,1.527,3.761,3.761,0,0,1-.333.361,8.558,8.558,0,0,0-.907-1.6.362.362,0,0,0-.584.429,7.47,7.47,0,0,1,.9,1.652q-.1.07-.207.138h0a.374.374,0,0,1-.532-.143l-1.224-2.351a.362.362,0,0,0-.586-.08l-.231.248a.507.507,0,0,1-.848-.517l.45-1.254a1.44,1.44,0,0,0-.165-1.294,10.317,10.317,0,0,0-.994-1.238,1.9,1.9,0,0,0,1.769-1.892v-.182a1.9,1.9,0,0,0-.591-1.376,3.534,3.534,0,0,0,.536-1.953,7.917,7.917,0,0,0-.321-2.631,4.34,4.34,0,0,0-3.536-3.253,3.863,3.863,0,0,0-3.812,1.175,2.854,2.854,0,0,0-3.1,2.463,4.609,4.609,0,0,0,1.061,3.66c-.2.073-2.475.942-3.655,1.212l-1.277-.585h0a1.9,1.9,0,0,0-.528-.539,3.376,3.376,0,0,0,.56-1.26,4.791,4.791,0,0,0-2.071-5.163,7.062,7.062,0,0,0-6.335,0,4.791,4.791,0,0,0-2.071,5.163h0a3.377,3.377,0,0,0,.56,1.26,1.9,1.9,0,0,0-.834,1.57v.182a1.9,1.9,0,0,0,1.9,1.9h.187a3.462,3.462,0,0,0,.519.927,9.5,9.5,0,0,0-1.6,2.486,1.439,1.439,0,0,0,.067,1.3l.666,1.154h0a.507.507,0,0,1-.743.659l-.272-.2a.362.362,0,0,0-.562.183l-.785,2.531h0a.374.374,0,0,1-.5.236c-.073-.03-.145-.061-.214-.093a7.254,7.254,0,0,1,.46-1.454.362.362,0,1,0-.651-.317,7.353,7.353,0,0,0-.471,1.414,3.753,3.753,0,0,1-.405-.3,8.732,8.732,0,0,1,.428-1.4.362.362,0,1,0-.664-.29,7.485,7.485,0,0,0-.328.962,1.72,1.72,0,0,1-.095-1.034,18.665,18.665,0,0,1,2.984-6.916.362.362,0,1,0-.589-.422,19.388,19.388,0,0,0-3.1,7.184h0a2.424,2.424,0,0,0,.529,2.1,5.332,5.332,0,0,0-.089,1.334Zm.776.415c2.048,1.181,2.917-.169,2.917-.169l.707-2.237a1.87,1.87,0,0,0,2.031-1.056,1.911,1.911,0,0,0-.079-1.631l-.717-1.382a2.338,2.338,0,0,1,.985-1.262,2.211,2.211,0,0,0,2.417,2.049,2.343,2.343,0,0,0,2.273-1.79,8.1,8.1,0,0,1,4.164,3.451h0c-.1.077-.187.154-.273.231h0a2.549,2.549,0,0,0-.839,1.887v6.394a1.027,1.027,0,0,0-1.182.449l-.557.922a.372.372,0,0,1-.359.179,7.722,7.722,0,0,1-5.388-2.723,5.856,5.856,0,0,1-1.134-2.236v0a9.381,9.381,0,0,1-.156-2.455.371.371,0,0,0-.227-.4.362.362,0,0,0-.488.287,8.9,8.9,0,0,0,.1,2.351,8.236,8.236,0,0,0-3.636,1.74,15.033,15.033,0,0,1-.56-2.6Zm6.555-8.029v-.436a3.78,3.78,0,0,0,3.32-.146v.582a1.616,1.616,0,0,1-1.615,1.615,1.575,1.575,0,0,1-1.705-1.615Zm9.915,14.149a10.867,10.867,0,0,1-1.763.123c-.137-.023-.269-.049-.393-.079v-8.073a1.824,1.824,0,0,1,.6-1.35,7.182,7.182,0,0,1,.945-.708,5.249,5.249,0,0,1,.61,2.281Zm.74,3.938c-3.1.331-13.364.811-16.391-6.719a7.445,7.445,0,0,1,3.53-1.776h0a6.878,6.878,0,0,0,1.16,2.168,8.416,8.416,0,0,0,5.9,3.022,1.095,1.095,0,0,0,1.063-.524l.557-.922h0a.3.3,0,0,1,.562.157v.976h0a.362.362,0,0,0,.254.346,12.778,12.778,0,0,0,3.448.341h0a.358.358,0,0,1,.25.1.347.347,0,0,1,.1.248v.18h0a11.833,11.833,0,0,1-1.361-.012.362.362,0,0,0-.059.721c.021,0,.366.029.853.029.173,0,.366,0,.567-.013v.445a8.4,8.4,0,0,1-1.35-.019.362.362,0,0,0-.08.72,8.864,8.864,0,0,0,.89.043c.169,0,.352-.006.54-.018v.023a.485.485,0,0,1-.434.484Zm10.937-4.383A11.3,11.3,0,0,1,168.2,188.6l-.021,0v0h-1a1.209,1.209,0,0,0,.1-.485v-2.1a.987.987,0,0,0-.306-.777.089.089,0,0,1-.035-.093.088.088,0,0,1,.073-.068,1.771,1.771,0,0,0,.533-.15.362.362,0,0,0,.189-.385l-.127-1.051h0a.387.387,0,0,1,.361-.453.4.4,0,0,1,.336.165l.4.526a2.05,2.05,0,0,0,1.861.794c1.537-.178,4.158-1.121,4.7-5.4a4.928,4.928,0,0,1,3.673,1.237,11.168,11.168,0,0,1-1.873,3.856Zm-5.695-15a3.208,3.208,0,0,1-3.205-3.205v-2.943a4,4,0,0,1,2.138-1.779,4.6,4.6,0,0,0,3.177,1.751h0a.524.524,0,0,1,.423.459,5.942,5.942,0,0,0,.672,2.2v.308a3.208,3.208,0,0,1-3.2,3.205Zm1.813.279v.635a1.581,1.581,0,0,1-1.706,1.615,1.617,1.617,0,0,1-1.615-1.615v-.492a3.92,3.92,0,0,0,3.32-.143Zm2.974-3.059h0a1.176,1.176,0,0,1-1.175,1.175h-.025a3.909,3.909,0,0,0,.342-1.6v-.178a2.92,2.92,0,0,0,.524-.394,1.172,1.172,0,0,1,.333.817Zm-9.554-.316h0a1.176,1.176,0,0,1,.838-1.125v1.015a3.9,3.9,0,0,0,.284,1.464,1.175,1.175,0,0,1-1.122-1.172Zm.882,2.058a3.639,3.639,0,0,0,1.652,1.6v.353h0a2.341,2.341,0,0,0,2.339,2.339,2.445,2.445,0,0,0,2.373-1.76,1.515,1.515,0,0,1,.244.1.487.487,0,0,1,.228.6,2.122,2.122,0,0,0,.459,2.388,1.685,1.685,0,0,0,2.035.23h0a5.55,5.55,0,0,1,.921,1.92,1.521,1.521,0,0,0,1.786.735,19.961,19.961,0,0,1-.4,2.881,5.617,5.617,0,0,0-3.816-1.174,11.087,11.087,0,0,0-.111-1.874.366.366,0,0,0-.351-.3.362.362,0,0,0-.363.428,12.312,12.312,0,0,1,.092,2.125c-.406,4.018-2.737,4.881-4.091,5.037a1.322,1.322,0,0,1-1.2-.513l-.39-.513a1.139,1.139,0,0,0-1.049-.454,1.113,1.113,0,0,0-.946,1.3l.118.7c-.312.089-.616.16-.906.219v-7.684c0-2.367-1.965-4.666-2.707-5.45a6.877,6.877,0,0,0,2.29-4.067c.205.073.421.138.643.2h0a1.9,1.9,0,0,0,1.148.642Zm-4.991-2s0-.247,0-.279L165,167.052a5.994,5.994,0,0,1-2.115,3.848l-1.734-1.587c-.357-.326-.757-.668-.928-.813h0a3.5,3.5,0,0,0,.189-.418h.187a1.9,1.9,0,0,0,1.9-1.9Zm-.724-.182v.182h0a1.176,1.176,0,0,1-1.171,1.174,14.1,14.1,0,0,0,.043-2.1,2.618,2.618,0,0,0,.5-.3,1.172,1.172,0,0,1,.63,1.04Zm-9.573.182V166a1.18,1.18,0,0,1,.629-1.04,2.609,2.609,0,0,0,.5.3v1.763a.341.341,0,0,0,0,.035c.01.1.024.2.041.3a1.176,1.176,0,0,1-1.171-1.174Zm1.852.819v-1.9a1,1,0,0,1,.294-.711,1.476,1.476,0,0,0,.43-1.128l-.048-.84a1.194,1.194,0,0,1,1.065-1.26,11.151,11.151,0,0,1,2.39,0,1.194,1.194,0,0,1,1.064,1.26l-.048.84a1.476,1.476,0,0,0,.43,1.128,1,1,0,0,1,.294.711V167a2.814,2.814,0,0,1-1.24,2.156h0a3.054,3.054,0,0,1-3.39,0A2.812,2.812,0,0,1,154.052,167Z" transform="translate(-147.648 -156.942)"/>
</svg>
