<svg xmlns="http://www.w3.org/2000/svg" width="242.439" height="72.051" viewBox="0 0 242.439 72.051">
  <g id="Untitled-1" transform="translate(-9.6 -7.4)">
    <g id="Group_1" data-name="Group 1" transform="translate(226.945 18.025)">
      <path id="Path_1" data-name="Path 1" d="M669.909,57.968a2.456,2.456,0,0,0-.888-.923,1.4,1.4,0,0,0-1.811.178l-.284.284h0c.142-.071.178-.178.284-.284a1.422,1.422,0,0,1,1.03-.426,1.581,1.581,0,0,1,1.243.675,5.619,5.619,0,0,1,1.243,3.551c0,.462,0,.923-.036,1.349-.035.5-.142,1.03-.213,1.527.035-.568.035-1.136.035-1.7v-.107c0-.036,0-.107-.071-.107s-.071.036-.071.071-.036.071-.036.107a3.806,3.806,0,0,1-.817,1.6,3.264,3.264,0,0,1-.781.781.712.712,0,0,1-1.065-.107.637.637,0,0,1-.178-.249,5.494,5.494,0,0,1-.746-2.095c-.106-.533-.106-1.1-.177-1.669-.036-.071,0-.178-.036-.249h0a.035.035,0,0,0-.036-.036.981.981,0,0,0,.036.32,9.862,9.862,0,0,0,.248,2.024,5.867,5.867,0,0,0,.817,1.953.767.767,0,0,0,1.278.107,4.691,4.691,0,0,0,1.278-1.7,8,8,0,0,0,.284-.852,13.753,13.753,0,0,1,0,2.095.3.3,0,0,0,0,.249h0v.071a1.537,1.537,0,0,1,.036-.178,13.675,13.675,0,0,0,.32-2.7A6.033,6.033,0,0,0,669.909,57.968Zm.568,6.249h0v-.036h0v.036Z" transform="translate(-650.602 -49.881)" fill="#fff"/>
      <path id="Path_2" data-name="Path 2" d="M674.653,59.253a.13.13,0,0,0-.036-.107c-.177-.5-.355-.994-.568-1.456a2.261,2.261,0,0,0-.355-.639,2.974,2.974,0,0,0-1.207-.888,3.621,3.621,0,0,0-.781-.32c-.071-.036-.142-.036-.178.036-.035.036,0,.107.036.142.249.32.426.675.675.959a3.015,3.015,0,0,0,1.243.959,2.243,2.243,0,0,1-1.278-.746,10.2,10.2,0,0,1-.781-.959,5.614,5.614,0,0,0-1.207-1.03,1.6,1.6,0,0,0-2.414.781c.071-.036.071-.107.106-.178a1.5,1.5,0,0,1,1.562-.817,2,2,0,0,1,1.03.5,8.914,8.914,0,0,1,1.491,1.562,2.172,2.172,0,0,0,1.491.923.3.3,0,0,0,.249,0c-.036,0-.107-.036-.142-.036a3.484,3.484,0,0,1-.781-.462,7.908,7.908,0,0,1-1.278-1.6c.036-.036.107,0,.142,0a8.806,8.806,0,0,1,1.314.6,2.761,2.761,0,0,1,.888.923c.284.639.5,1.278.746,1.917,0,.036.036.071,0,.107h0C674.688,59.4,674.653,59.324,674.653,59.253Zm-1.03-1.278h0Z" transform="translate(-651.44 -48.681)" fill="#fff"/>
      <path id="Path_3" data-name="Path 3" d="M684.2,88.9v0Z" transform="translate(-662.017 -70.587)" fill="#fff"/>
      <path id="Path_4" data-name="Path 4" d="M646.686,76.1a8.413,8.413,0,0,1-.391,3.87,4.591,4.591,0,0,1-.817,1.385,24.95,24.95,0,0,1-2.024,1.846A29.085,29.085,0,0,1,640.4,85.3c-1.42.888-2.876,1.811-4.3,2.7a25.479,25.479,0,0,0-2.8,2.024,13,13,0,0,0-3.16,3.8c-.462.781-.852,1.6-1.243,2.414a1.435,1.435,0,0,1-.177.32.285.285,0,0,1-.5-.036,3.367,3.367,0,0,1-.355-.6,7.388,7.388,0,0,1-.923-2.7,2.9,2.9,0,0,1-.035-.959.714.714,0,0,1,.142-.284,6.233,6.233,0,0,1,1.207-.959c.6-.391,1.207-.71,1.811-1.03,1.562-.817,3.16-1.527,4.758-2.237a4.168,4.168,0,0,0,.39-.178c-1.385.5-2.734.994-4.083,1.562-1.136.462-2.237.923-3.338,1.491a10.9,10.9,0,0,0-1.385.817.942.942,0,0,0-.391.639,10.115,10.115,0,0,0-.106,1.03,2.785,2.785,0,0,1-.142.923c-.035.071-.035.142-.142.178-.107,0-.142-.071-.177-.142a12.725,12.725,0,0,1-1.207-3.551,5.8,5.8,0,0,1,.071-2.343,4.035,4.035,0,0,1,1.172-1.882,6.592,6.592,0,0,1,2.06-1.172,56.128,56.128,0,0,1,5.894-1.74c1.491-.391,2.947-.888,4.438-1.385a16.8,16.8,0,0,0,4.154-2.059,7.459,7.459,0,0,0,3.3-5.077.838.838,0,0,1,.071-.284,14.908,14.908,0,0,1-.6,1.775,1.488,1.488,0,0,1-.32.5c-.177.142-.32.107-.391-.107a.833.833,0,0,1-.071-.391,19.542,19.542,0,0,0-.178-2.876,3.362,3.362,0,0,0-.249-1.03,1.6,1.6,0,0,0-1.243-1.03,1.044,1.044,0,0,0-.852.213,1.573,1.573,0,0,0-.533.426,1.125,1.125,0,0,1-.817.32.407.407,0,0,1-.426-.32.552.552,0,0,1,.32-.71c.071-.035.107-.035.178-.071-.071-.107-.178-.178-.249-.284a4.214,4.214,0,0,1-.888-2.308,6.509,6.509,0,0,1,.071-2.343V66.3h.035a11.133,11.133,0,0,0-.071,1.882,4.776,4.776,0,0,0,.923,2.734.428.428,0,0,0,.177.178l.178.178c-.071.035-.142.035-.213.071a.575.575,0,0,0-.391.71.359.359,0,0,0,.426.284,1.37,1.37,0,0,0,.781-.391,1.664,1.664,0,0,1,1.03-.568,1.375,1.375,0,0,1,.852.178,2.057,2.057,0,0,1,.923,1.491,17.248,17.248,0,0,1,.249,3.3,1.461,1.461,0,0,0,.035.391c.071.178.178.213.32.071a1.579,1.579,0,0,0,.284-.391,18.733,18.733,0,0,0,.675-1.988h.035c.036,0,0,.035,0,.071a7.5,7.5,0,0,1-1.42,3.586,8.466,8.466,0,0,1-2.912,2.45,21.8,21.8,0,0,1-4.4,1.846c-1.988.639-4.012,1.136-6.036,1.7-1.136.32-2.272.675-3.409,1.1a5.284,5.284,0,0,0-1.811,1.1,3.944,3.944,0,0,0-1.243,3.267,10.965,10.965,0,0,0,1.136,4.083,3.684,3.684,0,0,1,.142.355c.035.035.035.107.071.107.071,0,.071-.071.107-.107a2.986,2.986,0,0,0,.142-.959,5.426,5.426,0,0,1,.106-1.065.943.943,0,0,1,.391-.639,9.249,9.249,0,0,1,1.42-.817,62.465,62.465,0,0,1,6.569-2.734,12.012,12.012,0,0,1,1.207-.391c-.071.107-.142.107-.213.142-2.059.888-4.119,1.811-6.107,2.912a20.183,20.183,0,0,0-1.846,1.172,1.124,1.124,0,0,0-.5,1.172,7.82,7.82,0,0,0,1.172,3.409c.035.071.106.142.142.213.142.213.284.213.462.035.071-.107.142-.249.213-.355a26.863,26.863,0,0,1,2.166-3.8A15.552,15.552,0,0,1,635,88.563c1.669-1.136,3.409-2.2,5.148-3.267.994-.639,1.988-1.243,2.911-1.953.6-.462,1.136-.959,1.7-1.42a4.824,4.824,0,0,0,1.633-2.876,8.807,8.807,0,0,0-.5-5.326,4.009,4.009,0,0,0-1.882-2.095c-.426-.213-.852-.5-1.278-.71a.49.49,0,0,1-.142-.107h0a16.923,16.923,0,0,1,2.2,1.278,3.06,3.06,0,0,1,.852,1.065A5.791,5.791,0,0,1,646.686,76.1Z" transform="translate(-623.297 -56.012)" fill="#fff"/>
      <path id="Path_5" data-name="Path 5" d="M681.116,69.745a1.781,1.781,0,0,1-.071.426.65.65,0,0,1-.639.462.982.982,0,0,1-.462-.107,2.742,2.742,0,0,0-1.917,0,.525.525,0,0,1-.462,0c-.32-.142-.675-.249-.994-.426-.035,0-.035-.035-.071-.035h.036c.391.142.746.284,1.136.462a.3.3,0,0,0,.248,0,2.753,2.753,0,0,1,2.06-.071l.32.107a.582.582,0,0,0,.746-.5,2.731,2.731,0,0,0-.107-1.314A15.2,15.2,0,0,0,679.8,65.52c-.035-.071-.107-.107-.107-.178a.278.278,0,0,1-.142-.142c.106.036.142.071.142.142h0a.354.354,0,0,1,.142.178c.142.178.249.391.391.568h0a.094.094,0,0,1-.106-.107,2.957,2.957,0,0,1-.284-.426h0V65.52c-.035-.035-.071-.107-.106-.142.036.036.071.107.106.142v.036a.035.035,0,0,0,.036.036,6.062,6.062,0,0,1,.6,1.385,18.4,18.4,0,0,1,.6,1.988C681.08,69.177,681.116,69.461,681.116,69.745Z" transform="translate(-657.051 -55.303)" fill="#fff"/>
      <path id="Path_6" data-name="Path 6" d="M641.422,68.316a.185.185,0,0,0-.071.142h.036v.036A.32.32,0,0,0,641.422,68.316Zm0,0a.185.185,0,0,0-.071.142h.036v.036A.32.32,0,0,0,641.422,68.316Zm0,0a.185.185,0,0,0-.071.142h.036v.036A.32.32,0,0,0,641.422,68.316Zm5.078-5.255h0c-.036-.107,0-.178-.036-.249s-.035-.178-.071-.249c-.284-1.207-.639-2.414-1.03-3.586a12.553,12.553,0,0,0-1.172-2.521,1.371,1.371,0,0,0-.533-.568,5.482,5.482,0,0,0-1.491-.6,1.185,1.185,0,0,1-.781-.391,2.087,2.087,0,0,0-1.6-.817,1.616,1.616,0,0,0-1.065.213,1.751,1.751,0,0,0-.675.923c-.036.071-.107.142-.036.249.071-.035.071-.107.107-.178a1.5,1.5,0,0,1,1.562-.817,2,2,0,0,1,1.03.5,8.913,8.913,0,0,1,1.491,1.562,2.172,2.172,0,0,0,1.491.923c.036,0,.071.036.071,0h0v-.036a3.476,3.476,0,0,1-.781-.462,7.9,7.9,0,0,1-1.278-1.6c.036-.035.107,0,.142,0a8.8,8.8,0,0,1,1.314.6,2.758,2.758,0,0,1,.888.923c.284.639.5,1.278.746,1.917,0,.036.035.071,0,.107h0c-.142-.178-.249-.391-.391-.568h-.035s-.035,0,0,.036a15.2,15.2,0,0,1,1.136,3.231,2.767,2.767,0,0,1,.107,1.314.6.6,0,0,1-.746.5l-.32-.107a2.759,2.759,0,0,0-2.059.071.3.3,0,0,1-.249,0c-.391-.142-.746-.284-1.136-.462h-.036c.036.036.107.071.142.107.426.249.852.5,1.278.71a3.883,3.883,0,0,1,1.882,2.095,8.858,8.858,0,0,1,.5,5.326,5.125,5.125,0,0,1-1.633,2.876c-.568.5-1.136.959-1.7,1.42a32.039,32.039,0,0,1-2.911,1.953c-1.7,1.065-3.444,2.13-5.148,3.267a15.551,15.551,0,0,0-4.048,3.728,25,25,0,0,0-2.166,3.8,1.182,1.182,0,0,1-.213.355c-.142.213-.319.178-.462-.036-.035-.071-.107-.142-.142-.213a7.664,7.664,0,0,1-1.172-3.409,1.224,1.224,0,0,1,.5-1.172,16.288,16.288,0,0,1,1.846-1.172,64.126,64.126,0,0,1,6.107-2.912c.071-.036.142-.036.213-.142a12,12,0,0,0-1.207.391,62.458,62.458,0,0,0-6.569,2.734,11.307,11.307,0,0,0-1.42.817.871.871,0,0,0-.391.639,5.422,5.422,0,0,0-.107,1.065,2.991,2.991,0,0,1-.142.959.113.113,0,0,1-.107.107c-.035,0-.071-.071-.071-.107a1.063,1.063,0,0,1-.142-.355,10.785,10.785,0,0,1-1.136-4.083,3.9,3.9,0,0,1,1.243-3.267,5.284,5.284,0,0,1,1.811-1.1,34.73,34.73,0,0,1,3.409-1.1c2.024-.568,4.048-1.065,6.036-1.7a21.8,21.8,0,0,0,4.4-1.846,9.176,9.176,0,0,0,2.911-2.45,8.289,8.289,0,0,0,1.42-3.586c0-.035.036-.071,0-.071h-.035c-.178.675-.426,1.314-.675,1.988a1.007,1.007,0,0,1-.284.391c-.142.142-.249.107-.32-.071a1.329,1.329,0,0,1-.036-.391,25.358,25.358,0,0,0-.248-3.3,2.032,2.032,0,0,0-.923-1.491,1.028,1.028,0,0,0-.852-.178,1.743,1.743,0,0,0-1.03.568,1.37,1.37,0,0,1-.781.391.359.359,0,0,1-.426-.284.549.549,0,0,1,.391-.71c.071-.036.142-.036.213-.071l-.177-.178-.177-.178a4.457,4.457,0,0,1-.923-2.734,10.981,10.981,0,0,1,.071-1.882h-.071c-.107.391-.177.817-.249,1.207-.036.071,0,.142,0,.213v.888c.036.071,0,.142.036.213.035.107,0,.249.035.355a3.031,3.031,0,0,0,.533,1.314,1.1,1.1,0,0,1,.249.5c.035.071.035.107-.071.142-.178.036-.249.178-.32.32a3.492,3.492,0,0,0-.249,1.207c-.035.071,0,.178-.035.249v.035a.585.585,0,0,1-.391.746c-.035,0-.071.071-.107.071a13.763,13.763,0,0,0-1.172.817.253.253,0,0,0-.213.107c-.178.213-.426.355-.6.568-.035.036-.071.071-.106.036l-.036-.036c-.035-.035-.035-.071-.071-.071-.391-.5-.781-.959-1.172-1.456-.071-.071-.107-.178-.213-.142-.142.036-.213-.036-.249-.178-.036-.071-.071-.178-.106-.249a4.023,4.023,0,0,1-.071-1.456c0-.178-.036-.249-.213-.178a.967.967,0,0,0-.426.213,1.28,1.28,0,0,0-.284.533.354.354,0,0,1-.178-.142c-.355-.249-.675-.568-1.03-.781a2.962,2.962,0,0,1-1.03-1.065c-.036-.036-.036-.107-.107-.071a.185.185,0,0,0-.071.142,1.093,1.093,0,0,0,.107.462,2.684,2.684,0,0,0,.817,1.065,2.3,2.3,0,0,1,.284.32,8.929,8.929,0,0,0-1.03-.426,4.985,4.985,0,0,1-1.207-.462.156.156,0,0,0-.177-.036.265.265,0,0,0-.036.178,1.968,1.968,0,0,0,.675,1.207,3.946,3.946,0,0,0,1.207.639,2.077,2.077,0,0,1-.462-.071c-.107-.036-.248-.071-.355-.107s-.142.036-.107.142a.477.477,0,0,0,.213.249,2.342,2.342,0,0,0,.959.426.737.737,0,0,1,.355.213,3.585,3.585,0,0,0,.6.675c.249.178.249.178.142.462-.071.249-.036.32.177.426.32.142.675.284.994.426a.492.492,0,0,1,.284.249,9.016,9.016,0,0,0,.426.817,15.194,15.194,0,0,0,3.409,4.119c.035.036.106.071.106.107,0,.071-.071.071-.142.071-.426.142-.888.249-1.349.355q-2.61.586-5.22,1.065c-.994.178-1.953.355-2.912.568H627.4a2.946,2.946,0,0,0-.746.213c-.639.178-1.243.32-1.846.5h0c-.036.036-.071,0-.106,0h0a.035.035,0,0,0-.036.036h0c-.035,0-.035,0-.071.035h-.036a3.028,3.028,0,0,0-.888.462,3.121,3.121,0,0,1-.355.213c-.036,0-.036,0-.071.035a3.78,3.78,0,0,0-.391.32c-.142.178-.355.32-.5.533a1.636,1.636,0,0,0-.32.6,3.531,3.531,0,0,0-.284,1.207,4.012,4.012,0,0,0,0,.923,8.915,8.915,0,0,0,.142.959l.32,1.172a11.884,11.884,0,0,0,.675,1.882,9.316,9.316,0,0,0,1.065,1.811c.249.355.5.675.746,1.03,0,.036.035.071.071.036,0,0,0-.071.036-.071-.036-.107,0-.213-.036-.32a9.956,9.956,0,0,1,0-1.03c.036-.142,0-.249.036-.391v-.142c0-.071,0-.142.071-.142s.106.071.142.142.071.178.107.249a9.228,9.228,0,0,0,.923,2.308,10.982,10.982,0,0,0,1.278,1.882c.035.036.071.142.142.107.036-.036.036-.107.071-.142a12.019,12.019,0,0,1,.888-2.7.624.624,0,0,1,.142-.178,1.184,1.184,0,0,1,1.314-.071,3.777,3.777,0,0,1,1.385,1.314c.319.462.568.994.888,1.456a15.536,15.536,0,0,0,1.6,2.095,10.871,10.871,0,0,0,1.633,1.491,12.576,12.576,0,0,0,2.592,1.491,8.039,8.039,0,0,0,2.414.6c.071.036.106,0,.177.036h.178c.071.036.177,0,.249,0h.426a1.01,1.01,0,0,0,.462,0h.533c.178-.036.32-.036.426-.249a26.387,26.387,0,0,0,2.308-7.1c.107-.639.178-1.278.32-1.917.035-.071,0-.107,0-.178v-.142c.035-.071,0-.142.035-.213v-.178c.036-.071,0-.107,0-.178v-.213c.036-.071,0-.142,0-.213v-.213c.036-.107,0-.178.036-.284v-.249a.965.965,0,0,0,0-.32v-.32c.036-.178,0-.32.036-.5h0v-.6a13.1,13.1,0,0,0,0-1.669v-.639a1.71,1.71,0,0,1,0-.426v-.391a.965.965,0,0,1,0-.32v-.249c-.036-.107,0-.178-.036-.284v-.071c.071-.107,0-.178,0-.284v-.071h0a1.207,1.207,0,0,0-.036-.355V77.69h0v-.32h0V77.3h0v-.142h0c-.035-.213-.035-.391-.071-.6-.036-.142,0-.284-.107-.391a4.014,4.014,0,0,1-.107-.639c.071-.178-.035-.355-.035-.568-.035-.071,0-.142-.035-.178h0a.035.035,0,0,0-.036-.036,1.8,1.8,0,0,1-.107-.6c0-.071,0-.142.071-.178a2.555,2.555,0,0,0,.817-2.024V71.9a.965.965,0,0,1,0-.32v-.32c-.036-.107,0-.213-.036-.32v-.32c-.035-.107,0-.213-.035-.32v-.284a.965.965,0,0,1,0-.32v-.32c-.036-.107,0-.213-.036-.32v-.284a1.192,1.192,0,0,1,0-.355v-.249h0c-.035-.107,0-.178-.035-.284v-.178c-.035-.071,0-.142-.035-.213v-.355c-.107-.462-.178-.923-.249-1.385a2.476,2.476,0,0,0-1.278-1.74c-.213-.107-.426-.213-.675-.32.035-.035.071-.035.106-.071a1.947,1.947,0,0,1,1.349.142c.355.107.639.391.994.462a.552.552,0,0,0,.568-.142c.178-.142.178-.355.248-.568.036-.071,0-.142.036-.213v-.036l-.32-.213Zm-10.368,4.19c.6-.5,1.207-1.03,1.846-1.527.107-.107.249-.213.391-.142.178.071.142.249.142.391a2.5,2.5,0,0,1-.213.888c-.213.6-.461,1.207-.71,1.846-.036.107-.107.142-.249.142a1.193,1.193,0,0,1-.888-.5,2.286,2.286,0,0,1-.391-.959C636.025,67.322,636.061,67.287,636.132,67.251Zm-3.338-3.444a7,7,0,0,0,.071,1.491,3.8,3.8,0,0,1-.5-.568A.709.709,0,0,1,632.794,63.807Zm-.888,2.947a3.706,3.706,0,0,1-.852-.817.346.346,0,0,0-.32-.142,1.319,1.319,0,0,1-.852-.249,2.182,2.182,0,0,0,1.172-.107A3.478,3.478,0,0,1,629,64.091c.426.142.852.32,1.278.426-.284-.142-.568-.32-.852-.462.035,0,.035-.035.071-.035a5.665,5.665,0,0,1,1.811.71h.071c-.355-.462-.71-.888-1.03-1.349.071-.036.071.035.107.035.461.355.959.746,1.42,1.1a6.726,6.726,0,0,1,1.136,1.314c.035.071.035.107-.036.142a3.249,3.249,0,0,0-.888.817A.156.156,0,0,1,631.907,66.754Zm.888.923c-.035-.071-.035-.142-.142-.178.035.107.071.213.107.355-.213-.107-.426-.178-.639-.284-.071-.035-.071-.107-.071-.178a.858.858,0,0,1,.355-.675,1.42,1.42,0,0,1,.639-.355.8.8,0,0,1,.888.355,13.184,13.184,0,0,0,1.456,1.7,6,6,0,0,0,1.456,1.207c.071.035.071.071.035.142a1.446,1.446,0,0,1-.6.426c-.071.036-.142.036-.178.071a1.642,1.642,0,0,0,1.136-.462,6.516,6.516,0,0,0,1.172-1.74,19.261,19.261,0,0,0,.781-1.988,4.9,4.9,0,0,1,.639-1.207,1.159,1.159,0,0,1,.923-.5.742.742,0,0,1,.746.391,2.015,2.015,0,0,1,.284.923,11.645,11.645,0,0,1,.071,2.485,10.633,10.633,0,0,1-.568,2.556,2.062,2.062,0,0,1-.781,1.03l-.639.426a.739.739,0,0,1,.142-.213,9.983,9.983,0,0,0,1.349-3.089c0-.071.035-.107.035-.178a277.321,277.321,0,0,0,.071-.355.185.185,0,0,0-.071.142c0,.035-.035.071-.035.107a13.883,13.883,0,0,1-.923,2.095,9.632,9.632,0,0,1-1.562,2.024c-.071.071-.178.142-.249.213-.5.32-.639.32-1.136-.036A16.048,16.048,0,0,1,632.794,67.677Zm12.214,12.534A31.773,31.773,0,0,1,642.7,91.538a21.886,21.886,0,0,1-1.207,2.414.411.411,0,0,1-.249.178,7.247,7.247,0,0,1-6.107-1.314,11.935,11.935,0,0,1-3.409-3.764c-.284-.462-.462-.959-.746-1.385a4.348,4.348,0,0,0-1.065-1.207,1.548,1.548,0,0,0-1.03-.32.049.049,0,0,1,0-.071,25.52,25.52,0,0,1,2.84-3.622,10.665,10.665,0,0,1,1.882-1.456,35.123,35.123,0,0,1,3.48-2.13c1.349-.71,2.734-1.42,4.119-2.13a28.141,28.141,0,0,0,2.521-1.669c.071-.071.177-.213.284-.142a.385.385,0,0,1,.142.32,7.844,7.844,0,0,1-.391,2.556,35.762,35.762,0,0,1-2.592,6.533c-.568,1.1-1.207,2.166-1.811,3.231-.781,1.42-1.7,2.77-2.628,4.119a.592.592,0,0,1-.71.213,3.279,3.279,0,0,1-.888-.533,10.568,10.568,0,0,1-1.562-1.775c-.071-.107-.213-.284-.142-.391.106-.142.284,0,.426.071a9.773,9.773,0,0,1,1.03.6c.035.036.071.071.107.071a.429.429,0,0,0,.639-.142c.888-1.278,1.775-2.521,2.734-3.764.959-1.278,1.882-2.521,2.7-3.87.036-.071.071-.107.107-.178a.779.779,0,0,1,.106-.178.208.208,0,0,0,.071-.178c-.035.035-.035.071-.071.107-.035.071-.106.142-.142.213-.781,1.065-1.6,2.13-2.45,3.125-.675.781-1.385,1.6-2.095,2.343a9.747,9.747,0,0,1-.923.781.7.7,0,0,1-1.136-.32,3.022,3.022,0,0,1-.178-1.278c0-.071.071-.107.107-.142a30.807,30.807,0,0,0,2.876-1.882,16.018,16.018,0,0,0,1.385-1.314,26.419,26.419,0,0,0,3.089-3.764c.213-.355.461-.746.674-1.136a.349.349,0,0,0,.107-.284.74.74,0,0,0-.142.213,27.892,27.892,0,0,1-3.551,4.119,14.7,14.7,0,0,1-2.7,1.988,27.066,27.066,0,0,1-2.45,1.349c-.106.036-.142.107-.142.249a6.785,6.785,0,0,0,.888,2.627,1.911,1.911,0,0,1,.177.391c.035.107-.036.178-.142.142-.071-.036-.178-.071-.248-.107-.284-.178-.533-.391-.817-.568a.774.774,0,0,0-.178-.107c-.284-.142-.461-.036-.426.284a2.027,2.027,0,0,0,.32,1.136,8.786,8.786,0,0,0,2.13,2.308c.426.32.852.675,1.243.994.106.107.177.071.284,0a5.014,5.014,0,0,0,.888-1.03,32.663,32.663,0,0,0,2.45-4.154,38.151,38.151,0,0,0,2.13-4.58c.639-1.562,1.172-3.16,1.669-4.758a21.214,21.214,0,0,0,.639-2.983c.035-.249.071-.5.107-.781l.071-.071A35.381,35.381,0,0,1,645.009,80.211Zm-2.095-2.805a.2.2,0,0,0-.106.178A.324.324,0,0,0,642.914,77.406Zm-1.491-9.09a.185.185,0,0,0-.071.142h.036v.036A.32.32,0,0,0,641.422,68.316Zm0,0a.185.185,0,0,0-.071.142h.036v.036A.32.32,0,0,0,641.422,68.316Z" transform="translate(-621.725 -48.122)" fill="#fff"/>
      <path id="Path_7" data-name="Path 7" d="M642.132,43.991c-.035,0-.035,0-.035.036v.036c-.036.284-.036.284-.32.355-.213.036-.284.142-.32.355-.035.32-.035.355-.391.426-.107.036-.142.071-.107.178.035.071.035.178-.035.213a.452.452,0,0,0-.178.391v.32a.616.616,0,0,1-.391.533.6.6,0,0,1-.675-.142c-.142-.142-.284-.249-.391-.355a.278.278,0,0,0-.391-.036,1.578,1.578,0,0,0-.6.675,4.058,4.058,0,0,0-.249,1.136c0,.213,0,.213-.178.071a12.518,12.518,0,0,0-2.663-1.349.342.342,0,0,1-.249-.355,2.765,2.765,0,0,1,.142-.746.48.48,0,0,1,.32-.32,2.675,2.675,0,0,0,1.562-1.278c.107-.142.071-.178-.071-.249a.663.663,0,0,1-.391-.426,1.457,1.457,0,0,1,0-.781.849.849,0,0,1,.248-.462.4.4,0,0,1,.675.178.45.45,0,0,1,.036.213c.035.178.071.178.213.107a1.389,1.389,0,0,0,.355-.284,1.42,1.42,0,0,0,.5-.781c.035-.142,0-.178-.142-.178h-.355a2.425,2.425,0,0,0,.959-.71.775.775,0,0,1,.746-.355.983.983,0,0,1,.462.107,4.273,4.273,0,0,1,.852.533,1.18,1.18,0,0,0,.355.213c.177.036.177.142.177.32a3.6,3.6,0,0,0,.142,1.74.97.97,0,0,0,.248.462h0c.036,0,.036,0,.036-.036a3.189,3.189,0,0,1-.248-.959c-.036-.071,0-.142-.036-.213v-.107a1.723,1.723,0,0,1,0-.6v-.036a5.355,5.355,0,0,1,.462-1.633.32.32,0,0,0,.036-.178,3.541,3.541,0,0,0-1.1-1.669,4.739,4.739,0,0,0-2.521-.994,2.878,2.878,0,0,0-.781,0c-.177.036-.355.036-.533.071a3.951,3.951,0,0,0-1.846.817,3.509,3.509,0,0,0-1.207,2.272,1.171,1.171,0,0,0,0,.5,4.7,4.7,0,0,0,.284,1.172c.107.284.178.533.284.781a3.741,3.741,0,0,1,.213.852v.036c.035.071,0,.107.035.178v.107c-.035.107,0,.178-.035.284v.036c0,.071-.036.107-.036.178a6.334,6.334,0,0,1-.6,1.917c-.036.071-.071.142-.177.107-.142-.036-.32-.036-.462-.071a5.227,5.227,0,0,0-.746,0,4.9,4.9,0,0,1,.107.71c.035.071,0,.142.035.213v.213c.036.071,0,.142.036.213v.213a.393.393,0,0,1,0,.284,6.391,6.391,0,0,0-1.243.852,5.615,5.615,0,0,0-1.03,1.207,1.107,1.107,0,0,0-.32.746v.036c.036.071,0,.178.036.249v.213c.036.071,0,.142,0,.213v.178c.036.071,0,.107.036.178.036.391.107.817.178,1.207a13.8,13.8,0,0,0,.32,1.669,22.309,22.309,0,0,0,.6,2.2c.142.426.284.888.462,1.314a10.583,10.583,0,0,1,.5,2.095v.036c.036.071,0,.107.036.178v.213c.035.107,0,.178.035.284a6.444,6.444,0,0,1,0,1.172c-.035.071,0,.178-.035.249v.213c-.036.071,0,.107-.036.178v.036a6.562,6.562,0,0,1-.142.817,8.919,8.919,0,0,1-.249.923,5.674,5.674,0,0,0,.746-.178.035.035,0,0,1,.035-.036.13.13,0,0,1,.036-.107c.071-.462.071-.923.107-1.385v-.6a1.723,1.723,0,0,0,0-.6,5.8,5.8,0,0,1-.071-.781c0-.213.071-.249.249-.107.071.036.107.107.178.142.177.178.355.391.533.6.462.5.923.994,1.385,1.456.071.071.142.142.213.071s-.035-.142-.071-.213a26.031,26.031,0,0,1-1.917-2.805,11.886,11.886,0,0,1-1.314-2.805,33.9,33.9,0,0,1-1.172-5.326,2.382,2.382,0,0,1,.284-1.633,2.519,2.519,0,0,1,.355-.5,12.789,12.789,0,0,1,2.059-2.095c.071-.071.178-.107.213-.213v-.036c0-.036,0-.036-.035-.036h0c-.142,0-.248.107-.391.142-.106.036-.142.036-.142-.071a1.458,1.458,0,0,1-.035-.391c0-.213.071-.284.284-.32a1.766,1.766,0,0,1,.746.036,6.389,6.389,0,0,1,2.628,1.1,13.614,13.614,0,0,1,1.562,1.278,5.921,5.921,0,0,1,.817.817.4.4,0,0,1,.071.391,2.077,2.077,0,0,1-.355.6c-.106.107-.177.107-.248,0a4.017,4.017,0,0,0-.355-.462.493.493,0,0,0-.284-.249h0a.035.035,0,0,0-.036.035v.036c0,.107.107.178.142.284a11.477,11.477,0,0,1,.994,1.669c.249.568.426,1.172.639,1.74a14.4,14.4,0,0,1,.426,1.775c0,.107.035.178.035.284,0,.036.036.071.036.107.071,0,.106-.071.142-.107.249-.213.5-.462.746-.675-.036,0-.036-.036-.036-.107v-.923c-.035-.107,0-.249-.035-.355v-.213c-.036-.071,0-.142-.036-.213,0-.071-.035-.142-.035-.249a5.569,5.569,0,0,0-.462-1.669.547.547,0,0,0-.462-.32,5.9,5.9,0,0,1-.781-.107c.177-.355.426-.675.568-1.03a.159.159,0,0,0,0-.178,1.259,1.259,0,0,0-.142-.32,12.2,12.2,0,0,0-.959-.959c-.319-.284-.639-.533-.959-.781a1.016,1.016,0,0,1,0-.462,2.339,2.339,0,0,1,.036-.5,1.664,1.664,0,0,1,.5-1.03.3.3,0,0,1,.462,0,3.182,3.182,0,0,0,.675.533.6.6,0,0,0,.355,0,.722.722,0,0,0,.675-.639.6.6,0,0,0,0-.355c-.035-.142-.035-.249.142-.32a.188.188,0,0,0,.106-.284c-.071-.142,0-.107.071-.142.249-.036.32-.142.355-.391a.3.3,0,0,1,0-.249c.035-.142.142-.142.284-.142C642.2,44.524,642.381,44.311,642.132,43.991Zm-2.343,8.167a.729.729,0,0,1,1.03.6,17.223,17.223,0,0,1,.355,1.953,4.525,4.525,0,0,1,0,1.385c-.106-.355-.177-.71-.284-1.065a10.642,10.642,0,0,0-.959-2.272l-.213-.32C639.576,52.3,639.612,52.193,639.789,52.158Z" transform="translate(-627.442 -37.325)" fill="#fff"/>
      <path id="Path_8" data-name="Path 8" d="M668.99,57.968a2.457,2.457,0,0,0-.888-.923,1.4,1.4,0,0,0-1.811.178l-.284.284h-.035c-.036.035-.071.107-.107.142l-.213.32a5.971,5.971,0,0,0-.533,1.207c-.071.213-.071.391.107.462a1.128,1.128,0,0,0,.32.107v.391a.984.984,0,0,0,.035.32,9.87,9.87,0,0,0,.249,2.024,5.865,5.865,0,0,0,.817,1.953.767.767,0,0,0,1.278.107,4.692,4.692,0,0,0,1.278-1.7,8.015,8.015,0,0,0,.284-.852,13.753,13.753,0,0,1,0,2.095c0,.036-.036.071,0,.107h.036a13.675,13.675,0,0,0,.32-2.7A5.707,5.707,0,0,0,668.99,57.968Zm.426,3.373a4.175,4.175,0,0,1-.852,2.13,3.77,3.77,0,0,1-.71.6.759.759,0,0,1-1.172-.32,5.5,5.5,0,0,1-.746-3.267c0-.249.035-.5.035-.746a.311.311,0,0,1,.249-.32,2.815,2.815,0,0,1,.6-.071,3.785,3.785,0,0,1,2.13.817A1.1,1.1,0,0,1,669.416,61.341Zm-3.835-2.272A4.053,4.053,0,0,1,666.5,57.4a.882.882,0,0,1,1.207-.107.959.959,0,0,1,.284.249,5.963,5.963,0,0,1,1.207,2.237,3.938,3.938,0,0,0-1.74-.71A4.8,4.8,0,0,0,665.581,59.069Z" transform="translate(-649.683 -49.881)" fill="#fff"/>
      <path id="Path_9" data-name="Path 9" d="M688.7,131.269V129.6a.213.213,0,0,1,.036.142v1.385C688.736,131.162,688.771,131.233,688.7,131.269Z" transform="translate(-664.92 -96.836)" fill="#fff"/>
      <path id="Path_10" data-name="Path 10" d="M688.6,136.5a2.186,2.186,0,0,1,.035-.5A1.22,1.22,0,0,1,688.6,136.5Z" transform="translate(-664.855 -100.964)" fill="#fff"/>
      <path id="Path_11" data-name="Path 11" d="M676.7,171h.462A.525.525,0,0,1,676.7,171Z" transform="translate(-657.18 -123.537)" fill="#fff"/>
      <path id="Path_12" data-name="Path 12" d="M688.636,127.062a2.027,2.027,0,0,1-.035-.462A1.022,1.022,0,0,1,688.636,127.062Z" transform="translate(-664.855 -94.901)" fill="#fff"/>
      <path id="Path_13" data-name="Path 13" d="M662.583,55.536l.036-.036a1.549,1.549,0,0,1,.142.249l-.036.036C662.619,55.713,662.548,55.642,662.583,55.536Z" transform="translate(-648.07 -49.047)" fill="#fff"/>
      <path id="Path_14" data-name="Path 14" d="M629.884,143.591a.738.738,0,0,1,.035-.391C629.919,143.342,629.955,143.484,629.884,143.591Z" transform="translate(-626.981 -105.607)" fill="#fff"/>
      <path id="Path_15" data-name="Path 15" d="M688.536,124.955a1.205,1.205,0,0,1-.036-.355C688.571,124.707,688.536,124.813,688.536,124.955Z" transform="translate(-664.791 -93.612)" fill="#fff"/>
      <path id="Path_16" data-name="Path 16" d="M688.5,138.555a1.206,1.206,0,0,1,.036-.355A.614.614,0,0,1,688.5,138.555Z" transform="translate(-664.791 -102.383)" fill="#fff"/>
      <path id="Path_17" data-name="Path 17" d="M636.484,104.4a.981.981,0,0,1,.036.32C636.448,104.613,636.484,104.507,636.484,104.4Z" transform="translate(-631.238 -80.584)" fill="#fff"/>
      <path id="Path_18" data-name="Path 18" d="M666.336,65.9c.071,0,.036.071.036.107s-.036.035-.036.071H666.3A1.537,1.537,0,0,1,666.336,65.9Z" transform="translate(-650.473 -55.754)" fill="#fff"/>
      <path id="Path_19" data-name="Path 19" d="M629.936,147.52a.983.983,0,0,1-.036-.32C629.971,147.307,629.936,147.413,629.936,147.52Z" transform="translate(-626.997 -108.187)" fill="#fff"/>
      <path id="Path_20" data-name="Path 20" d="M691.436,78.984a.78.78,0,0,1-.036-.284C691.471,78.771,691.436,78.878,691.436,78.984Z" transform="translate(-666.661 -64.009)" fill="#fff"/>
      <path id="Path_21" data-name="Path 21" d="M666.219,84.1a.782.782,0,0,1-.036.284C666.184,84.278,666.148,84.207,666.219,84.1Z" transform="translate(-650.392 -67.492)" fill="#fff"/>
      <path id="Path_22" data-name="Path 22" d="M636.519,108.6a.78.78,0,0,1-.036.284C636.484,108.778,636.448,108.671,636.519,108.6Z" transform="translate(-631.238 -83.293)" fill="#fff"/>
      <path id="Path_23" data-name="Path 23" d="M688.436,123.384a.781.781,0,0,1-.036-.284C688.471,123.171,688.436,123.278,688.436,123.384Z" transform="translate(-664.726 -92.644)" fill="#fff"/>
      <path id="Path_24" data-name="Path 24" d="M688.4,140.184a.782.782,0,0,1,.036-.284C688.436,140.007,688.471,140.078,688.4,140.184Z" transform="translate(-664.726 -103.479)" fill="#fff"/>
      <path id="Path_25" data-name="Path 25" d="M674.7,170.9a.781.781,0,0,1,.284.036C674.878,170.936,674.806,170.971,674.7,170.9Z" transform="translate(-655.891 -123.472)" fill="#fff"/>
      <path id="Path_26" data-name="Path 26" d="M691.4,80.449a.6.6,0,0,1,.036-.249C691.436,80.271,691.471,80.378,691.4,80.449Z" transform="translate(-666.661 -64.977)" fill="#fff"/>
      <path id="Path_27" data-name="Path 27" d="M687.126,112.5v.213c-.071-.036-.036-.142,0-.213Z" transform="translate(-663.878 -85.808)" fill="#fff"/>
      <path id="Path_28" data-name="Path 28" d="M688.3,141.449a.6.6,0,0,1,.036-.249C688.336,141.271,688.371,141.378,688.3,141.449Z" transform="translate(-664.661 -104.318)" fill="#fff"/>
      <path id="Path_29" data-name="Path 29" d="M667.636,58.378l-.035-.036c0-.071,0-.107.071-.142A.32.32,0,0,0,667.636,58.378Z" transform="translate(-651.312 -50.788)" fill="#fff"/>
      <path id="Path_30" data-name="Path 30" d="M678.8,170.936a.526.526,0,0,1,.248-.036A.329.329,0,0,1,678.8,170.936Z" transform="translate(-658.535 -123.472)" fill="#fff"/>
      <path id="Path_31" data-name="Path 31" d="M636.419,109.8a.451.451,0,0,1-.035.213C636.384,109.942,636.348,109.871,636.419,109.8Z" transform="translate(-631.173 -84.067)" fill="#fff"/>
      <path id="Path_32" data-name="Path 32" d="M636.384,103.3a.451.451,0,0,1,.035.213C636.348,103.442,636.384,103.371,636.384,103.3Z" transform="translate(-631.173 -79.875)" fill="#fff"/>
      <path id="Path_33" data-name="Path 33" d="M688.2,142.513a.451.451,0,0,1,.035-.213C688.236,142.407,688.271,142.478,688.2,142.513Z" transform="translate(-664.597 -105.027)" fill="#fff"/>
      <path id="Path_34" data-name="Path 34" d="M673.8,170.8a.45.45,0,0,1,.213.035C673.906,170.835,673.836,170.871,673.8,170.8Z" transform="translate(-655.31 -123.408)" fill="#fff"/>
      <path id="Path_35" data-name="Path 35" d="M677.687,77.607a1.54,1.54,0,0,1-.035.178v-.036h0a.3.3,0,0,1,0-.249v.036h0A.124.124,0,0,0,677.687,77.607Z" transform="translate(-657.777 -63.235)" fill="#fff"/>
      <path id="Path_36" data-name="Path 36" d="M684.036,89.049c0-.035-.036-.035-.036-.071a1.535,1.535,0,0,1,.036-.178A.212.212,0,0,1,684.036,89.049Z" transform="translate(-661.888 -70.523)" fill="#fff"/>
      <path id="Path_37" data-name="Path 37" d="M685.542,65.742h0l-.036.036c-.035-.071-.106-.107-.106-.178h0C685.471,65.6,685.507,65.671,685.542,65.742Z" transform="translate(-662.791 -55.561)" fill="#fff"/>
      <path id="Path_38" data-name="Path 38" d="M684.149,63.436a.3.3,0,0,1-.249,0,.035.035,0,0,0,.036-.036h.035C684.042,63.4,684.078,63.436,684.149,63.436Z" transform="translate(-661.824 -54.142)" fill="#fff"/>
      <path id="Path_39" data-name="Path 39" d="M685.142,65.242h0A.278.278,0,0,1,685,65.1c.107.035.142.071.142.142Z" transform="translate(-662.533 -55.238)" fill="#fff"/>
      <path id="Path_40" data-name="Path 40" d="M676.149,78.853h-.071c-.036,0-.071-.036-.177-.071C676.042,78.747,676.078,78.818,676.149,78.853Z" transform="translate(-656.664 -64.056)" fill="#fff"/>
      <path id="Path_41" data-name="Path 41" d="M676.613,131.7c.036.107-.036.142-.071.178a.777.777,0,0,1-.107.178c.036-.071.036-.142.107-.178h0l.036-.036h-.036c-.071.036-.071.142-.142.178.036-.071.106-.142.142-.213C676.578,131.771,676.613,131.736,676.613,131.7Z" transform="translate(-656.987 -98.191)" fill="#fff"/>
      <path id="Path_42" data-name="Path 42" d="M679.9,121.913a.741.741,0,0,1,.142-.213.53.53,0,0,1-.107.284.131.131,0,0,1,.035-.107A.124.124,0,0,0,679.9,121.913Z" transform="translate(-659.244 -91.741)" fill="#fff"/>
      <path id="Path_43" data-name="Path 43" d="M681.207,119.8c-.035.071-.071.107-.106.178A.164.164,0,0,1,681.207,119.8Z" transform="translate(-660.018 -90.516)" fill="#fff"/>
      <path id="Path_44" data-name="Path 44" d="M686.571,112.4l-.071.071C686.536,112.471,686.5,112.4,686.571,112.4Z" transform="translate(-663.501 -85.743)" fill="#fff"/>
      <path id="Path_45" data-name="Path 45" d="M676.971,94.378a.32.32,0,0,1-.035.178c.035-.071,0-.142.035-.178h0v-.036s.036-.035,0-.035v.071h0c-.035.035-.035.071-.071.071,0-.036.035-.071.035-.107a.269.269,0,0,1,.071-.142A.317.317,0,0,1,676.971,94.378Z" transform="translate(-657.309 -74.006)" fill="#fff"/>
      <path id="Path_46" data-name="Path 46" d="M643.471,81.958c-.036,0-.036.035-.071.035C643.4,81.922,643.436,81.922,643.471,81.958Z" transform="translate(-635.704 -66.095)" fill="#fff"/>
      <path id="Path_47" data-name="Path 47" d="M680.042,121.7a.53.53,0,0,1-.107.284l-.036-.036A.571.571,0,0,1,680.042,121.7Z" transform="translate(-659.244 -91.741)" fill="#fff"/>
      <path id="Path_48" data-name="Path 48" d="M676.578,132.052h0a.453.453,0,0,1-.142.213l-.035-.035c.071-.071.107-.142.178-.178Z" transform="translate(-656.987 -98.4)" fill="#fff"/>
      <path id="Path_49" data-name="Path 49" d="M676.971,94.652a.32.32,0,0,1-.036.178.124.124,0,0,0-.036-.071c0-.036.036-.071.036-.107Z" transform="translate(-657.309 -74.28)" fill="#fff"/>
      <path id="Path_50" data-name="Path 50" d="M686.571,112.207l-.071.071a.32.32,0,0,1,.036-.178A.13.13,0,0,1,686.571,112.207Z" transform="translate(-663.501 -85.55)" fill="#fff"/>
      <path id="Path_51" data-name="Path 51" d="M643.342,81.926c-.035,0-.035.035-.071.035a.124.124,0,0,1-.071-.035C643.236,81.855,643.307,81.89,643.342,81.926Z" transform="translate(-635.575 -66.063)" fill="#fff"/>
      <path id="Path_52" data-name="Path 52" d="M629.406,116.8h.071a.271.271,0,0,1-.177.071C629.336,116.836,629.371,116.8,629.406,116.8Z" transform="translate(-626.611 -88.581)" fill="#fff"/>
      <path id="Path_53" data-name="Path 53" d="M652.113,74.849c-.071-.071-.142-.178-.213-.249.142.036.178.107.249.213Z" transform="translate(-641.186 -61.365)" fill="#fff"/>
      <path id="Path_54" data-name="Path 54" d="M640.6,66.771a.185.185,0,0,1,.142-.071c-.035.071-.071.071-.107.107A.035.035,0,0,1,640.6,66.771Z" transform="translate(-633.898 -56.27)" fill="#fff"/>
      <path id="Path_55" data-name="Path 55" d="M681.207,119.8c-.035.071-.071.107-.106.178A.164.164,0,0,1,681.207,119.8Z" transform="translate(-660.018 -90.516)" fill="#fff"/>
      <path id="Path_56" data-name="Path 56" d="M676.9,131.878h0v-.071c.036-.036.036-.071.071-.107C676.971,131.771,676.936,131.807,676.9,131.878Z" transform="translate(-657.309 -98.191)" fill="#fff"/>
      <path id="Path_57" data-name="Path 57" d="M677.036,94.378h0c0-.036-.036-.036,0,0L677,94.342a.269.269,0,0,1,.071-.142A.32.32,0,0,1,677.036,94.378Z" transform="translate(-657.374 -74.006)" fill="#fff"/>
    </g>
    <g id="Group_2" data-name="Group 2" transform="translate(9.6 7.4)">
      <path id="Path_58" data-name="Path 58" d="M98.153,66.909h0c-.036-.107-.071-.213-.107-.355-.071-.213-.107-.426-.178-.639-1.562-5.717.284-8.2.284-8.2-1.669.568-1.811,3.977-1.846,5.077a10.053,10.053,0,0,0-2.237-2.343,4.967,4.967,0,0,0-.923-.568,6.174,6.174,0,0,0-.959-.5l-1.03-.355a3.721,3.721,0,0,0-1.03-.284,15.212,15.212,0,0,0-8.344.675,41.537,41.537,0,0,0-7.6,3.906c-2.45,1.491-4.829,3.018-7.279,4.3a18.332,18.332,0,0,1-7.7,2.237,16.4,16.4,0,0,1-7.776-1.527,19.858,19.858,0,0,1-6.533-5.077c-.284-.32-.533-.639-.817-.959A30.223,30.223,0,0,1,42.55,49.866a1.227,1.227,0,0,0,.675-.462,2.573,2.573,0,0,0,.426-1.633,1.421,1.421,0,0,0-1.065-1.349,1.187,1.187,0,0,0-1.278.5,2.316,2.316,0,0,0,.462,2.841,29.327,29.327,0,0,0,.959,10.723,37.077,37.077,0,0,1-5.646-13.1,35.794,35.794,0,0,1-.781-9.125c.036-.852.142-1.7.249-2.556.888-.462,1.7-.994,2.556-1.527,1.065-.71,2.13-1.42,3.125-2.2a25.272,25.272,0,0,0,2.912-2.627,11.321,11.321,0,0,0,1.314-1.562,3.837,3.837,0,0,0,.817-2.059v-.249h-.213a8.672,8.672,0,0,0-3.728,1.065,14.9,14.9,0,0,0-3.267,2.343,15.347,15.347,0,0,0-2.521,3.3l-.533.959a20.744,20.744,0,0,1,1.243-3.622A23.212,23.212,0,0,1,41.2,24.763c2.024-1.42,9.8-6.285,16.511-3.941a1.7,1.7,0,0,0,.994,1.953c.888.391,2.983.6,2.805-1.1a1.9,1.9,0,0,0-.391-.959,2.243,2.243,0,0,0-2.876-.6h0c-5.361-2.095-11.291.32-14.842,2.272a24.05,24.05,0,0,1,6.888-4.509,20.054,20.054,0,0,1,8.486-1.6,14.514,14.514,0,0,1,5.4,1.314,6.511,6.511,0,0,1,2.308,1.775,2.591,2.591,0,0,1,.746,1.562,2.784,2.784,0,0,1-.746,1.988c-.391.5-.852.923-1.243,1.42a3.871,3.871,0,0,0-.852,1.7,2.709,2.709,0,0,0,.426,1.882,2.105,2.105,0,0,0,1.527.852,2.206,2.206,0,0,0,1.385-.5,5.146,5.146,0,0,0,1.988-3.764,6.811,6.811,0,0,0-1.1-4.261,8.484,8.484,0,0,0-4.19-3.231,18.835,18.835,0,0,0-5.539-1.172c-.675-.036-1.314-.036-1.988-.036a22.936,22.936,0,0,0-4.367.533c.426-.32.817-.675,1.243-1.065a26.277,26.277,0,0,0,1.953-2.024,15.8,15.8,0,0,0,1.6-2.414,7.2,7.2,0,0,0,.923-2.912L58.28,7.4l-.355.284c-.71.6-1.385,1.207-2.059,1.882a18.013,18.013,0,0,0-1.953,2.059,11.691,11.691,0,0,0-1.456,2.521,11.378,11.378,0,0,0-.817,2.414,15.691,15.691,0,0,0-1.7.533,23.511,23.511,0,0,0-5.4,2.947,12.368,12.368,0,0,0,.675-8.912,1.153,1.153,0,0,0,.6-.817,1.948,1.948,0,0,0-.284-1.491c-.781-1.207-3.338-1.491-3.089.639a2.057,2.057,0,0,0,.746,1.314,2.188,2.188,0,0,0,1.314.462l-.071.036c1.633,4.58-.781,8.877-1.527,10.013-.107.107-.249.178-.355.284a22.657,22.657,0,0,0-2.556,2.663c.107-.426.178-.852.249-1.278a24.824,24.824,0,0,0,.284-2.841,15.653,15.653,0,0,0-.178-2.876,8.374,8.374,0,0,0-.852-2.77l-.178-.32v.213a7.862,7.862,0,0,0-1.207,2.734,11.059,11.059,0,0,0-.355,3.054,11.683,11.683,0,0,0,.568,2.983,9.447,9.447,0,0,0,.568,1.385c.107.213.249.426.355.639a.184.184,0,0,1,.071.142,28.9,28.9,0,0,0-2.13,3.515A21.2,21.2,0,0,0,35.8,32.539c-.284-3.373-1.03-7.563-3.018-10.368a1.215,1.215,0,0,0-.036-1.207,2.656,2.656,0,0,0-1.74-1.243,1.225,1.225,0,0,0-1.207.391c-.994,1.207.32,2.521,1.349,2.805a1.337,1.337,0,0,0,1.1-.142C34.7,26.325,35.129,32.4,35.165,35.7c-.036.249-.071.533-.107.781-.746-1.7-2.272-4.864-3.835-5.219A23.157,23.157,0,0,1,34.987,38.5a36.749,36.749,0,0,0,.746,9.267q.32,1.438.746,2.876c-.5-.71-.994-1.385-1.491-2.059a32.951,32.951,0,0,0-3.657-4.012A22.936,22.936,0,0,0,27,41.486a15.463,15.463,0,0,0-4.935-1.6h-.036a7.971,7.971,0,0,1-2.734-.391A8.341,8.341,0,0,1,17.98,39a6.743,6.743,0,0,1-1.207-.71L15.494,37.4l.817,1.42a12.3,12.3,0,0,0,1.1,1.669c.213.249.426.533.639.746a.035.035,0,0,1,.036.036A10.321,10.321,0,0,0,16.7,41.7a13.384,13.384,0,0,0-2.166,1.03,12.931,12.931,0,0,0-1.953,1.491,10.06,10.06,0,0,0-1.669,1.953l-.5.781.852-.107,1.811-.213c-.142.142-.284.249-.426.391A18.806,18.806,0,0,0,11.3,48.552a8.5,8.5,0,0,0-1.1,1.811,5.594,5.594,0,0,0-.568,2.166l-.036.746.568-.355c2.308-1.456,4.438-3.125,6.782-4.332a21.114,21.114,0,0,1,3.586-1.562,14.233,14.233,0,0,0-6.427,6.782,19.865,19.865,0,0,0-1.562,10.936,23.959,23.959,0,0,0,1.385,5.326,21.028,21.028,0,0,0,2.521,4.758,10.573,10.573,0,0,0,8.735,4.616c4.4-.142,9.587-3.409,9.48-9.125-.071-3.444-1.917-7.137-4.9-8.238a4.65,4.65,0,0,0-.959-.213,4.227,4.227,0,0,0-4.119,3.409c-.178.675-.107,1.562.426,1.882a1.161,1.161,0,0,0,1.207-.178,7.109,7.109,0,0,0,1.385-1.349,4.976,4.976,0,0,1,1.456-1.278c2.379-1.207,3.941,2.734,4.225,4.829a7.415,7.415,0,0,1-2.059,6.427,8.7,8.7,0,0,1-1.882,1.349,9.163,9.163,0,0,1-4.3,1.065,9.322,9.322,0,0,1-1.7-.213,4.442,4.442,0,0,0-.107-1.527,10.583,10.583,0,0,0-.781-2.095,12.056,12.056,0,0,0-2.485-3.551c-1.03-1.03-2.2-1.669-3.125-2.592a4.526,4.526,0,0,1-1.669-3.231h0l.249.178c.178.107.32.213.5.32a5.969,5.969,0,0,0,1.065.533,6.042,6.042,0,0,0,1.136.355,1.91,1.91,0,0,0,1.172-.107l.178-.107-.178-.142a8.926,8.926,0,0,1-1.74-2.485c-.462-.923-.852-1.882-1.243-2.876s-.675-1.988-.994-3.018c-.178-.639-.355-1.278-.5-1.917a7.726,7.726,0,0,1,.391-.959,12.844,12.844,0,0,1,6.427-6.675,10.957,10.957,0,0,1,4.367-.923,11.562,11.562,0,0,1,4.438.923,18.886,18.886,0,0,1,6.391,4.438,35.326,35.326,0,0,0,6.817,12.108,21.835,21.835,0,0,0,7.066,5.362,17.637,17.637,0,0,0,8.38,1.562,19.648,19.648,0,0,0,8.167-2.45,80.821,80.821,0,0,0,7.314-4.509,42.6,42.6,0,0,1,7.35-4.048,14.781,14.781,0,0,1,7.918-.888,4.5,4.5,0,0,1,.994.213l.959.284c.32.107.6.284.923.426a7.147,7.147,0,0,1,.888.5,9.488,9.488,0,0,1,2.912,3.125,13.643,13.643,0,0,1,1.562,4.261,18.735,18.735,0,0,1,.391,4.687A16.8,16.8,0,0,0,98.153,66.909ZM56.895,10.276a25.445,25.445,0,0,1-1.6,2.237c-.568.71-1.136,1.456-1.74,2.166-.462.568-.959,1.136-1.42,1.7a.13.13,0,0,0-.107.036c.071-.107.107-.213.178-.32.923-1.172,1.811-2.379,2.7-3.551.994-1.385,1.988-2.77,2.947-4.225A14.2,14.2,0,0,1,56.895,10.276Zm-3.764,4.083c.462-.817.959-1.6,1.456-2.414a14.838,14.838,0,0,1,1.6-2.308,8.459,8.459,0,0,1,1.633-1.385h0c-1.065,1.314-2.095,2.7-3.089,4.083-.781,1.1-1.6,2.237-2.343,3.338C52.634,15.282,52.883,14.821,53.131,14.359ZM39.816,17.306a23.769,23.769,0,0,1,.107,2.734c0,1.527-.071,3.089-.142,4.687a.637.637,0,0,0-.178.249,19.987,19.987,0,0,1-.178-2.095c-.036-.923-.036-1.882,0-2.805.036-1.385.107-2.734.178-4.119A9.633,9.633,0,0,1,39.816,17.306Zm-.533,7.03c-.142-.462-.249-.923-.391-1.42a26.611,26.611,0,0,1-.533-2.841,8.027,8.027,0,0,1-.036-2.912,4.49,4.49,0,0,1,1.065-2.13,4.128,4.128,0,0,1,.142.639c-.142,1.456-.249,2.912-.32,4.4,0,.959-.036,1.882.036,2.841a10.611,10.611,0,0,0,.284,2.13l-.036.036v-.036Zm-1.207,8.2a36.576,36.576,0,0,1,2.485-3.2c.213-.249.426-.5.675-.746.249-.213.462-.5.71-.71l.746-.639c.284-.178.533-.355.817-.533a5.969,5.969,0,0,1,3.16-.781,18.04,18.04,0,0,0-2.77,1.6,32.11,32.11,0,0,0-3.054,2.379,34.428,34.428,0,0,0-2.734,2.841c-.426.5-.852,1.03-1.243,1.562,0,.035-.036.035-.036.071C37.26,33.781,37.65,33.142,38.076,32.539Zm-1.349,2.2c.5-.639.994-1.243,1.527-1.846a33.611,33.611,0,0,1,2.734-2.77,32.1,32.1,0,0,1,2.983-2.45,27.888,27.888,0,0,1,2.77-1.74h.071a4.755,4.755,0,0,1-.781,1.349,12.117,12.117,0,0,1-1.314,1.385c-.923.888-1.917,1.669-2.912,2.485s-1.988,1.633-2.983,2.414c-.71.6-1.491,1.172-2.2,1.775C36.656,35.131,36.692,34.918,36.727,34.74ZM15,57.642a24.423,24.423,0,0,0,.852,3.16,11.865,11.865,0,0,0,3.267,5.113,2.266,2.266,0,0,1-.852.036A3.141,3.141,0,0,1,17.2,65.6c-.355-.142-.675-.355-1.03-.533l-.5-.32-.249-.178c-.071-.036-.391-.391-.391-.355l-.071.32a4.622,4.622,0,0,0,.284,2.308,6.036,6.036,0,0,0,1.243,1.846c.994,1.03,2.13,1.775,3.054,2.734a17.346,17.346,0,0,1,2.485,3.231,18.46,18.46,0,0,1,.923,1.882,4.143,4.143,0,0,1,.284,1.314A10,10,0,0,1,17.518,73.8a19.826,19.826,0,0,1-2.272-4.4A21.119,21.119,0,0,1,14,64.495a18.571,18.571,0,0,1,.71-8.273C14.819,56.683,14.89,57.18,15,57.642Zm15.871-10.51a12.624,12.624,0,0,0-4.687-1.278h-.036a17.348,17.348,0,0,0-1.917-.107,17.113,17.113,0,0,0-7.6,2.13c-2.166,1.1-4.154,2.592-6.178,3.87a7.64,7.64,0,0,1,1.385-2.663,14.931,14.931,0,0,1,2.7-2.7l1.207-.959-1.456.178-2.2.249a11.07,11.07,0,0,1,2.77-2.414,10.7,10.7,0,0,1,2.024-.994,11.542,11.542,0,0,1,2.166-.6l1.6-.355-1.6-.426a1.459,1.459,0,0,1-.6-.426c-.213-.213-.391-.426-.6-.675l-.213-.32c.036,0,.036.036.071.036a11.08,11.08,0,0,0,1.385.533,7.889,7.889,0,0,0,2.876.32,15.3,15.3,0,0,1,4.758,1.42,22.888,22.888,0,0,1,4.3,2.912,34.623,34.623,0,0,1,3.728,3.835c.6.746,1.207,1.491,1.775,2.272.107.32.178.639.284.923A18.774,18.774,0,0,0,30.868,47.132Z" transform="translate(-9.6 -7.4)" fill="#fff"/>
    </g>
    <g id="Group_11" data-name="Group 11" transform="translate(47.841 28.633)">
      <g id="Group_3" data-name="Group 3" transform="translate(28.263 2.734)">
        <path id="Path_59" data-name="Path 59" d="M196.936,106.647a3.455,3.455,0,0,1,.568-2.379,3.832,3.832,0,0,1,2.45-.568h7.7v1.42h-5.5a2.237,2.237,0,0,0-1.314.284,1.322,1.322,0,0,0-.32,1.03v4.083h5.859v1.6h-5.859v5.148a1.233,1.233,0,0,0,.32.994,2.825,2.825,0,0,0,1.562.284h5.433v1.42H199.35a2.527,2.527,0,0,1-1.917-.568,3.645,3.645,0,0,1-.533-2.343v-10.4Z" transform="translate(-196.9 -93.474)" fill="#fff"/>
        <path id="Path_60" data-name="Path 60" d="M237.944,119.991V105.22H234.5V103.8h10.474v1.42H241.53v14.771Z" transform="translate(-221.15 -93.539)" fill="#fff"/>
        <path id="Path_61" data-name="Path 61" d="M275.762,119.088H274.2V105.667a4.142,4.142,0,0,1,.568-2.485,2.109,2.109,0,0,1,1.775-.781,2.9,2.9,0,0,1,1.846.675,7,7,0,0,1,1.633,2.024l4.225,7.527c0,.035.036.035.071.071a.278.278,0,0,0,.355-.071.764.764,0,0,0,.071-.355v-9.409h1.562V117.7a3.029,3.029,0,0,1-.284,1.527,1.08,1.08,0,0,1-.923.391,1.148,1.148,0,0,1-.781-.249,2.056,2.056,0,0,1-.6-.781l-7.456-12.782a.775.775,0,0,0-.142-.178c-.036-.036-.071-.036-.142-.036a.3.3,0,0,0-.213.071.659.659,0,0,0-.071.355v13.066Z" transform="translate(-246.753 -92.636)" fill="#fff"/>
        <path id="Path_62" data-name="Path 62" d="M321.9,86.995a2.155,2.155,0,0,1,.6-1.491,2.1,2.1,0,0,1,2.947,0,2.034,2.034,0,0,1,.6,1.491,2.011,2.011,0,0,1-.6,1.456,1.88,1.88,0,0,1-1.456.6,2.034,2.034,0,0,1-1.491-.6A2.011,2.011,0,0,1,321.9,86.995Zm.284,4.616h3.586V107.8h-3.586Z" transform="translate(-277.517 -81.349)" fill="#fff"/>
        <path id="Path_63" data-name="Path 63" d="M350.786,101.352H347.2V74.9h3.586V93.363l6.64-8.2h2.024l-5.575,6.853,7.279,9.338h-4.509l-5.894-7.563v7.563Z" transform="translate(-293.834 -74.9)" fill="#fff"/>
        <path id="Path_64" data-name="Path 64" d="M389.554,114.082l-1.456,4.971h-1.6l3.977-14.167a3.5,3.5,0,0,1,1.065-1.846,2.688,2.688,0,0,1,1.811-.639,2.936,2.936,0,0,1,1.953.71,3.869,3.869,0,0,1,1.207,1.988l4.154,13.954H397.01l-1.491-4.971Zm.391-1.385H395.2l-1.917-6.853a1.787,1.787,0,0,0-.355-.746.588.588,0,0,0-.426-.178.491.491,0,0,0-.32.178,4.13,4.13,0,0,0-.32.746Z" transform="translate(-319.179 -92.636)" fill="#fff"/>
        <path id="Path_65" data-name="Path 65" d="M438.986,101.352H435.4V74.9h3.586V91.766h6.143v-6.64h3.586v16.191h-3.586V93.15h-6.143Z" transform="translate(-350.717 -74.9)" fill="#fff"/>
        <path id="Path_66" data-name="Path 66" d="M487.1,101.352V80.368c0-2.095.355-3.551,1.065-4.332S490.154,74.9,492,74.9h.462l1.811.035v1.491h-.959a3.52,3.52,0,0,0-2.13.533,2.97,2.97,0,0,0-.5,2.024v6.178h3.764v1.6h-3.764v14.593Zm9.693-20.807a2.155,2.155,0,0,1,.6-1.491,1.88,1.88,0,0,1,1.456-.6,2.155,2.155,0,0,1,1.491.6,2.044,2.044,0,0,1,.639,1.491A2.084,2.084,0,0,1,497.432,82,1.8,1.8,0,0,1,496.793,80.546Zm.284,4.616h3.586v16.191h-3.586Z" transform="translate(-384.06 -74.9)" fill="#fff"/>
        <path id="Path_67" data-name="Path 67" d="M538.936,106.647a3.455,3.455,0,0,1,.568-2.379,3.832,3.832,0,0,1,2.45-.568h7.7v1.42h-5.5a2.237,2.237,0,0,0-1.314.284,1.322,1.322,0,0,0-.319,1.03v4.083h5.859v1.6h-5.859v5.148a1.233,1.233,0,0,0,.319.994,2.825,2.825,0,0,0,1.562.284h5.432v1.42H541.35a2.528,2.528,0,0,1-1.917-.568,3.645,3.645,0,0,1-.533-2.343v-10.4Z" transform="translate(-417.467 -93.474)" fill="#fff"/>
        <path id="Path_68" data-name="Path 68" d="M587.807,85.161l.035-10.261h3.586v26.452h-5.646a9.153,9.153,0,0,1-6.533-2.272,8.718,8.718,0,0,1-.178-11.93,8.6,8.6,0,0,1,6.214-2.166c.284,0,.639,0,1.03.035S587.2,85.09,587.807,85.161Zm0,1.385c-.462-.071-.852-.107-1.172-.142a8.035,8.035,0,0,0-.888-.036,4.671,4.671,0,0,0-3.977,1.775,9.029,9.029,0,0,0-1.314,5.4c0,2.166.462,3.764,1.42,4.793a5.536,5.536,0,0,0,4.332,1.562h1.6Z" transform="translate(-441.91 -74.9)" fill="#fff"/>
      </g>
      <g id="Group_10" data-name="Group 10" transform="translate(0 0)">
        <path id="Path_69" data-name="Path 69" d="M140.983,101.566h2.13a11.7,11.7,0,0,1-.568,1.562,13.155,13.155,0,1,1,.639-8.735h-2.13a11.192,11.192,0,1,0-.781,8.77A15.707,15.707,0,0,0,140.983,101.566Z" transform="translate(-117.3 -78.486)" fill="#fff"/>
        <path id="Path_70" data-name="Path 70" d="M169.3,132.2a11.7,11.7,0,0,1-.568,1.562H157.9V132.2Z" transform="translate(-143.484 -109.121)" fill="#fff"/>
        <g id="Group_9" data-name="Group 9" transform="translate(7.811)">
          <g id="Group_4" data-name="Group 4">
            <path id="Path_71" data-name="Path 71" d="M144.413,75.4,139.3,69.685l2.059-2.485H147.5l2.059,2.485Zm-4.4-5.717,4.4,4.9,4.4-4.9-1.6-1.917h-5.646Z" transform="translate(-139.3 -67.2)" fill="#fff"/>
          </g>
          <g id="Group_5" data-name="Group 5" transform="translate(0.497 0.391)">
            <path id="Path_72" data-name="Path 72" d="M144.251,70.5H140.7l1.775-2.2Zm-3.16-.178h2.77l-1.385-1.7Z" transform="translate(-140.7 -68.3)" fill="#fff"/>
          </g>
          <g id="Group_6" data-name="Group 6" transform="translate(3.48 0.391)">
            <path id="Path_73" data-name="Path 73" d="M152.651,70.5H149.1l1.775-2.2Zm-3.16-.178h2.77l-1.385-1.7Z" transform="translate(-149.1 -68.3)" fill="#fff"/>
          </g>
          <g id="Group_7" data-name="Group 7" transform="translate(6.427 0.391)">
            <path id="Path_74" data-name="Path 74" d="M160.951,70.5H157.4l1.775-2.2Zm-3.16-.178h2.77l-1.385-1.7Z" transform="translate(-157.4 -68.3)" fill="#fff"/>
          </g>
          <g id="Group_8" data-name="Group 8" transform="translate(3.764 2.343)">
            <path id="Path_75" data-name="Path 75" d="M151.249,79.588l-1.349-5.61.178-.036,1.172,4.935,1.527-5.077.178.071Z" transform="translate(-149.9 -73.8)" fill="#fff"/>
          </g>
        </g>
      </g>
    </g>
  </g>
</svg>
