<svg xmlns="http://www.w3.org/2000/svg" xmlns:xlink="http://www.w3.org/1999/xlink" width="214.133" height="63.595" viewBox="0 0 214.133 63.595">
  <defs>
    <linearGradient id="linear-gradient" x1="0.125" y1="0.273" x2="1.092" y2="1.277" gradientUnits="objectBoundingBox">
      <stop offset="0" stop-color="#ebcd6e"/>
      <stop offset="0.556" stop-color="#9b6e29"/>
      <stop offset="1" stop-color="#834c1f"/>
    </linearGradient>
  </defs>
  <g id="Untitled-1" transform="translate(-22.1 -21.9)">
    <g id="Group_53" data-name="Group 53" transform="translate(214.095 31.305)">
      <path id="Path_76" data-name="Path 76" d="M682.907,72.33a2.167,2.167,0,0,0-.783-.814,1.237,1.237,0,0,0-1.6.157l-.251.251h0c.125-.063.157-.157.251-.251a1.255,1.255,0,0,1,.908-.376,1.4,1.4,0,0,1,1.1.6,4.956,4.956,0,0,1,1.1,3.132c0,.407,0,.814-.031,1.19-.031.439-.125.908-.188,1.347.031-.5.031-1,.031-1.5v-.094c0-.031,0-.094-.063-.094s-.063.031-.063.063-.031.063-.031.094a3.358,3.358,0,0,1-.721,1.41,2.878,2.878,0,0,1-.689.689.628.628,0,0,1-.94-.094.562.562,0,0,1-.157-.219,4.842,4.842,0,0,1-.658-1.848c-.094-.47-.094-.971-.157-1.472-.031-.063,0-.157-.031-.219h0a.031.031,0,0,0-.031-.031.869.869,0,0,0,.031.282,8.7,8.7,0,0,0,.219,1.785,5.177,5.177,0,0,0,.72,1.723.677.677,0,0,0,1.128.094,4.14,4.14,0,0,0,1.128-1.5,7.065,7.065,0,0,0,.251-.752,12.136,12.136,0,0,1,0,1.848.267.267,0,0,0,0,.219h0V78a1.357,1.357,0,0,1,.031-.157,12.062,12.062,0,0,0,.282-2.381A5.323,5.323,0,0,0,682.907,72.33Zm.5,5.513h0v-.031h0v.031Z" transform="translate(-665.843 -65.227)" fill="#fff"/>
      <path id="Path_77" data-name="Path 77" d="M687.246,73.244a.115.115,0,0,0-.031-.094c-.157-.439-.313-.877-.5-1.284a1.994,1.994,0,0,0-.313-.564,2.624,2.624,0,0,0-1.065-.783,3.2,3.2,0,0,0-.689-.282c-.063-.031-.125-.031-.157.031-.031.031,0,.094.031.125.219.282.376.6.6.846a2.659,2.659,0,0,0,1.1.846,1.979,1.979,0,0,1-1.128-.658,9.013,9.013,0,0,1-.689-.846,4.958,4.958,0,0,0-1.065-.908,1.413,1.413,0,0,0-2.13.689c.063-.031.063-.094.094-.157a1.325,1.325,0,0,1,1.378-.72,1.762,1.762,0,0,1,.908.439A7.863,7.863,0,0,1,684.9,71.3a1.916,1.916,0,0,0,1.316.814.265.265,0,0,0,.219,0c-.031,0-.094-.031-.125-.031a3.069,3.069,0,0,1-.689-.407,6.968,6.968,0,0,1-1.128-1.41c.031-.031.094,0,.125,0a7.761,7.761,0,0,1,1.159.533,2.435,2.435,0,0,1,.783.814c.251.564.439,1.128.658,1.692,0,.031.031.063,0,.094h0A.234.234,0,0,0,687.246,73.244Zm-.909-1.128h0Z" transform="translate(-666.736 -63.949)" fill="#fff"/>
      <path id="Path_78" data-name="Path 78" d="M697.5,103.4v0Z" transform="translate(-677.93 -87.276)" fill="#fff"/>
      <path id="Path_79" data-name="Path 79" d="M657.433,89.446a7.422,7.422,0,0,1-.345,3.414,4.051,4.051,0,0,1-.721,1.222,22.008,22.008,0,0,1-1.785,1.629,25.678,25.678,0,0,1-2.694,1.848c-1.253.783-2.537,1.6-3.79,2.381a22.476,22.476,0,0,0-2.475,1.785,11.469,11.469,0,0,0-2.788,3.352c-.407.689-.752,1.41-1.1,2.13a1.27,1.27,0,0,1-.157.282.252.252,0,0,1-.439-.031,2.968,2.968,0,0,1-.313-.533,6.52,6.52,0,0,1-.814-2.381,2.561,2.561,0,0,1-.031-.846.629.629,0,0,1,.125-.251,5.5,5.5,0,0,1,1.065-.846c.532-.345,1.065-.626,1.6-.908,1.378-.72,2.788-1.347,4.2-1.973a3.676,3.676,0,0,0,.345-.157c-1.222.439-2.412.877-3.6,1.378-1,.407-1.973.814-2.945,1.316a9.613,9.613,0,0,0-1.222.72.831.831,0,0,0-.345.564,8.932,8.932,0,0,0-.094.908,2.455,2.455,0,0,1-.125.814c-.031.063-.031.125-.125.157-.094,0-.125-.063-.157-.125a11.226,11.226,0,0,1-1.065-3.132,5.113,5.113,0,0,1,.063-2.067,3.559,3.559,0,0,1,1.034-1.66,5.815,5.815,0,0,1,1.817-1.034,49.529,49.529,0,0,1,5.2-1.535c1.316-.345,2.6-.783,3.916-1.222a14.815,14.815,0,0,0,3.665-1.817,6.58,6.58,0,0,0,2.913-4.479.736.736,0,0,1,.063-.251,13.162,13.162,0,0,1-.533,1.566,1.312,1.312,0,0,1-.282.439c-.157.125-.282.094-.344-.094a.734.734,0,0,1-.063-.345,17.238,17.238,0,0,0-.157-2.537,2.964,2.964,0,0,0-.219-.908,1.412,1.412,0,0,0-1.1-.908.921.921,0,0,0-.752.188,1.388,1.388,0,0,0-.47.376.992.992,0,0,1-.72.282.359.359,0,0,1-.376-.282.487.487,0,0,1,.282-.626c.063-.031.094-.031.157-.063-.063-.094-.157-.157-.219-.251a3.718,3.718,0,0,1-.783-2.036,5.741,5.741,0,0,1,.063-2.067V80.8h.031a9.813,9.813,0,0,0-.063,1.66,4.214,4.214,0,0,0,.814,2.412.377.377,0,0,0,.157.157l.157.157c-.063.031-.125.031-.188.063a.508.508,0,0,0-.345.626.317.317,0,0,0,.376.251,1.208,1.208,0,0,0,.689-.345,1.468,1.468,0,0,1,.908-.5,1.214,1.214,0,0,1,.752.157,1.815,1.815,0,0,1,.814,1.316,15.216,15.216,0,0,1,.219,2.913,1.283,1.283,0,0,0,.031.345c.063.157.157.188.282.063a1.388,1.388,0,0,0,.251-.345,16.488,16.488,0,0,0,.6-1.754h.031c.031,0,0,.031,0,.063a6.616,6.616,0,0,1-1.253,3.164,7.469,7.469,0,0,1-2.569,2.161A19.228,19.228,0,0,1,648.6,94.99c-1.754.564-3.54,1-5.325,1.5-1,.282-2,.6-3.007.971a4.663,4.663,0,0,0-1.6.971,3.48,3.48,0,0,0-1.1,2.882,9.676,9.676,0,0,0,1,3.6,3.265,3.265,0,0,1,.125.313c.031.031.031.094.063.094.063,0,.063-.063.094-.094a2.638,2.638,0,0,0,.125-.846,4.783,4.783,0,0,1,.094-.94.831.831,0,0,1,.345-.564,8.15,8.15,0,0,1,1.253-.72,55.091,55.091,0,0,1,5.795-2.412,10.585,10.585,0,0,1,1.065-.345c-.063.094-.125.094-.188.125-1.817.783-3.634,1.6-5.388,2.569a17.826,17.826,0,0,0-1.629,1.034.991.991,0,0,0-.439,1.034,6.9,6.9,0,0,0,1.034,3.007c.031.063.094.125.125.188.125.188.251.188.407.031.063-.094.125-.219.188-.313a23.688,23.688,0,0,1,1.911-3.352,13.72,13.72,0,0,1,3.571-3.289c1.472-1,3.007-1.942,4.542-2.882.877-.564,1.754-1.1,2.569-1.723.533-.407,1-.846,1.5-1.253a4.256,4.256,0,0,0,1.441-2.537,7.769,7.769,0,0,0-.439-4.7,3.537,3.537,0,0,0-1.66-1.848c-.376-.188-.752-.439-1.128-.626a.433.433,0,0,1-.125-.094h0a14.937,14.937,0,0,1,1.942,1.128,2.7,2.7,0,0,1,.752.94A5.415,5.415,0,0,1,657.433,89.446Z" transform="translate(-636.767 -71.755)" fill="#fff"/>
      <path id="Path_80" data-name="Path 80" d="M693.972,83.71a1.576,1.576,0,0,1-.063.376.574.574,0,0,1-.564.407.867.867,0,0,1-.407-.094,2.418,2.418,0,0,0-1.692,0,.463.463,0,0,1-.407,0c-.282-.125-.6-.219-.877-.376-.031,0-.031-.031-.063-.031h.031c.345.125.658.251,1,.407a.265.265,0,0,0,.219,0,2.429,2.429,0,0,1,1.817-.063l.282.094a.514.514,0,0,0,.658-.439,2.409,2.409,0,0,0-.094-1.159,13.414,13.414,0,0,0-1-2.851c-.031-.063-.094-.094-.094-.157a.245.245,0,0,1-.125-.125c.094.031.125.063.125.125h0a.313.313,0,0,1,.125.157c.125.157.219.345.345.5h0a.083.083,0,0,1-.094-.094,2.615,2.615,0,0,1-.251-.376h0v-.031c-.031-.031-.063-.094-.094-.125.031.031.063.094.094.125v.031a.031.031,0,0,0,.031.031,5.347,5.347,0,0,1,.533,1.222,16.216,16.216,0,0,1,.532,1.754A5.57,5.57,0,0,0,693.972,83.71Z" transform="translate(-672.711 -71)" fill="#fff"/>
      <path id="Path_81" data-name="Path 81" d="M652.4,81.138a.163.163,0,0,0-.063.125h.031v.031C652.434,81.263,652.434,81.2,652.4,81.138Zm0,0a.163.163,0,0,0-.063.125h.031v.031C652.434,81.263,652.434,81.2,652.4,81.138Zm0,0a.163.163,0,0,0-.063.125h.031v.031C652.434,81.263,652.434,81.2,652.4,81.138Zm4.479-4.636h0c-.031-.094,0-.157-.031-.219s-.031-.157-.063-.219c-.251-1.065-.564-2.13-.908-3.164a11.075,11.075,0,0,0-1.034-2.224,1.21,1.21,0,0,0-.47-.5,4.835,4.835,0,0,0-1.316-.533,1.045,1.045,0,0,1-.689-.345,1.841,1.841,0,0,0-1.41-.72,1.426,1.426,0,0,0-.94.188,1.545,1.545,0,0,0-.6.814c-.031.063-.094.125-.031.219.063-.031.063-.094.094-.157a1.325,1.325,0,0,1,1.378-.72,1.763,1.763,0,0,1,.908.439,7.861,7.861,0,0,1,1.316,1.378,1.916,1.916,0,0,0,1.316.814c.031,0,.063.031.063,0h0v-.031a3.07,3.07,0,0,1-.689-.407,6.968,6.968,0,0,1-1.128-1.41c.031-.031.094,0,.125,0a7.762,7.762,0,0,1,1.159.533,2.436,2.436,0,0,1,.783.814c.251.564.439,1.128.658,1.692,0,.031.031.063,0,.094h0c-.125-.157-.219-.345-.345-.5H655s-.031,0,0,.031a13.411,13.411,0,0,1,1,2.851,2.441,2.441,0,0,1,.094,1.159.525.525,0,0,1-.658.439l-.282-.094a2.434,2.434,0,0,0-1.817.063.268.268,0,0,1-.219,0c-.345-.125-.658-.251-1-.407h-.031c.031.031.094.063.125.094.376.219.752.439,1.128.626A3.426,3.426,0,0,1,655,78.945a7.814,7.814,0,0,1,.439,4.7A4.522,4.522,0,0,1,654,86.181c-.5.439-1,.846-1.5,1.253a28.258,28.258,0,0,1-2.569,1.723c-1.5.94-3.038,1.879-4.542,2.882a13.719,13.719,0,0,0-3.571,3.289A22.064,22.064,0,0,0,639.9,98.68a1.042,1.042,0,0,1-.188.313c-.125.188-.282.157-.407-.031-.031-.063-.094-.125-.125-.188a6.762,6.762,0,0,1-1.034-3.007,1.08,1.08,0,0,1,.439-1.034,14.366,14.366,0,0,1,1.629-1.034A56.57,56.57,0,0,1,645.6,91.13c.063-.031.125-.031.188-.125a10.6,10.6,0,0,0-1.065.345,55.1,55.1,0,0,0-5.795,2.412,9.973,9.973,0,0,0-1.253.72.768.768,0,0,0-.345.564,4.778,4.778,0,0,0-.094.94,2.636,2.636,0,0,1-.125.846.1.1,0,0,1-.094.094c-.031,0-.063-.063-.063-.094a.939.939,0,0,1-.125-.313,9.515,9.515,0,0,1-1-3.6,3.444,3.444,0,0,1,1.1-2.882,4.662,4.662,0,0,1,1.6-.971,30.649,30.649,0,0,1,3.007-.971c1.786-.5,3.571-.94,5.325-1.5a19.229,19.229,0,0,0,3.884-1.629,8.1,8.1,0,0,0,2.569-2.161,7.312,7.312,0,0,0,1.253-3.164c0-.031.031-.063,0-.063h-.031c-.157.6-.376,1.159-.6,1.754a.889.889,0,0,1-.251.345c-.125.125-.219.094-.282-.063a1.175,1.175,0,0,1-.031-.345,22.371,22.371,0,0,0-.219-2.913,1.792,1.792,0,0,0-.814-1.316.907.907,0,0,0-.752-.157,1.537,1.537,0,0,0-.908.5,1.208,1.208,0,0,1-.689.345.317.317,0,0,1-.376-.251.484.484,0,0,1,.345-.626c.063-.031.125-.031.188-.063l-.157-.157-.157-.157a3.932,3.932,0,0,1-.814-2.412,9.7,9.7,0,0,1,.063-1.66h-.063c-.094.345-.157.72-.219,1.065-.031.063,0,.125,0,.188v.783c.031.063,0,.125.031.188.031.094,0,.219.031.313a2.674,2.674,0,0,0,.47,1.159.968.968,0,0,1,.219.439c.031.063.031.094-.063.125-.157.031-.219.157-.282.282a3.077,3.077,0,0,0-.219,1.065c-.031.063,0,.157-.031.219v.031a.516.516,0,0,1-.345.658c-.031,0-.063.063-.094.063a12.136,12.136,0,0,0-1.034.72.223.223,0,0,0-.188.094c-.157.188-.376.313-.533.5-.031.031-.063.063-.094.031l-.031-.031c-.031-.031-.031-.063-.063-.063-.345-.439-.689-.846-1.034-1.284-.063-.063-.094-.157-.188-.125-.125.031-.188-.031-.219-.157-.031-.063-.063-.157-.094-.219a3.552,3.552,0,0,1-.063-1.284c0-.157-.031-.219-.188-.157a.853.853,0,0,0-.376.188,1.131,1.131,0,0,0-.251.47.313.313,0,0,1-.157-.125c-.313-.219-.6-.5-.908-.689a2.612,2.612,0,0,1-.908-.94c-.031-.031-.031-.094-.094-.063a.163.163,0,0,0-.063.125.965.965,0,0,0,.094.407,2.368,2.368,0,0,0,.72.94,2.032,2.032,0,0,1,.251.282,7.876,7.876,0,0,0-.909-.376,4.4,4.4,0,0,1-1.065-.407.138.138,0,0,0-.157-.031.234.234,0,0,0-.031.157,1.736,1.736,0,0,0,.6,1.065,3.483,3.483,0,0,0,1.065.564,1.832,1.832,0,0,1-.407-.063c-.094-.031-.219-.063-.313-.094s-.125.031-.094.125a.421.421,0,0,0,.188.219,2.066,2.066,0,0,0,.846.376.65.65,0,0,1,.313.188,3.156,3.156,0,0,0,.532.6c.219.157.219.157.125.407-.063.219-.031.282.157.376.282.125.6.251.877.376a.434.434,0,0,1,.251.219,7.934,7.934,0,0,0,.376.72,13.4,13.4,0,0,0,3.007,3.634c.031.031.094.063.094.094,0,.063-.063.063-.125.063-.376.125-.783.219-1.19.313q-2.3.517-4.6.94c-.877.157-1.723.313-2.569.5h-.031a2.6,2.6,0,0,0-.658.188c-.564.157-1.1.282-1.629.439h0c-.031.031-.063,0-.094,0h0a.031.031,0,0,0-.031.031h0c-.031,0-.031,0-.063.031h-.031a2.673,2.673,0,0,0-.783.407,2.757,2.757,0,0,1-.313.188c-.031,0-.031,0-.063.031a3.325,3.325,0,0,0-.345.282c-.125.157-.313.282-.439.47a1.443,1.443,0,0,0-.282.533,3.112,3.112,0,0,0-.251,1.065,3.542,3.542,0,0,0,0,.814,7.873,7.873,0,0,0,.125.846l.282,1.034a10.5,10.5,0,0,0,.6,1.66,8.22,8.22,0,0,0,.94,1.6c.219.313.439.6.658.908,0,.031.031.063.063.031,0,0,0-.063.031-.063-.031-.094,0-.188-.031-.282a8.808,8.808,0,0,1,0-.908c.031-.125,0-.219.031-.345v-.125c0-.063,0-.125.063-.125s.094.063.125.125.063.157.094.219a8.139,8.139,0,0,0,.814,2.036,9.691,9.691,0,0,0,1.128,1.66c.031.031.063.125.125.094.031-.031.031-.094.063-.125a10.6,10.6,0,0,1,.783-2.381.55.55,0,0,1,.125-.157,1.045,1.045,0,0,1,1.159-.063,3.331,3.331,0,0,1,1.222,1.159c.282.407.5.877.783,1.284a13.7,13.7,0,0,0,1.41,1.848,9.582,9.582,0,0,0,1.441,1.316,11.1,11.1,0,0,0,2.287,1.316,7.093,7.093,0,0,0,2.13.533c.063.031.094,0,.157.031h.157c.063.031.157,0,.219,0h.376a.891.891,0,0,0,.407,0h.47c.157-.031.282-.031.376-.219a23.292,23.292,0,0,0,2.036-6.265c.094-.564.157-1.128.282-1.692.031-.063,0-.094,0-.157v-.125c.031-.063,0-.125.031-.188v-.157c.031-.063,0-.094,0-.157v-.188c.031-.063,0-.125,0-.188v-.188c.031-.094,0-.157.031-.251v-.219a.852.852,0,0,0,0-.282v-.282c.031-.157,0-.282.031-.439h0v-.533a11.549,11.549,0,0,0,0-1.472V91.6a1.51,1.51,0,0,1,0-.376V90.88a.852.852,0,0,1,0-.282v-.219c-.031-.094,0-.157-.031-.251v-.063c.063-.094,0-.157,0-.251v-.063h0a1.064,1.064,0,0,0-.031-.313v-.031h0v-.282h0v-.063h0v-.125h0c-.031-.188-.031-.345-.063-.533-.031-.125,0-.251-.094-.345a3.525,3.525,0,0,1-.094-.564c.063-.157-.031-.313-.031-.5-.031-.063,0-.125-.031-.157h0a.031.031,0,0,0-.031-.031,1.59,1.59,0,0,1-.094-.533c0-.063,0-.125.063-.157a2.254,2.254,0,0,0,.721-1.785V84.3a.85.85,0,0,1,0-.282v-.282c-.031-.094,0-.188-.031-.282v-.282c-.031-.094,0-.188-.031-.282v-.251a.852.852,0,0,1,0-.282v-.282c-.031-.094,0-.188-.031-.282v-.251a1.05,1.05,0,0,1,0-.313v-.219h0c-.031-.094,0-.157-.031-.251v-.157c-.031-.063,0-.125-.031-.188V80.1c-.094-.407-.157-.814-.219-1.222a2.185,2.185,0,0,0-1.128-1.535c-.188-.094-.376-.188-.6-.282.031-.031.063-.031.094-.063a1.717,1.717,0,0,1,1.19.125c.313.094.564.345.877.407a.487.487,0,0,0,.5-.125c.157-.125.157-.313.219-.5.031-.063,0-.125.031-.188V76.69l-.282-.188Zm-9.147,3.7c.533-.439,1.065-.908,1.629-1.347.094-.094.219-.188.345-.125.157.063.125.219.125.345a2.209,2.209,0,0,1-.188.783c-.188.533-.407,1.065-.626,1.629-.031.094-.094.125-.219.125a1.052,1.052,0,0,1-.783-.439,2.016,2.016,0,0,1-.345-.846A.163.163,0,0,1,647.735,80.2Zm-2.913-3.038a6.177,6.177,0,0,0,.063,1.316,3.357,3.357,0,0,1-.439-.5A.636.636,0,0,1,644.822,77.16Zm-.783,2.6a3.271,3.271,0,0,1-.752-.72.305.305,0,0,0-.282-.125,1.164,1.164,0,0,1-.752-.219,1.926,1.926,0,0,0,1.034-.094,3.068,3.068,0,0,1-1.817-1.19c.376.125.752.282,1.128.376-.251-.125-.5-.282-.752-.407.031,0,.031-.031.063-.031a5,5,0,0,1,1.6.626h.063c-.313-.407-.627-.783-.908-1.19.063-.031.063.031.094.031.407.313.846.658,1.253.971a5.928,5.928,0,0,1,1,1.159c.031.063.031.094-.031.125a2.867,2.867,0,0,0-.783.72A.138.138,0,0,1,644.039,79.76Zm.783.814c-.031-.063-.031-.125-.125-.157.031.094.063.188.094.313-.188-.094-.376-.157-.564-.251-.063-.031-.063-.094-.063-.157a.757.757,0,0,1,.313-.6,1.253,1.253,0,0,1,.564-.313.7.7,0,0,1,.783.313,11.652,11.652,0,0,0,1.284,1.5,5.292,5.292,0,0,0,1.284,1.065c.063.031.063.063.031.125a1.275,1.275,0,0,1-.533.376c-.063.031-.125.031-.157.063a1.449,1.449,0,0,0,1-.407,5.746,5.746,0,0,0,1.034-1.535,16.99,16.99,0,0,0,.689-1.754,4.332,4.332,0,0,1,.564-1.065,1.022,1.022,0,0,1,.814-.439.655.655,0,0,1,.658.345,1.777,1.777,0,0,1,.251.814,10.275,10.275,0,0,1,.063,2.193,9.388,9.388,0,0,1-.5,2.255,1.819,1.819,0,0,1-.689.908l-.564.376a.655.655,0,0,1,.125-.188,8.8,8.8,0,0,0,1.19-2.725c0-.063.031-.094.031-.157a.235.235,0,0,0,.031-.157.235.235,0,0,0,.031-.157.163.163,0,0,0-.063.125c0,.031-.031.063-.031.094a12.245,12.245,0,0,1-.814,1.848,8.5,8.5,0,0,1-1.378,1.785c-.063.063-.157.125-.219.188-.439.282-.564.282-1-.031A14.157,14.157,0,0,1,644.822,80.574ZM655.6,91.663a28.03,28.03,0,0,1-2.036,9.992,19.282,19.282,0,0,1-1.065,2.13.362.362,0,0,1-.219.157,6.393,6.393,0,0,1-5.388-1.159,10.53,10.53,0,0,1-3.007-3.32c-.251-.407-.407-.846-.658-1.222a3.836,3.836,0,0,0-.94-1.065,1.365,1.365,0,0,0-.908-.282.043.043,0,0,1,0-.063,22.522,22.522,0,0,1,2.506-3.2,9.408,9.408,0,0,1,1.66-1.284,30.977,30.977,0,0,1,3.07-1.879c1.19-.626,2.412-1.253,3.634-1.879a24.813,24.813,0,0,0,2.224-1.472c.063-.063.157-.188.251-.125a.34.34,0,0,1,.125.282,6.922,6.922,0,0,1-.345,2.255,31.553,31.553,0,0,1-2.287,5.764c-.5.971-1.065,1.911-1.6,2.851-.689,1.253-1.5,2.443-2.318,3.634a.523.523,0,0,1-.627.188,2.892,2.892,0,0,1-.783-.47,9.326,9.326,0,0,1-1.378-1.566c-.063-.094-.188-.251-.125-.345.094-.125.251,0,.376.063a8.624,8.624,0,0,1,.908.533c.031.031.063.063.094.063a.379.379,0,0,0,.564-.125c.783-1.128,1.566-2.224,2.412-3.32.846-1.128,1.66-2.224,2.381-3.414.031-.063.063-.094.094-.157a.685.685,0,0,1,.094-.157.184.184,0,0,0,.063-.157c-.031.031-.031.063-.063.094-.031.063-.094.125-.125.188-.689.94-1.41,1.879-2.161,2.757-.6.689-1.222,1.41-1.848,2.067a8.611,8.611,0,0,1-.814.689.621.621,0,0,1-1-.282A2.667,2.667,0,0,1,646.2,97.3c0-.063.063-.094.094-.125a27.158,27.158,0,0,0,2.537-1.66,14.129,14.129,0,0,0,1.222-1.159,23.3,23.3,0,0,0,2.725-3.32c.188-.313.407-.658.6-1a.308.308,0,0,0,.094-.251.656.656,0,0,0-.125.188,24.6,24.6,0,0,1-3.132,3.634,12.956,12.956,0,0,1-2.381,1.754,23.846,23.846,0,0,1-2.161,1.19c-.094.031-.125.094-.125.219a5.987,5.987,0,0,0,.783,2.318,1.679,1.679,0,0,1,.157.345c.031.094-.031.157-.125.125-.063-.031-.157-.063-.219-.094-.251-.157-.47-.345-.72-.5a.685.685,0,0,0-.157-.094c-.251-.125-.407-.031-.376.251a1.788,1.788,0,0,0,.282,1,7.751,7.751,0,0,0,1.879,2.036c.376.282.752.6,1.1.877.094.094.157.063.251,0a4.423,4.423,0,0,0,.783-.908,28.835,28.835,0,0,0,2.161-3.665,33.672,33.672,0,0,0,1.879-4.041c.564-1.378,1.034-2.788,1.472-4.2a18.723,18.723,0,0,0,.564-2.631c.031-.219.063-.439.094-.689l.063-.063A41.111,41.111,0,0,1,655.6,91.663Zm-1.848-2.506a.172.172,0,0,0-.094.157C653.718,89.251,653.718,89.188,653.749,89.157ZM652.4,81.138a.163.163,0,0,0-.063.125h.031v.031C652.434,81.263,652.434,81.2,652.4,81.138Zm0,0a.163.163,0,0,0-.063.125h.031v.031C652.434,81.263,652.434,81.2,652.4,81.138Z" transform="translate(-635.025 -63.353)" fill="#ed197a"/>
      <path id="Path_82" data-name="Path 82" d="M654.073,57.806c-.031,0-.031,0-.031.031v.031c-.031.251-.031.251-.282.313-.188.031-.251.125-.282.313-.031.282-.031.313-.345.376-.094.031-.125.063-.094.157.031.063.031.157-.031.188a.4.4,0,0,0-.157.345v.282a.544.544,0,0,1-.345.47.526.526,0,0,1-.6-.125c-.125-.125-.251-.219-.345-.313a.245.245,0,0,0-.345-.031,1.391,1.391,0,0,0-.533.6,3.581,3.581,0,0,0-.219,1c0,.188,0,.188-.157.063a11.044,11.044,0,0,0-2.349-1.19.3.3,0,0,1-.219-.313,2.439,2.439,0,0,1,.125-.658.424.424,0,0,1,.282-.282,2.36,2.36,0,0,0,1.378-1.128c.094-.125.063-.157-.063-.219a.585.585,0,0,1-.345-.376,1.287,1.287,0,0,1,0-.689.748.748,0,0,1,.219-.407.353.353,0,0,1,.6.157.4.4,0,0,1,.031.188c.031.157.063.157.188.094a1.228,1.228,0,0,0,.313-.251,1.252,1.252,0,0,0,.439-.689c.031-.125,0-.157-.125-.157h-.313a2.139,2.139,0,0,0,.846-.626.684.684,0,0,1,.658-.313.867.867,0,0,1,.407.094,3.772,3.772,0,0,1,.752.47,1.043,1.043,0,0,0,.313.188c.157.031.157.125.157.282a3.18,3.18,0,0,0,.125,1.535.855.855,0,0,0,.219.407h0c.031,0,.031,0,.031-.031a2.813,2.813,0,0,1-.219-.846c-.031-.063,0-.125-.031-.188v-.094a1.521,1.521,0,0,1,0-.533V55.9a4.723,4.723,0,0,1,.407-1.441.282.282,0,0,0,.031-.157,3.124,3.124,0,0,0-.971-1.472,4.181,4.181,0,0,0-2.224-.877,2.539,2.539,0,0,0-.689,0c-.157.031-.313.031-.47.063a3.485,3.485,0,0,0-1.629.72,3.1,3.1,0,0,0-1.065,2,1.035,1.035,0,0,0,0,.439,4.145,4.145,0,0,0,.251,1.034c.094.251.157.47.251.689a3.305,3.305,0,0,1,.188.752v.031c.031.063,0,.094.031.157v.094c-.031.094,0,.157-.031.251v.031c0,.063-.031.094-.031.157a5.591,5.591,0,0,1-.533,1.692c-.031.063-.063.125-.157.094-.125-.031-.282-.031-.407-.063a4.611,4.611,0,0,0-.658,0,4.317,4.317,0,0,1,.094.626c.031.063,0,.125.031.188V61.1c.031.063,0,.125.031.188v.188a.346.346,0,0,1,0,.251,5.638,5.638,0,0,0-1.1.752,4.958,4.958,0,0,0-.908,1.065.977.977,0,0,0-.282.658v.031c.031.063,0,.157.031.219v.188c.031.063,0,.125,0,.188v.157c.031.063,0,.094.031.157.031.345.094.72.157,1.065a12.165,12.165,0,0,0,.282,1.472,19.679,19.679,0,0,0,.533,1.942c.125.376.251.783.407,1.159a9.332,9.332,0,0,1,.439,1.848v.031c.031.063,0,.094.031.157V73c.031.094,0,.157.031.251a5.7,5.7,0,0,1,0,1.034c-.031.063,0,.157-.031.219v.188c-.031.063,0,.094-.031.157v.031a5.772,5.772,0,0,1-.125.72,7.849,7.849,0,0,1-.219.814,5.006,5.006,0,0,0,.658-.157.031.031,0,0,1,.031-.031.115.115,0,0,1,.031-.094c.063-.407.063-.814.094-1.222v-.533a1.521,1.521,0,0,0,0-.533,5.135,5.135,0,0,1-.063-.689c0-.188.063-.219.219-.094.063.031.094.094.157.125.157.157.313.345.47.533.407.439.814.877,1.222,1.284.063.063.125.125.188.063s-.031-.125-.063-.188A22.959,22.959,0,0,1,646.68,72.4a10.48,10.48,0,0,1-1.159-2.475,29.921,29.921,0,0,1-1.034-4.7,2.1,2.1,0,0,1,.251-1.441,2.219,2.219,0,0,1,.313-.439,11.276,11.276,0,0,1,1.817-1.848c.063-.063.157-.094.188-.188v-.031c0-.031,0-.031-.031-.031h0c-.125,0-.219.094-.344.125-.094.031-.125.031-.125-.063a1.285,1.285,0,0,1-.031-.345c0-.188.063-.251.251-.282a1.558,1.558,0,0,1,.658.031,5.636,5.636,0,0,1,2.318.971,12.009,12.009,0,0,1,1.378,1.128,5.219,5.219,0,0,1,.72.72.354.354,0,0,1,.063.345,1.834,1.834,0,0,1-.313.533c-.094.094-.157.094-.219,0a3.546,3.546,0,0,0-.313-.407.435.435,0,0,0-.251-.219h0a.031.031,0,0,0-.031.031v.031c0,.094.094.157.125.251a10.137,10.137,0,0,1,.877,1.472c.219.5.376,1.034.564,1.535a12.692,12.692,0,0,1,.376,1.566c0,.094.031.157.031.251,0,.031.031.063.031.094.063,0,.094-.063.125-.094.219-.188.439-.407.658-.6-.031,0-.031-.031-.031-.094v-.814c-.031-.094,0-.219-.031-.313v-.188c-.031-.063,0-.125-.031-.188,0-.063-.031-.125-.031-.219a4.912,4.912,0,0,0-.407-1.472.483.483,0,0,0-.407-.282,5.2,5.2,0,0,1-.689-.094c.157-.313.376-.6.5-.908a.14.14,0,0,0,0-.157,1.111,1.111,0,0,0-.125-.282,10.764,10.764,0,0,0-.846-.846c-.282-.251-.564-.47-.846-.689a.894.894,0,0,1,0-.407,2.069,2.069,0,0,1,.031-.439,1.468,1.468,0,0,1,.439-.908.268.268,0,0,1,.407,0,2.806,2.806,0,0,0,.6.47.531.531,0,0,0,.313,0,.637.637,0,0,0,.6-.564.531.531,0,0,0,0-.313c-.031-.125-.031-.219.125-.282a.166.166,0,0,0,.094-.251c-.063-.125,0-.094.063-.125.219-.031.282-.125.313-.345a.266.266,0,0,1,0-.219c.031-.125.125-.125.251-.125C654.167,58.245,654.323,58.057,654.073,57.806Zm-2.067,7.173a.643.643,0,0,1,.908.533,15.2,15.2,0,0,1,.313,1.723,3.994,3.994,0,0,1,0,1.222c-.094-.313-.157-.626-.251-.94a9.389,9.389,0,0,0-.846-2l-.188-.282C651.849,65.1,651.88,65.011,652.005,64.979Z" transform="translate(-641.112 -51.925)" fill="#374045"/>
      <path id="Path_83" data-name="Path 83" d="M681.929,72.33a2.168,2.168,0,0,0-.783-.814,1.237,1.237,0,0,0-1.6.157l-.251.251h-.031c-.031.031-.063.094-.094.125l-.188.282a5.269,5.269,0,0,0-.47,1.065c-.063.188-.063.345.094.407a1,1,0,0,0,.282.094v.345a.866.866,0,0,0,.031.282,8.7,8.7,0,0,0,.219,1.785,5.175,5.175,0,0,0,.72,1.723.677.677,0,0,0,1.128.094,4.139,4.139,0,0,0,1.128-1.5,7.038,7.038,0,0,0,.251-.752,12.129,12.129,0,0,1,0,1.848c0,.031-.031.063,0,.094h.031a12.057,12.057,0,0,0,.282-2.381A5.034,5.034,0,0,0,681.929,72.33Zm.376,2.976a3.683,3.683,0,0,1-.752,1.879,3.325,3.325,0,0,1-.626.533.67.67,0,0,1-1.034-.282,4.85,4.85,0,0,1-.658-2.882c0-.219.031-.439.031-.658a.274.274,0,0,1,.219-.282,2.483,2.483,0,0,1,.532-.063,3.339,3.339,0,0,1,1.879.72A1.025,1.025,0,0,1,682.3,75.306Zm-3.383-2a3.574,3.574,0,0,1,.814-1.472.778.778,0,0,1,1.065-.094.844.844,0,0,1,.251.219,5.258,5.258,0,0,1,1.065,1.973,3.474,3.474,0,0,0-1.535-.626A4.923,4.923,0,0,0,678.922,73.3Z" transform="translate(-664.865 -65.227)" fill="#ed197a"/>
      <path id="Path_84" data-name="Path 84" d="M702.1,145.572V144.1a.188.188,0,0,1,.031.125v1.222A.188.188,0,0,1,702.1,145.572Z" transform="translate(-681.089 -115.227)" fill="#fbfafa"/>
      <path id="Path_85" data-name="Path 85" d="M702,150.939a1.927,1.927,0,0,1,.031-.439A1.077,1.077,0,0,1,702,150.939Z" transform="translate(-681.021 -119.622)" fill="#fbfafa"/>
      <path id="Path_86" data-name="Path 86" d="M690,185.5h.407A.463.463,0,0,1,690,185.5Z" transform="translate(-672.779 -143.659)" fill="#fbfafa"/>
      <path id="Path_87" data-name="Path 87" d="M702.031,141.507A1.787,1.787,0,0,1,702,141.1.9.9,0,0,1,702.031,141.507Z" transform="translate(-681.021 -113.167)" fill="#fbfafa"/>
      <path id="Path_88" data-name="Path 88" d="M675.982,70.031l.031-.031a1.362,1.362,0,0,1,.125.219l-.031.031C676.013,70.188,675.951,70.125,675.982,70.031Z" transform="translate(-663.147 -64.338)" fill="#676d70"/>
      <path id="Path_89" data-name="Path 89" d="M643.283,158.045a.652.652,0,0,1,.031-.345C643.283,157.825,643.346,157.951,643.283,158.045Z" transform="translate(-640.691 -124.567)" fill="#fbfafa"/>
      <path id="Path_90" data-name="Path 90" d="M701.931,139.413a1.066,1.066,0,0,1-.031-.313C701.963,139.194,701.931,139.288,701.931,139.413Z" transform="translate(-680.952 -111.793)" fill="#fbfafa"/>
      <path id="Path_91" data-name="Path 91" d="M701.9,153.013a1.066,1.066,0,0,1,.031-.313A.542.542,0,0,1,701.9,153.013Z" transform="translate(-680.952 -121.133)" fill="#fbfafa"/>
      <path id="Path_92" data-name="Path 92" d="M649.883,118.9a.866.866,0,0,1,.031.282C649.852,119.088,649.883,118.994,649.883,118.9Z" transform="translate(-645.223 -97.921)" fill="#fbfafa"/>
      <path id="Path_93" data-name="Path 93" d="M679.731,80.4c.063,0,.031.063.031.094s-.031.031-.031.063H679.7A1.357,1.357,0,0,1,679.731,80.4Z" transform="translate(-665.706 -71.48)" fill="#c52f3d"/>
      <path id="Path_94" data-name="Path 94" d="M643.331,161.982a.869.869,0,0,1-.031-.282C643.363,161.794,643.3,161.888,643.331,161.982Z" transform="translate(-640.708 -127.314)" fill="#fbfafa"/>
      <path id="Path_95" data-name="Path 95" d="M704.831,93.451a.69.69,0,0,1-.031-.251C704.863,93.263,704.8,93.357,704.831,93.451Z" transform="translate(-682.943 -80.271)" fill="#fbfafa"/>
      <path id="Path_96" data-name="Path 96" d="M679.614,98.6a.691.691,0,0,1-.031.251C679.583,98.757,679.552,98.694,679.614,98.6Z" transform="translate(-665.62 -83.979)" fill="#fbfafa"/>
      <path id="Path_97" data-name="Path 97" d="M649.914,123.1a.689.689,0,0,1-.031.251C649.883,123.257,649.852,123.163,649.914,123.1Z" transform="translate(-645.223 -100.805)" fill="#fbfafa"/>
      <path id="Path_98" data-name="Path 98" d="M701.831,137.851a.69.69,0,0,1-.031-.251C701.863,137.663,701.831,137.757,701.831,137.851Z" transform="translate(-680.883 -110.763)" fill="#fbfafa"/>
      <path id="Path_99" data-name="Path 99" d="M701.8,154.651a.69.69,0,0,1,.031-.251C701.831,154.494,701.863,154.557,701.8,154.651Z" transform="translate(-680.883 -122.3)" fill="#fbfafa"/>
      <path id="Path_100" data-name="Path 100" d="M688.1,185.4a.69.69,0,0,1,.251.031C688.257,185.431,688.194,185.463,688.1,185.4Z" transform="translate(-671.475 -143.59)" fill="#fbfafa"/>
      <path id="Path_101" data-name="Path 101" d="M704.8,94.919a.534.534,0,0,1,.031-.219A.465.465,0,0,1,704.8,94.919Z" transform="translate(-682.944 -81.301)" fill="#fbfafa"/>
      <path id="Path_102" data-name="Path 102" d="M700.521,127v.188c-.063-.031-.031-.125,0-.188Z" transform="translate(-679.98 -103.483)" fill="#aa6a70"/>
      <path id="Path_103" data-name="Path 103" d="M701.7,155.919a.533.533,0,0,1,.031-.219C701.731,155.763,701.763,155.857,701.7,155.919Z" transform="translate(-680.815 -123.193)" fill="#fbfafa"/>
      <path id="Path_104" data-name="Path 104" d="M681.031,72.857,681,72.825c0-.063,0-.094.063-.125A.283.283,0,0,0,681.031,72.857Z" transform="translate(-666.599 -66.192)" fill="#d4636e"/>
      <path id="Path_105" data-name="Path 105" d="M692.1,185.431a.465.465,0,0,1,.219-.031C692.257,185.463,692.194,185.431,692.1,185.431Z" transform="translate(-674.222 -143.59)" fill="#fbfafa"/>
      <path id="Path_106" data-name="Path 106" d="M649.814,124.3a.4.4,0,0,1-.031.188C649.783,124.425,649.752,124.363,649.814,124.3Z" transform="translate(-645.155 -101.629)" fill="#fbfafa"/>
      <path id="Path_107" data-name="Path 107" d="M649.783,117.8a.4.4,0,0,1,.031.188C649.752,117.925,649.783,117.863,649.783,117.8Z" transform="translate(-645.155 -97.165)" fill="#fbfafa"/>
      <path id="Path_108" data-name="Path 108" d="M701.6,156.988a.4.4,0,0,1,.031-.188C701.631,156.894,701.631,156.957,701.6,156.988Z" transform="translate(-680.746 -123.949)" fill="#fbfafa"/>
      <path id="Path_109" data-name="Path 109" d="M687.2,185.3a.4.4,0,0,1,.188.031C687.294,185.331,687.231,185.363,687.2,185.3Z" transform="translate(-670.857 -143.521)" fill="#fbfafa"/>
      <path id="Path_110" data-name="Path 110" d="M691.08,92.094a1.357,1.357,0,0,1-.031.157v-.031h0a.268.268,0,0,1,0-.219v.031h0C691.049,92.063,691.049,92.094,691.08,92.094Z" transform="translate(-673.483 -79.447)" fill="#da7881"/>
      <path id="Path_111" data-name="Path 111" d="M697.431,103.519c0-.031-.031-.031-.031-.063a1.358,1.358,0,0,1,.031-.157A.187.187,0,0,1,697.431,103.519Z" transform="translate(-677.862 -87.207)" fill="#db7f87"/>
      <path id="Path_112" data-name="Path 112" d="M698.925,80.225h0l-.031.031c-.031-.063-.094-.094-.094-.157h0C698.863,80.1,698.894,80.163,698.925,80.225Z" transform="translate(-678.823 -71.274)" fill="#c73b47"/>
      <path id="Path_113" data-name="Path 113" d="M697.419,77.931a.267.267,0,0,1-.219,0,.031.031,0,0,0,.031-.031h.031A.34.34,0,0,0,697.419,77.931Z" transform="translate(-677.724 -69.764)" fill="#c73a46"/>
      <path id="Path_114" data-name="Path 114" d="M698.525,79.725h0a.244.244,0,0,1-.125-.125c.063.031.125.063.125.125Z" transform="translate(-678.548 -70.931)" fill="#dc838b"/>
      <path id="Path_115" data-name="Path 115" d="M689.519,93.344h-.063c-.031,0-.063-.031-.157-.063C689.394,93.25,689.457,93.313,689.519,93.344Z" transform="translate(-672.299 -80.321)" fill="#cb4b54"/>
      <path id="Path_116" data-name="Path 116" d="M689.988,146.2c.031.094-.031.125-.063.157a.68.68,0,0,1-.094.157c.031-.063.031-.125.094-.157h0l.031-.031h-.031c-.063.031-.063.125-.125.157.031-.063.094-.125.125-.188C689.957,146.263,689.957,146.231,689.988,146.2Z" transform="translate(-672.642 -116.669)" fill="#fff"/>
      <path id="Path_117" data-name="Path 117" d="M693.2,136.388a.657.657,0,0,1,.125-.188.466.466,0,0,1-.094.251.115.115,0,0,1,.031-.094A.11.11,0,0,1,693.2,136.388Z" transform="translate(-674.977 -109.801)" fill="#fff"/>
      <path id="Path_118" data-name="Path 118" d="M694.594,134.3c-.031.063-.063.094-.094.157A.172.172,0,0,1,694.594,134.3Z" transform="translate(-675.87 -108.497)" fill="#fff"/>
      <path id="Path_119" data-name="Path 119" d="M699.952,126.9l-.063.063S699.858,126.9,699.952,126.9Z" transform="translate(-679.567 -103.415)" fill="#fff"/>
      <path id="Path_120" data-name="Path 120" d="M690.363,108.857a.283.283,0,0,1-.031.157.283.283,0,0,1,.031-.157h0v-.031s.031-.031,0-.031v.031c-.031,0-.031,0,0,.031h0c-.031.031-.031.063-.063.063,0-.031.031-.063.031-.094a.238.238,0,0,1,.063-.125A.235.235,0,0,1,690.363,108.857Z" transform="translate(-672.986 -90.916)" fill="#fff"/>
      <path id="Path_121" data-name="Path 121" d="M656.844,96.455c-.031,0-.031.031-.063.031C656.75,96.424,656.813,96.424,656.844,96.455Z" transform="translate(-649.961 -82.492)" fill="#fff"/>
      <path id="Path_122" data-name="Path 122" d="M693.425,136.2a.466.466,0,0,1-.094.251l-.031-.031A.317.317,0,0,1,693.425,136.2Z" transform="translate(-675.046 -109.801)" fill="#c73c46"/>
      <path id="Path_123" data-name="Path 123" d="M689.957,146.548h0a.4.4,0,0,1-.125.188l-.031-.031c.063-.063.094-.125.157-.157Z" transform="translate(-672.642 -116.892)" fill="#ca464f"/>
      <path id="Path_124" data-name="Path 124" d="M690.363,109.148a.283.283,0,0,1-.031.157.109.109,0,0,0-.031-.063c0-.031.031-.063.031-.094Z" transform="translate(-672.986 -91.207)" fill="#c63742"/>
      <path id="Path_125" data-name="Path 125" d="M699.963,126.694l-.063.063a.283.283,0,0,1,.031-.157A.115.115,0,0,1,699.963,126.694Z" transform="translate(-679.578 -103.209)" fill="#ebbabf"/>
      <path id="Path_126" data-name="Path 126" d="M656.725,96.421c-.031,0-.031.031-.063.031a.11.11,0,0,1-.063-.031C656.631,96.358,656.663,96.389,656.725,96.421Z" transform="translate(-649.842 -82.458)" fill="#e59ea4"/>
      <path id="Path_127" data-name="Path 127" d="M642.794,131.3h.063a.239.239,0,0,1-.157.063C642.731,131.331,642.763,131.3,642.794,131.3Z" transform="translate(-640.296 -106.436)" fill="#dbb0b3"/>
      <path id="Path_128" data-name="Path 128" d="M665.488,89.319c-.063-.063-.125-.157-.188-.219.125.031.157.094.219.188A.031.031,0,0,0,665.488,89.319Z" transform="translate(-655.817 -77.455)" fill="#545b60"/>
      <path id="Path_129" data-name="Path 129" d="M653.9,81.263a.163.163,0,0,1,.125-.063c-.031.063-.063.063-.094.094Z" transform="translate(-647.988 -72.03)" fill="#72787b"/>
      <path id="Path_130" data-name="Path 130" d="M694.594,134.3c-.031.063-.063.094-.094.157A.172.172,0,0,1,694.594,134.3Z" transform="translate(-675.87 -108.497)" fill="#f0cbcf"/>
      <path id="Path_131" data-name="Path 131" d="M690.248,146.357h0v-.063c.031-.031.031-.063.063-.094C690.311,146.263,690.248,146.294,690.248,146.357Z" transform="translate(-672.934 -116.669)" fill="#d05f66"/>
      <path id="Path_132" data-name="Path 132" d="M690.431,108.857h0c-.031,0-.031-.031,0,0l-.031-.031a.238.238,0,0,1,.063-.125A.235.235,0,0,1,690.431,108.857Z" transform="translate(-673.054 -90.916)" fill="#df8992"/>
    </g>
    <g id="Group_54" data-name="Group 54" transform="translate(22.1 21.9)">
      <path id="Path_133" data-name="Path 133" d="M100.5,74.4h0c-.031-.094-.063-.188-.094-.313-.063-.188-.094-.376-.157-.564-1.378-5.043.251-7.236.251-7.236-1.472.5-1.6,3.508-1.629,4.479A8.869,8.869,0,0,0,96.9,68.7a4.382,4.382,0,0,0-.814-.5,5.447,5.447,0,0,0-.846-.439l-.908-.313a3.283,3.283,0,0,0-.908-.251,13.42,13.42,0,0,0-7.361.6,36.644,36.644,0,0,0-6.7,3.446c-2.161,1.316-4.26,2.663-6.421,3.79A16.173,16.173,0,0,1,66.142,77a14.47,14.47,0,0,1-6.86-1.347,17.519,17.519,0,0,1-5.764-4.479c-.251-.282-.47-.564-.72-.846a26.663,26.663,0,0,1-1.347-10.964,1.082,1.082,0,0,0,.6-.407,2.27,2.27,0,0,0,.376-1.441,1.254,1.254,0,0,0-.94-1.19,1.047,1.047,0,0,0-1.128.439,2.043,2.043,0,0,0,.407,2.506,25.873,25.873,0,0,0,.846,9.46,32.154,32.154,0,0,1-4.981-11.559,31.578,31.578,0,0,1-.689-8.05c.031-.752.125-1.5.219-2.255.783-.407,1.5-.877,2.255-1.347.94-.626,1.879-1.253,2.757-1.942a22.3,22.3,0,0,0,2.569-2.318A9.988,9.988,0,0,0,54.9,39.88a3.385,3.385,0,0,0,.72-1.817v-.219h-.188a7.651,7.651,0,0,0-3.289.94,13.147,13.147,0,0,0-2.882,2.067,13.539,13.539,0,0,0-2.224,2.913l-.47.846a18.3,18.3,0,0,1,1.1-3.2,20.478,20.478,0,0,1,2.6-4.2c1.785-1.253,8.646-5.544,14.566-3.477a1.5,1.5,0,0,0,.877,1.723c.783.345,2.631.533,2.475-.971a1.68,1.68,0,0,0-.345-.846,1.978,1.978,0,0,0-2.537-.533h0c-4.73-1.848-9.961.282-13.094,2a21.218,21.218,0,0,1,6.077-3.978,17.692,17.692,0,0,1,7.487-1.41,12.8,12.8,0,0,1,4.761,1.159,5.744,5.744,0,0,1,2.036,1.566,2.286,2.286,0,0,1,.658,1.378,2.456,2.456,0,0,1-.658,1.754c-.345.439-.752.814-1.1,1.253a3.415,3.415,0,0,0-.752,1.5,2.389,2.389,0,0,0,.376,1.66,1.857,1.857,0,0,0,1.347.752,1.946,1.946,0,0,0,1.222-.439A4.54,4.54,0,0,0,75.414,37a6.008,6.008,0,0,0-.971-3.759,7.485,7.485,0,0,0-3.7-2.851,16.616,16.616,0,0,0-4.887-1.034c-.6-.031-1.159-.031-1.754-.031a20.234,20.234,0,0,0-3.853.47c.376-.282.72-.6,1.1-.94a23.182,23.182,0,0,0,1.723-1.785,13.939,13.939,0,0,0,1.41-2.13A6.352,6.352,0,0,0,65.3,22.37l.031-.47-.313.251c-.626.533-1.222,1.065-1.817,1.66a15.891,15.891,0,0,0-1.723,1.817,10.313,10.313,0,0,0-1.284,2.224,10.037,10.037,0,0,0-.72,2.13,13.844,13.844,0,0,0-1.5.47,20.742,20.742,0,0,0-4.761,2.6,10.911,10.911,0,0,0,.6-7.862,1.018,1.018,0,0,0,.533-.72,1.718,1.718,0,0,0-.251-1.316c-.689-1.065-2.944-1.316-2.725.564a1.815,1.815,0,0,0,.658,1.159,1.93,1.93,0,0,0,1.159.407l-.063.031c1.441,4.041-.689,7.831-1.347,8.833-.094.094-.219.157-.313.251A19.989,19.989,0,0,0,49.2,36.748c.094-.376.157-.752.219-1.128a21.9,21.9,0,0,0,.251-2.506,13.808,13.808,0,0,0-.157-2.537,7.388,7.388,0,0,0-.752-2.443l-.157-.282-.188.219a6.936,6.936,0,0,0-1.065,2.412,9.756,9.756,0,0,0-.313,2.694,10.307,10.307,0,0,0,.5,2.631,8.333,8.333,0,0,0,.5,1.222c.094.188.219.376.313.564a.163.163,0,0,1,.063.125,25.5,25.5,0,0,0-1.879,3.1,18.707,18.707,0,0,0-1.222,3.289c-.251-2.976-.908-6.672-2.663-9.147a1.072,1.072,0,0,0-.031-1.065,2.344,2.344,0,0,0-1.535-1.1,1.081,1.081,0,0,0-1.065.345c-.877,1.065.282,2.224,1.19,2.475a1.18,1.18,0,0,0,.971-.125c2.161,3.132,2.537,8.489,2.569,11.4-.031.219-.063.47-.094.689-.658-1.5-2-4.291-3.383-4.6a22.731,22.731,0,0,1,3.226,6.39,32.421,32.421,0,0,0,.658,8.176q.282,1.269.658,2.537c-.439-.626-.877-1.222-1.316-1.817a29.07,29.07,0,0,0-3.226-3.54A20.234,20.234,0,0,0,37.449,52a13.642,13.642,0,0,0-4.354-1.41h-.031a7.033,7.033,0,0,1-2.412-.345,7.359,7.359,0,0,1-1.159-.439,5.949,5.949,0,0,1-1.065-.626L27.3,48.4l.72,1.253a10.851,10.851,0,0,0,.971,1.472c.188.219.376.47.564.658a.031.031,0,0,1,.031.031,9.1,9.1,0,0,0-1.222.376,11.808,11.808,0,0,0-1.911.908,11.408,11.408,0,0,0-1.723,1.316,8.875,8.875,0,0,0-1.472,1.723l-.439.689.752-.094,1.6-.188c-.125.125-.251.219-.376.345a16.591,16.591,0,0,0-1.19,1.347,7.5,7.5,0,0,0-.971,1.6,4.935,4.935,0,0,0-.5,1.911L22.1,62.4l.5-.313c2.036-1.284,3.916-2.757,5.983-3.822a18.627,18.627,0,0,1,3.164-1.378,12.556,12.556,0,0,0-5.67,5.983A17.525,17.525,0,0,0,24.7,72.52a21.137,21.137,0,0,0,1.222,4.7,18.551,18.551,0,0,0,2.224,4.2,9.328,9.328,0,0,0,7.706,4.072c3.884-.125,8.458-3.007,8.364-8.05-.063-3.038-1.692-6.3-4.323-7.267a4.1,4.1,0,0,0-.846-.188,3.729,3.729,0,0,0-3.634,3.007c-.157.6-.094,1.378.376,1.66a1.024,1.024,0,0,0,1.065-.157,6.272,6.272,0,0,0,1.222-1.19,4.39,4.39,0,0,1,1.284-1.128c2.1-1.065,3.477,2.412,3.728,4.26a6.542,6.542,0,0,1-1.817,5.67,7.675,7.675,0,0,1-1.66,1.19,8.084,8.084,0,0,1-3.79.94,8.225,8.225,0,0,1-1.5-.188,3.919,3.919,0,0,0-.094-1.347,9.336,9.336,0,0,0-.689-1.848,10.635,10.635,0,0,0-2.193-3.132c-.908-.908-1.942-1.472-2.757-2.287a3.993,3.993,0,0,1-1.472-2.851h0l.219.157c.157.094.282.188.439.282a5.267,5.267,0,0,0,.94.47,5.33,5.33,0,0,0,1,.313,1.685,1.685,0,0,0,1.034-.094l.157-.094-.157-.125A7.875,7.875,0,0,1,29.211,71.3c-.407-.814-.752-1.66-1.1-2.537s-.6-1.754-.877-2.663c-.157-.564-.313-1.128-.439-1.692a6.816,6.816,0,0,1,.345-.846,11.331,11.331,0,0,1,5.67-5.889,9.666,9.666,0,0,1,3.853-.814,10.2,10.2,0,0,1,3.916.814,16.661,16.661,0,0,1,5.638,3.916A31.165,31.165,0,0,0,52.234,72.27,19.263,19.263,0,0,0,58.467,77a15.559,15.559,0,0,0,7.393,1.378,17.334,17.334,0,0,0,7.2-2.161,71.3,71.3,0,0,0,6.453-3.978A37.584,37.584,0,0,1,86,68.667a13.04,13.04,0,0,1,6.985-.783,3.966,3.966,0,0,1,.877.188l.846.251c.282.094.533.251.814.376a6.306,6.306,0,0,1,.783.439,8.371,8.371,0,0,1,2.569,2.757,12.036,12.036,0,0,1,1.378,3.759,16.528,16.528,0,0,1,.345,4.135A10.477,10.477,0,0,0,100.5,74.4ZM64.075,24.437a22.446,22.446,0,0,1-1.41,1.973c-.5.626-1,1.284-1.535,1.911-.407.5-.846,1-1.253,1.5a.115.115,0,0,0-.094.031c.063-.094.094-.188.157-.282.814-1.034,1.6-2.1,2.381-3.132.877-1.222,1.754-2.443,2.6-3.728A7.332,7.332,0,0,1,64.075,24.437Zm-3.289,3.6c.407-.72.846-1.41,1.284-2.13a13.092,13.092,0,0,1,1.41-2.036,7.463,7.463,0,0,1,1.441-1.222h0c-.94,1.159-1.848,2.381-2.725,3.6-.689.971-1.41,1.973-2.067,2.944C60.347,28.854,60.566,28.447,60.786,28.04Zm-11.747,2.6a20.969,20.969,0,0,1,.094,2.412c0,1.347-.063,2.725-.125,4.135a.562.562,0,0,0-.157.219,17.633,17.633,0,0,1-.157-1.848c-.031-.814-.031-1.66,0-2.475.031-1.222.094-2.412.157-3.634A8.5,8.5,0,0,1,49.039,30.639Zm-.47,6.2c-.125-.407-.219-.814-.345-1.253a23.478,23.478,0,0,1-.47-2.506,7.081,7.081,0,0,1-.031-2.569,3.961,3.961,0,0,1,.94-1.879,3.642,3.642,0,0,1,.125.564c-.125,1.284-.219,2.569-.282,3.884,0,.846-.031,1.66.031,2.506a9.362,9.362,0,0,0,.251,1.879l-.031.031v-.031ZM47.5,44.078A32.266,32.266,0,0,1,49.7,41.258c.188-.219.376-.439.6-.658.219-.188.407-.439.626-.626l.658-.564c.251-.157.47-.313.72-.47a5.266,5.266,0,0,1,2.788-.689,15.915,15.915,0,0,0-2.443,1.41,28.328,28.328,0,0,0-2.694,2.1,30.372,30.372,0,0,0-2.412,2.506c-.376.439-.752.908-1.1,1.378,0,.031-.031.031-.031.063C46.784,45.174,47.128,44.61,47.5,44.078Zm-1.19,1.942c.439-.564.877-1.1,1.347-1.629a29.652,29.652,0,0,1,2.412-2.443A28.322,28.322,0,0,1,52.7,39.786a24.6,24.6,0,0,1,2.443-1.535h.063a4.2,4.2,0,0,1-.689,1.19,10.69,10.69,0,0,1-1.159,1.222c-.814.783-1.692,1.472-2.569,2.193s-1.754,1.441-2.631,2.13c-.626.533-1.316,1.034-1.942,1.566C46.251,46.364,46.282,46.208,46.314,46.02ZM27.143,66.255a21.546,21.546,0,0,0,.752,2.788,10.468,10.468,0,0,0,2.882,4.511,2,2,0,0,1-.752.031,2.771,2.771,0,0,1-.94-.313c-.313-.125-.6-.313-.908-.47l-.439-.282-.219-.157c-.063-.031-.345-.345-.345-.313l-.063.282a4.078,4.078,0,0,0,.251,2.036A5.325,5.325,0,0,0,28.459,76c.877.908,1.879,1.566,2.694,2.412a15.3,15.3,0,0,1,2.193,2.851,16.286,16.286,0,0,1,.814,1.66,3.655,3.655,0,0,1,.251,1.159,8.818,8.818,0,0,1-5.043-3.571,17.491,17.491,0,0,1-2-3.884,18.632,18.632,0,0,1-1.1-4.323,16.383,16.383,0,0,1,.626-7.3C26.987,65.378,27.049,65.817,27.143,66.255Zm14-9.3a11.137,11.137,0,0,0-4.135-1.128h-.031a15.307,15.307,0,0,0-1.692-.094,15.1,15.1,0,0,0-6.7,1.879c-1.911.971-3.665,2.287-5.45,3.414a6.74,6.74,0,0,1,1.222-2.349,13.173,13.173,0,0,1,2.381-2.381l1.065-.846-1.284.157-1.942.219a9.766,9.766,0,0,1,2.443-2.13,9.443,9.443,0,0,1,1.785-.877,10.182,10.182,0,0,1,1.911-.533l1.41-.313-1.41-.376a1.287,1.287,0,0,1-.533-.376c-.188-.188-.345-.376-.533-.6l-.188-.282c.031,0,.031.031.063.031a9.775,9.775,0,0,0,1.222.47,6.96,6.96,0,0,0,2.537.282,13.5,13.5,0,0,1,4.2,1.253,20.192,20.192,0,0,1,3.79,2.569A30.545,30.545,0,0,1,44.56,58.33c.533.658,1.065,1.316,1.566,2,.094.282.157.564.251.814A16.563,16.563,0,0,0,41.145,56.952Z" transform="translate(-22.1 -21.9)" fill="url(#linear-gradient)"/>
    </g>
    <g id="Group_63" data-name="Group 63" transform="translate(56.087 40.632)">
      <g id="Group_55" data-name="Group 55" transform="translate(24.966 2.412)">
        <path id="Path_134" data-name="Path 134" d="M210.331,120.8a3.048,3.048,0,0,1,.5-2.1,3.38,3.38,0,0,1,2.161-.5h6.8v1.253h-4.855a1.973,1.973,0,0,0-1.159.251,1.166,1.166,0,0,0-.282.908v3.6h5.169v1.41H213.5v4.542a1.088,1.088,0,0,0,.282.877,2.492,2.492,0,0,0,1.378.251h4.793v1.253h-7.487a2.23,2.23,0,0,1-1.691-.5,3.215,3.215,0,0,1-.47-2.067V120.8Z" transform="translate(-210.3 -109.179)"/>
        <path id="Path_135" data-name="Path 135" d="M250.938,132.584V119.553H247.9V118.3h9.241v1.253H254.1v13.031Z" transform="translate(-236.122 -109.247)"/>
        <path id="Path_136" data-name="Path 136" d="M288.978,131.622H287.6V119.782a3.654,3.654,0,0,1,.5-2.193,1.861,1.861,0,0,1,1.566-.689,2.554,2.554,0,0,1,1.629.6,6.173,6.173,0,0,1,1.441,1.785l3.728,6.641c0,.031.031.031.063.063a.245.245,0,0,0,.313-.063.674.674,0,0,0,.063-.313v-8.3h1.378V130.4a2.672,2.672,0,0,1-.251,1.347.953.953,0,0,1-.814.345,1.012,1.012,0,0,1-.689-.219,1.814,1.814,0,0,1-.533-.689l-6.578-11.277a.683.683,0,0,0-.125-.157c-.031-.031-.063-.031-.125-.031a.265.265,0,0,0-.188.063.581.581,0,0,0-.063.313v11.527Z" transform="translate(-263.386 -108.286)" fill="#ed197a"/>
        <path id="Path_137" data-name="Path 137" d="M335.3,101.248a1.9,1.9,0,0,1,.533-1.316,1.853,1.853,0,0,1,2.6,0,1.794,1.794,0,0,1,.533,1.316,1.774,1.774,0,0,1-.533,1.284,1.659,1.659,0,0,1-1.284.533,1.794,1.794,0,0,1-1.316-.533A1.774,1.774,0,0,1,335.3,101.248Zm.251,4.072h3.164V119.6h-3.164Z" transform="translate(-296.145 -96.268)" fill="#ed197a"/>
        <path id="Path_138" data-name="Path 138" d="M363.664,112.737H360.5V89.4h3.164v16.289l5.858-7.236h1.785L366.42,104.5l6.422,8.238h-3.978l-5.2-6.672Z" transform="translate(-313.451 -89.4)" fill="#ed197a"/>
        <path id="Path_139" data-name="Path 139" d="M402.663,127.206l-1.284,4.385H400l3.508-12.5a3.087,3.087,0,0,1,.94-1.629,2.371,2.371,0,0,1,1.6-.564,2.59,2.59,0,0,1,1.723.626,3.413,3.413,0,0,1,1.065,1.754l3.665,12.31h-3.226l-1.316-4.385Zm.313-1.222h4.636l-1.692-6.046a1.576,1.576,0,0,0-.313-.658.519.519,0,0,0-.376-.157.433.433,0,0,0-.282.157,3.642,3.642,0,0,0-.282.658Z" transform="translate(-340.578 -108.286)" fill="#ed197a"/>
        <path id="Path_140" data-name="Path 140" d="M451.964,112.737H448.8V89.4h3.164v14.879h5.419V98.421h3.164v14.284h-3.164v-7.2h-5.419Z" transform="translate(-374.091 -89.4)" fill="#ed197a"/>
        <path id="Path_141" data-name="Path 141" d="M500.5,112.737V94.224c0-1.848.313-3.132.94-3.822s1.754-1,3.383-1h.407l1.6.031v1.316h-.846a3.106,3.106,0,0,0-1.879.47A2.62,2.62,0,0,0,503.664,93v5.45h3.32v1.41h-3.32v12.874Zm8.552-18.356a1.9,1.9,0,0,1,.532-1.316,1.659,1.659,0,0,1,1.284-.533,1.9,1.9,0,0,1,1.316.533,1.8,1.8,0,0,1,.564,1.316,1.839,1.839,0,0,1-3.132,1.284A1.586,1.586,0,0,1,509.052,94.381Zm.251,4.072h3.164v14.284H509.3Z" transform="translate(-409.597 -89.4)"/>
        <path id="Path_142" data-name="Path 142" d="M552.331,120.8a3.048,3.048,0,0,1,.5-2.1,3.38,3.38,0,0,1,2.161-.5h6.8v1.253h-4.855a1.973,1.973,0,0,0-1.159.251,1.166,1.166,0,0,0-.282.908v3.6h5.169v1.41H555.5v4.542a1.088,1.088,0,0,0,.282.877,2.492,2.492,0,0,0,1.378.251h4.793v1.253h-7.487a2.23,2.23,0,0,1-1.691-.5,3.215,3.215,0,0,1-.47-2.067V120.8Z" transform="translate(-445.171 -109.179)"/>
        <path id="Path_143" data-name="Path 143" d="M599.91,98.453l.031-9.053h3.164v23.337h-4.981a8.075,8.075,0,0,1-5.764-2,7.692,7.692,0,0,1-.157-10.525,7.591,7.591,0,0,1,5.482-1.911c.251,0,.564,0,.908.031S599.378,98.39,599.91,98.453Zm0,1.222c-.407-.063-.752-.094-1.034-.125a7.088,7.088,0,0,0-.783-.031,4.121,4.121,0,0,0-3.508,1.566,7.967,7.967,0,0,0-1.159,4.761,6.041,6.041,0,0,0,1.253,4.229,4.885,4.885,0,0,0,3.822,1.378h1.41Z" transform="translate(-471.199 -89.4)"/>
      </g>
      <g id="Group_62" data-name="Group 62" transform="translate(0 0)">
        <path id="Path_144" data-name="Path 144" d="M151.493,114.079h1.879a10.313,10.313,0,0,1-.5,1.378,11.606,11.606,0,1,1,.564-7.706h-1.879a9.874,9.874,0,1,0-.689,7.737A9.248,9.248,0,0,0,151.493,114.079Z" transform="translate(-130.6 -93.718)" fill="#ed197a"/>
        <path id="Path_145" data-name="Path 145" d="M181.355,146.7a10.316,10.316,0,0,1-.5,1.378H171.3V146.7Z" transform="translate(-158.551 -126.339)" fill="#ed197a"/>
        <g id="Group_61" data-name="Group 61" transform="translate(6.923)">
          <g id="Group_56" data-name="Group 56">
            <path id="Path_146" data-name="Path 146" d="M157.211,88.936,152.7,83.893l1.817-2.193h5.419l1.817,2.193Zm-3.884-5.043,3.884,4.323,3.884-4.323-1.41-1.692H154.7Z" transform="translate(-152.7 -81.7)" fill="#ed197a"/>
          </g>
          <g id="Group_57" data-name="Group 57" transform="translate(0.439 0.345)">
            <path id="Path_147" data-name="Path 147" d="M157.232,84.742H154.1l1.566-1.942Zm-2.788-.157h2.443l-1.222-1.5Z" transform="translate(-154.1 -82.8)" fill="#ed197a"/>
          </g>
          <g id="Group_58" data-name="Group 58" transform="translate(3.038 0.345)">
            <path id="Path_148" data-name="Path 148" d="M165.532,84.742H162.4l1.566-1.942Zm-2.788-.157h2.443l-1.222-1.5Z" transform="translate(-162.4 -82.8)" fill="#ed197a"/>
          </g>
          <g id="Group_59" data-name="Group 59" transform="translate(5.67 0.345)">
            <path id="Path_149" data-name="Path 149" d="M173.932,84.742H170.8l1.566-1.942Zm-2.788-.157h2.443l-1.222-1.5Z" transform="translate(-170.8 -82.8)" fill="#ed197a"/>
          </g>
          <g id="Group_60" data-name="Group 60" transform="translate(3.32 2.099)">
            <path id="Path_150" data-name="Path 150" d="M164.459,93.475,163.3,88.525l.157-.031,1.034,4.385,1.347-4.479.157.031Z" transform="translate(-163.3 -88.4)" fill="#ed197a"/>
          </g>
        </g>
      </g>
    </g>
  </g>
</svg>
