<svg xmlns="http://www.w3.org/2000/svg" width="27.484" height="27.48" viewBox="0 0 27.484 27.48">
  <g id="Expanded" transform="translate(-1.994 -2)">
    <g id="Group_76" data-name="Group 76" transform="translate(1.994 2)">
      <g id="Group_70" data-name="Group 70" transform="translate(0 0.005)">
        <path id="Path_203" data-name="Path 203" d="M7.62,29.482h0a5.6,5.6,0,0,1-2.2-.445.624.624,0,0,1-.2-1.016l2.208-2.207V24.048H5.667L3.459,26.255a.624.624,0,0,1-1.016-.2,5.62,5.62,0,0,1,6.965-7.518l9.12-9.12a5.62,5.62,0,0,1,7.518-6.966.624.624,0,0,1,.2,1.016L24.038,5.676V7.443H25.8l2.207-2.208a.624.624,0,0,1,1.016.2,5.62,5.62,0,0,1-6.965,7.518l-9.12,9.12A5.616,5.616,0,0,1,7.62,29.482Zm-.773-1.317a4.408,4.408,0,0,0,.773.067,4.367,4.367,0,0,0,4.02-6.075.624.624,0,0,1,.134-.685l9.69-9.69a.624.624,0,0,1,.685-.134,4.37,4.37,0,0,0,6.008-4.794L26.5,8.508a.624.624,0,0,1-.442.183H23.413a.624.624,0,0,1-.625-.625V5.418a.622.622,0,0,1,.183-.442l1.653-1.652a4.421,4.421,0,0,0-.773-.067,4.366,4.366,0,0,0-4.02,6.075.624.624,0,0,1-.134.685l-9.691,9.69a.625.625,0,0,1-.685.134,4.37,4.37,0,0,0-6.008,4.794l1.653-1.653a.624.624,0,0,1,.442-.183h2.65a.624.624,0,0,1,.625.625v2.65a.622.622,0,0,1-.183.442Z" transform="translate(-1.994 -2.007)" fill="#ed197a"/>
      </g>
      <g id="Group_71" data-name="Group 71" transform="translate(17.295 17.291)">
        <path id="Path_204" data-name="Path 204" d="M37.376,39.875a2.483,2.483,0,0,1-1.767-.732L29.869,33.4a.624.624,0,0,1,0-.883l2.649-2.649a.624.624,0,0,1,.883,0l5.741,5.741a2.5,2.5,0,0,1-1.766,4.264ZM31.194,32.96l5.3,5.3a1.279,1.279,0,0,0,1.766,0,1.249,1.249,0,0,0,0-1.766l-5.3-5.3Z" transform="translate(-29.686 -29.686)" fill="#ed197a"/>
      </g>
      <g id="Group_72" data-name="Group 72" transform="translate(4.603 4.599)">
        <rect id="Rectangle_98" data-name="Rectangle 98" width="10.078" height="1.249" transform="translate(0.883) rotate(45)" fill="#ed197a"/>
      </g>
      <g id="Group_73" data-name="Group 73" transform="translate(15.97 15.966)">
        <path id="Path_205" data-name="Path 205" d="M28.188,34.113a.625.625,0,0,1-.442-1.066l5.3-5.3a.624.624,0,0,1,.883.883l-5.3,5.3A.623.623,0,0,1,28.188,34.113Z" transform="translate(-27.564 -27.565)" fill="#ed197a"/>
      </g>
      <g id="Group_74" data-name="Group 74" transform="translate(0.004)">
        <path id="Path_206" data-name="Path 206" d="M6.158,8.548a.623.623,0,0,1-.442-.183L2.183,4.832a.624.624,0,0,1,0-.883L3.949,2.183a.624.624,0,0,1,.883,0L8.365,5.716a.624.624,0,0,1,0,.883L6.6,8.365A.62.62,0,0,1,6.158,8.548ZM3.508,4.391l2.65,2.65.883-.883-2.65-2.65Z" transform="translate(-2 -2)" fill="#ed197a"/>
      </g>
      <g id="Group_75" data-name="Group 75" transform="translate(14.38 14.375)">
        <rect id="Rectangle_99" data-name="Rectangle 99" width="6.483" height="1.249" transform="translate(0.883 0) rotate(45)" fill="#ed197a"/>
      </g>
    </g>
  </g>
</svg>
