<svg xmlns="http://www.w3.org/2000/svg" width="23.298" height="32.885" viewBox="0 0 23.298 32.885">
  <defs>
    <style>
      .cls-1 {
        fill: #ed197a;
      }
    </style>
  </defs>
  <path id="download_3_" data-name="download (3)" class="cls-1" d="M223.951,161.01a.77.77,0,1,1-.77-.77A.77.77,0,0,1,223.951,161.01Zm5.732-.77a.77.77,0,1,0,.77.77A.77.77,0,0,0,229.682,160.24Zm-3.428,4.149.579.044h.027a.342.342,0,0,0,.026-.683l-.523-.04.338-.986a.342.342,0,0,0-.647-.222l-.357,1.04a.641.641,0,0,0,.557.847Zm-1.659,1.746a2.338,2.338,0,0,0,3.673,0,.342.342,0,1,0-.594-.341,1.685,1.685,0,0,1-2.486,0,.342.342,0,0,0-.594.34Zm-.565-5.855a.359.359,0,0,0,.455-.556,2.442,2.442,0,0,0-2.932-.069.359.359,0,0,0,.416.586,1.746,1.746,0,0,1,2.06.039Zm4.577.081a.358.358,0,0,0,.227-.081,1.745,1.745,0,0,1,2.06-.039.359.359,0,0,0,.416-.586,2.442,2.442,0,0,0-2.931.069.359.359,0,0,0,.228.637Zm9.474,20.266a.684.684,0,0,1-.684.7H215.467a.684.684,0,0,1-.684-.7l.063-2.281a7.188,7.188,0,0,1,2.845-5.6,20.689,20.689,0,0,1-1.791-8.981c.124-6.446,1.407-10.738,3.924-13.123a8.676,8.676,0,0,1,6.619-2.188c2.986-.093,5.142.583,6.77,2.131,2.4,2.278,3.623,6.589,3.749,13.18a20.7,20.7,0,0,1-1.793,8.986,7.175,7.175,0,0,1,2.846,5.6Zm-22.614.019H237.4l-.064-2.281a6.516,6.516,0,0,0-2.465-4.99c-.091-.071-.182-.141-.277-.207s-.187-.123-.282-.181a5.9,5.9,0,0,0-1.087-.523,5.84,5.84,0,0,0-1.04-.267c-.035.034-.077.067-.117.1-.9.733-3.066,1.21-5.634,1.21s-4.736-.477-5.634-1.21c-.04-.033-.081-.065-.116-.1a5.889,5.889,0,0,0-2.126.793c-.1.058-.19.118-.282.181s-.186.135-.277.206a6.5,6.5,0,0,0-2.467,4.986Zm4.672-16.556a9.144,9.144,0,0,0,3.087,4.11c.052.037.1.073.157.108q.168.111.342.211t.342.182a5.109,5.109,0,0,0,2.268.546,5.281,5.281,0,0,0,2.461-.647q.173-.091.342-.193t.342-.22l.091-.061a9.38,9.38,0,0,0,3.17-4.116q.132-.334.234-.67a6.929,6.929,0,0,0,.306-1.795c0-.056,0-.112,0-.167,0-.235-.016-.472-.04-.711a7.82,7.82,0,0,0-.879-2.917h0c-.136-.026-.279-.049-.427-.074A6.182,6.182,0,0,1,227.8,155.6a.508.508,0,0,0-.06-.061,8,8,0,0,1-1,.758,16.415,16.415,0,0,1-6.395,1.535,7.681,7.681,0,0,0-.722,2.644c-.025.256-.039.516-.042.778,0,.04,0,.078,0,.118a7.157,7.157,0,0,0,.329,2.037c.068.224.145.449.233.675Zm3.657,7.586-2.013.417a15.169,15.169,0,0,0,9.3,0l-2.013-.417a.343.343,0,0,1-.273-.335v-1.993a5.751,5.751,0,0,1-2.46.583,5.639,5.639,0,0,1-2.268-.485v1.9a.343.343,0,0,1-.273.335Zm9.833-8.165a1.352,1.352,0,0,0,.978-.858,1.94,1.94,0,0,0-.02-1.413.425.425,0,0,0-.257-.239.39.39,0,0,0-.1-.012.764.764,0,0,0-.271.066c0,.107.01.215.01.322a7.344,7.344,0,0,1-.342,2.134Zm-14.736-2.134c0-.121,0-.251.008-.386h-.012a.789.789,0,0,0-.2.025.7.7,0,0,0-.454.364,1.084,1.084,0,0,0-.018.876,2.423,2.423,0,0,0,.972,1.118A7.514,7.514,0,0,1,218.892,161.377Zm15.71,10.995a20.123,20.123,0,0,0,1.677-8.593c-.122-6.4-1.279-10.552-3.536-12.7-1.488-1.414-3.487-2.031-6.3-1.943q-.239-.008-.472-.008a7.841,7.841,0,0,0-5.675,2.009c-2.344,2.221-3.593,6.474-3.711,12.639a20.127,20.127,0,0,0,1.675,8.588,6.546,6.546,0,0,1,2.026-.787c.149-.031.3-.062.451-.083a.427.427,0,0,1,.266.058l2.381-.493V169.1c-.2-.12-.4-.251-.6-.392a10.055,10.055,0,0,1-3.326-4.506,2.855,2.855,0,0,1-1.884-1.7,1.767,1.767,0,0,1,.052-1.432,1.382,1.382,0,0,1,.89-.71,1.512,1.512,0,0,1,.434-.039,8.207,8.207,0,0,1,.78-2.783.685.685,0,0,1,.57-.376,15.766,15.766,0,0,0,6.093-1.444,7.289,7.289,0,0,0,.911-.694.644.644,0,0,1,.476-.172.8.8,0,0,1,.543.318A5.523,5.523,0,0,0,232.049,157c.153.025.3.05.44.077a.687.687,0,0,1,.479.345,8.384,8.384,0,0,1,.936,2.929,1.2,1.2,0,0,1,.6-.011,1.091,1.091,0,0,1,.693.586,2.613,2.613,0,0,1,.053,1.97h0a1.965,1.965,0,0,1-1.765,1.319c-.033,0-.066,0-.1-.006a10.248,10.248,0,0,1-3.376,4.417q-.258.188-.527.353v2.085l2.375.492a.341.341,0,0,1,.242-.061c.164.022.323.055.483.088a6.632,6.632,0,0,1,2.023.791Z" transform="translate(-214.782 -148.446)"/>
</svg>
