<svg id="download_4_" data-name="download (4)" xmlns="http://www.w3.org/2000/svg" width="24.411" height="24.548" viewBox="0 0 24.411 24.548">
  <defs>
    <style>
      .cls-1 {
        fill: #ed197a;
      }
    </style>
  </defs>
  <path id="Path_173" data-name="Path 173" class="cls-1" d="M202.139,391.912h-3.784a.224.224,0,1,1,0-.447h3.561v-6.141c0-2.655-3.073-3.692-5.542-4.524-.419-.141-.819-.276-1.182-.412a5.481,5.481,0,0,1-.484.894.224.224,0,0,1-.372-.248,5.02,5.02,0,0,0,.522-1.012.223.223,0,0,1,.291-.129c.405.159.873.317,1.369.484a17.065,17.065,0,0,1,3.832,1.652,3.829,3.829,0,0,1,2.014,3.3v6.365a.223.223,0,0,1-.223.224Zm-6.579,0H178.175a.224.224,0,0,1-.224-.223v-2.175a.224.224,0,1,1,.447,0v1.951h17.162a.224.224,0,0,1,0,.447Zm-17.386-4.969a.224.224,0,0,1-.224-.224v-1.4c0-2.8,2.445-3.67,4.6-4.435.374-.133.727-.258,1.066-.392l1.548-.605a.225.225,0,0,1,.172,0,.223.223,0,0,1,.118.125,5.053,5.053,0,0,0,4.7,3.258,4.942,4.942,0,0,0,2.187-.5.224.224,0,0,1,.2.4,5.389,5.389,0,0,1-2.383.55,5.5,5.5,0,0,1-5.034-3.337l-1.341.524c-.345.137-.7.263-1.08.4-2.116.75-4.3,1.526-4.3,4.014v1.4a.224.224,0,0,1-.223.224Z" transform="translate(-177.951 -367.363)"/>
  <path id="Path_174" data-name="Path 174" class="cls-1" d="M243.755,483.939a.224.224,0,0,1-.224-.223V478.19a.224.224,0,1,1,.447,0v5.526A.223.223,0,0,1,243.755,483.939Z" transform="translate(-239.489 -459.408)"/>
  <path id="Path_175" data-name="Path 175" class="cls-1" d="M274.3,401.107a.223.223,0,0,1-.193-.11l-6.457-10.966a.224.224,0,0,1,.385-.227l6.456,10.966a.223.223,0,0,1-.079.306A.22.22,0,0,1,274.3,401.107Z" transform="translate(-262.093 -376.576)"/>
  <path id="Path_176" data-name="Path 176" class="cls-1" d="M372.6,401.111a.223.223,0,0,1-.192-.337l6.456-10.966a.224.224,0,0,1,.385.227L372.793,401A.223.223,0,0,1,372.6,401.111Z" transform="translate(-360.394 -376.58)"/>
  <path id="Path_177" data-name="Path 177" class="cls-1" d="M292.266,193.192h-.019a5.489,5.489,0,0,1-5-5.449v-5.423A5.505,5.505,0,0,1,290.8,177.2a.224.224,0,1,1,.158.418,5.056,5.056,0,0,0-3.258,4.7v5.423a5.056,5.056,0,0,0,4.588,5,.224.224,0,0,1-.02.446Zm2.715-.5a.224.224,0,0,1-.1-.425,5.062,5.062,0,0,0,2.859-4.529v-5.423a5.028,5.028,0,0,0-5.023-5.023.224.224,0,0,1,0-.447,5.476,5.476,0,0,1,5.47,5.47v5.423a5.512,5.512,0,0,1-3.112,4.931.222.222,0,0,1-.1.022Z" transform="translate(-280.514 -176.849)"/>
  <path id="Path_178" data-name="Path 178" class="cls-1" d="M406.335,278.945a.618.618,0,1,1,.617-.618A.618.618,0,0,1,406.335,278.945Zm0-.788a.17.17,0,1,0,.17.17A.171.171,0,0,0,406.335,278.157Z" transform="translate(-391.679 -271.494)"/>
  <path id="Path_179" data-name="Path 179" class="cls-1" d="M398.7,264.267h-2.575a.223.223,0,1,1,0-.447H398.7a.223.223,0,1,1,0,.447Z" transform="translate(-382.471 -258.46)"/>
  <path id="Path_180" data-name="Path 180" class="cls-1" d="M326.871,278.945a.618.618,0,1,1,.617-.618A.618.618,0,0,1,326.871,278.945Zm0-.788a.17.17,0,1,0,.17.17A.17.17,0,0,0,326.871,278.157Z" transform="translate(-317.114 -271.494)"/>
  <path id="Path_181" data-name="Path 181" class="cls-1" d="M309.872,264.267H307.3a.223.223,0,1,1,0-.447h2.575a.223.223,0,0,1,0,.447Z" transform="translate(-299.116 -258.46)"/>
  <path id="Path_182" data-name="Path 182" class="cls-1" d="M373.586,319.255a1.055,1.055,0,0,1-1.208-1.126,1.152,1.152,0,0,1,1.314-1.185c1.025,0,2.423.686,2.533,1.456a.223.223,0,0,1-.166.248c-.108.028-.272.083-.461.147a6.886,6.886,0,0,1-2.012.46Zm.106-1.865c-.867,0-.867.555-.867.738,0,.476.227.679.761.679a6.676,6.676,0,0,0,1.869-.437l.254-.085A2.834,2.834,0,0,0,373.692,317.39Z" transform="translate(-360.395 -308.309)"/>
  <path id="Path_183" data-name="Path 183" class="cls-1" d="M319.774,319.254a6.9,6.9,0,0,1-2.011-.459c-.191-.065-.355-.12-.465-.148a.224.224,0,0,1-.166-.248c.11-.77,1.509-1.456,2.535-1.456a1.153,1.153,0,0,1,1.315,1.185,1.055,1.055,0,0,1-1.208,1.126Zm-2.125-.969.258.086a6.583,6.583,0,0,0,1.867.436c.533,0,.761-.2.761-.679,0-.182,0-.738-.868-.738a2.836,2.836,0,0,0-2.018.9Z" transform="translate(-308.552 -308.308)"/>
  <path id="Path_184" data-name="Path 184" class="cls-1" d="M438.162,211.1a.223.223,0,0,1-.224-.223v-2.928a5,5,0,0,0-1.175-3.218.223.223,0,0,1-.039-.067l-.057-.154a.224.224,0,0,1,.166-.3,2.518,2.518,0,0,1,.5-.05,2.111,2.111,0,0,1,2.227,1.964v3.174a1.965,1.965,0,0,1-1.311,1.783.228.228,0,0,1-.083.015Zm-.919-6.489a5.449,5.449,0,0,1,1.143,3.337v2.566a1.456,1.456,0,0,0,.723-1.213v-3.174a1.666,1.666,0,0,0-1.78-1.517l-.086,0Z" transform="translate(-420.71 -202.483)"/>
  <path id="Path_185" data-name="Path 185" class="cls-1" d="M267.991,211.1a.226.226,0,0,1-.082-.016,1.965,1.965,0,0,1-1.311-1.783v-3.174a2.111,2.111,0,0,1,2.227-1.964,2.593,2.593,0,0,1,.5.05.224.224,0,0,1,.166.3l-.057.154a.225.225,0,0,1-.039.066,4.99,4.99,0,0,0-1.177,3.218v2.928a.223.223,0,0,1-.1.185.226.226,0,0,1-.126.038Zm.833-6.49a1.667,1.667,0,0,0-1.78,1.517v3.174a1.456,1.456,0,0,0,.723,1.213v-2.566a5.438,5.438,0,0,1,1.145-3.337l-.088,0Z" transform="translate(-261.134 -202.483)"/>
  <path id="Path_186" data-name="Path 186" class="cls-1" d="M309.786,409.184l-.032,0a.222.222,0,0,1-.164-.114l-2.112-3.853a.224.224,0,0,1,.366-.252,5.027,5.027,0,0,0,3.755,1.782.223.223,0,0,1,.177.091l.08.109a.223.223,0,0,1-.022.291l-1.889,1.884A.224.224,0,0,1,309.786,409.184Zm-1.268-3,1.321,2.409,1.42-1.416A5.455,5.455,0,0,1,308.518,406.183Z" transform="translate(-299.469 -390.83)"/>
  <path id="Path_187" data-name="Path 187" class="cls-1" d="M374.489,409.182a.223.223,0,0,1-.158-.065l-1.893-1.884a.224.224,0,0,1-.022-.291l.08-.109a.224.224,0,0,1,.177-.091,5.007,5.007,0,0,0,3.752-1.782.224.224,0,0,1,.367.252l-2.106,3.853a.224.224,0,0,1-.164.114l-.032,0Zm-1.476-2.008,1.422,1.416,1.316-2.407A5.442,5.442,0,0,1,373.013,407.175Z" transform="translate(-360.39 -390.828)"/>
  <path id="Path_188" data-name="Path 188" class="cls-1" d="M505.975,483.939a.224.224,0,0,1-.224-.223V478.19a.224.224,0,1,1,.447,0v5.526A.224.224,0,0,1,505.975,483.939Z" transform="translate(-485.548 -459.408)"/>
</svg>
