<svg xmlns="http://www.w3.org/2000/svg" width="26.807" height="26.115" viewBox="0 0 26.807 26.115">
  <defs>
    <style>
      .cls-1 {
        fill: #ed197a;
        stroke: #ed197a;
        stroke-width: 0.2px;
      }
    </style>
  </defs>
  <path id="download_2_" data-name="download (2)" class="cls-1" d="M186.938,195.574l-2.99-7.856a.146.146,0,0,0-.1-.09l-7.341-1.864-.008-1.385a5.991,5.991,0,0,0,1.524-3.157s.007,0,.009,0a2.628,2.628,0,0,0,.812-1.969c-.012-.661-.2-1.057-.5-1.061h0l-.012,0a6.179,6.179,0,0,1,.481-.906,4.046,4.046,0,0,0,.772-2.219c0-1.379-.585-1.883-.9-2.054l.614-.823-.109-.088a1.427,1.427,0,0,0-.884-.2l.73-.755-.238-.065a3.568,3.568,0,0,0-1.743.02l.639-.56-.25-.077a6.274,6.274,0,0,0-4.923.345,5.661,5.661,0,0,0-1.61,1.259,2.342,2.342,0,0,0-.792-.1,1.9,1.9,0,0,0-1.572.708c-1.114,1.412-.412,4.429-.377,4.573a.2.2,0,0,0,.209.152.187.187,0,0,0,.139-.085c.072.261.164.544.255.808-.269.049-.435.432-.447,1.064a2.632,2.632,0,0,0,.8,1.944,5.978,5.978,0,0,0,1.6,3.233l-.009,1.4-7.341,1.865a.147.147,0,0,0-.1.091l-2.91,7.856a.146.146,0,1,0,.274.1l2.883-7.784,6.636-1.686-1.738,1.206h0a.146.146,0,0,0-.058.157l2.148,8.268a.146.146,0,0,0,.142.109.144.144,0,0,0,.037,0,.146.146,0,0,0,.1-.178l-2.122-8.169,2.107-1.461,1.386,9.729h0a.146.146,0,0,0,.263.069.147.147,0,0,0,.027-.11l-1.374-9.648h0a5.524,5.524,0,0,0,1.279.516l.486,1.349-.434.764a.148.148,0,0,0-.019.081l.4,6.887a.146.146,0,0,0,.146.138h.008a.146.146,0,0,0,.137-.154l-.4-6.844.429-.757h0a1.65,1.65,0,0,1,1-.018l.448.789-.666,6.9a.146.146,0,0,0,.132.159h.014a.146.146,0,0,0,.146-.132l.669-6.947a.147.147,0,0,0-.019-.086l-.465-.82.647-1.35s0-.01,0-.015a6.348,6.348,0,0,0,1.179-.482l-1.634,9.663a.146.146,0,0,0,.12.169l.025,0a.146.146,0,0,0,.144-.122l1.643-9.72,2.174,1.509-2.134,8.189h0a.146.146,0,0,0,.1.178.161.161,0,0,0,.037,0,.146.146,0,0,0,.142-.109l2.159-8.288a.146.146,0,0,0-.058-.157l-1.806-1.254,6.593,1.675,2.964,7.784a.146.146,0,0,0,.136.094.137.137,0,0,0,.052-.01.146.146,0,0,0,.085-.189Zm-8.6-17.092c.051,0,.2.193.212.762h0a2.761,2.761,0,0,1-.465,1.5v-1.514h.058v-.146a2.225,2.225,0,0,1,.04-.392C178.239,178.55,178.3,178.482,178.339,178.482Zm-9.261.784a.131.131,0,0,0-.007.035v1.219c0,.046.006.092.007.139v.015h0a2.739,2.739,0,0,1-.465-1.491c.011-.582.161-.773.212-.774a.092.092,0,0,1,.056.036c.066.181.126.34.173.461a2.09,2.09,0,0,1,.025.239Zm.066-.957a8.92,8.92,0,0,1-.47-1.641l-.126-1.2-.164,1.2c-.006.041-.011.078-.017.113-.15-.854-.4-2.9.4-3.919a1.617,1.617,0,0,1,1.342-.6,1.633,1.633,0,0,1,.724.09l.119.127.1-.139a5.706,5.706,0,0,1,6.039-1.672L175.57,172l.9-.412h0a3.953,3.953,0,0,1,1.992-.286l-.955.988.435-.072a2.172,2.172,0,0,1,.93.038l-.672.9.209.055c.036.01.871.249.871,1.852a3.8,3.8,0,0,1-.731,2.068h0a4.431,4.431,0,0,0-.659,1.487,1.748,1.748,0,0,0-.073.3.155.155,0,0,0-.014.021h-.046a4.605,4.605,0,0,0,.042-1.724.72.72,0,0,0-.6-.589l-.061-.016,0-.005a1.562,1.562,0,0,0,.041-1.567h0a1.31,1.31,0,0,0-1.068-.575,4.879,4.879,0,0,0-1.754.292,1.876,1.876,0,0,1-1.527,0,4.88,4.88,0,0,0-1.754-.292,1.31,1.31,0,0,0-1.068.575,1.56,1.56,0,0,0,.04,1.565l0,.007-.061.016a.72.72,0,0,0-.6.589,4.62,4.62,0,0,0,.042,1.724h-.055c-.013-.033-.029-.077-.049-.125a1.266,1.266,0,0,0-.185-.509Zm7.456.595a.146.146,0,1,1-.18-.23l.4-.311a.146.146,0,1,1,.179.231Zm.339.237-.263.2a.146.146,0,1,1-.178-.231l.263-.2a.146.146,0,1,1,.179.231Zm-2.927-.651h-.688a8.235,8.235,0,0,0-3.686-.225,3.368,3.368,0,0,1,.042-.98.433.433,0,0,1,.39-.37.362.362,0,0,0,.269-.163.319.319,0,0,0-.018-.263,1.324,1.324,0,0,1-.058-1.286,1.008,1.008,0,0,1,.822-.44,4.57,4.57,0,0,1,1.66.278,2.153,2.153,0,0,0,1.713,0,4.568,4.568,0,0,1,1.66-.278,1.008,1.008,0,0,1,.822.44,1.327,1.327,0,0,1-.061,1.288h0a.317.317,0,0,0-.016.263.36.36,0,0,0,.269.163.433.433,0,0,1,.39.37,3.337,3.337,0,0,1,.043.966,7.747,7.747,0,0,0-3.553.238Zm-2.192.48a.144.144,0,0,1-.09.031.146.146,0,0,1-.09-.263l.4-.311h0a.146.146,0,0,1,.179.23Zm.339.237-.263.2a.147.147,0,1,1-.177-.234l.263-.2h0a.146.146,0,0,1,.178.232Zm1.961,8.629a1.966,1.966,0,0,0-1.044.015l-.383-1.064a4.037,4.037,0,0,0,1.921.018Zm-.545-1.27a4.421,4.421,0,0,1-.963-.11c-.035-.012-.072-.021-.106-.034a.132.132,0,0,0-.031,0,5.451,5.451,0,0,1-1.476-.64l.007-1.14a3.29,3.29,0,0,0,2.131.892h.994a3.159,3.159,0,0,0,2.075-.871l.007,1.132h0a5.368,5.368,0,0,1-2.638.773Zm2.74-2.432a.142.142,0,0,0-.1.111,2.993,2.993,0,0,1-2.079.994h-.994A3.123,3.123,0,0,1,171,184.224a.142.142,0,0,0-.085-.088,5.617,5.617,0,0,1-1.543-3.483v-1.42h.183c.01.04.018.081.029.119h0a1.6,1.6,0,0,0,.389.666,2.341,2.341,0,0,0,1.635.575,2.824,2.824,0,0,0,.658-.075,1.53,1.53,0,0,0,.974-.683,4.791,4.791,0,0,0,.208-.652h.452a1.614,1.614,0,0,0,1.781,1.329,1.774,1.774,0,0,0,1.883-1.281h.225v1.286a5.624,5.624,0,0,1-1.472,3.614Zm-3.478-3.325a.146.146,0,0,1,.259-.136.6.6,0,0,0,.488.348.7.7,0,0,0,.606-.361.146.146,0,1,1,.243.162,1,1,0,0,1-.821.492h-.043a.883.883,0,0,1-.733-.5Zm-.8,1.477a.146.146,0,0,1,.146-.144h0l2.809.029a.146.146,0,0,1,0,.292h0l-2.809-.029a.147.147,0,0,1-.145-.148Zm2.042.871h0a.146.146,0,1,1-.155.248.692.692,0,0,0-.715.007.147.147,0,0,1-.13-.263.974.974,0,0,1,1,.008Zm2.63-5.474a.146.146,0,1,1-.22.192c-.315-.36-.8-.415-1.5-.166a.146.146,0,1,1-.1-.275,1.541,1.541,0,0,1,1.816.248Zm-4.141-.079a.146.146,0,0,1-.187.088c-.692-.249-1.181-.2-1.5.166a.146.146,0,0,1-.22-.192,1.539,1.539,0,0,1,1.815-.249h0a.146.146,0,0,1,.089.187Zm-7.292,13.135V195.6a.146.146,0,1,1-.292,0v-4.868a.146.146,0,1,1,.292,0Zm16.81-.118v4.929a.146.146,0,0,1-.292,0v-4.929a.146.146,0,1,1,.292,0Zm-6.9-6.814c-.026.7-.728,1.046-1.411,1.081l-.119,0a1.49,1.49,0,0,1-1.617-1.069.146.146,0,0,1,.29-.04c.081.579.781.848,1.432.815.55-.029,1.114-.286,1.134-.8h0a.143.143,0,0,1,.152-.14.146.146,0,0,1,.14.151Z" transform="translate(-160.243 -170.013)"/>
</svg>
