<svg xmlns="http://www.w3.org/2000/svg" width="22.93" height="33.118" viewBox="0 0 22.93 33.118">
  <defs>
    <style>
      .cls-1 {
        fill: #ed197a;
        fill-rule: evenodd;
      }
    </style>
  </defs>
  <path id="download_5_" data-name="download (5)" class="cls-1" d="M245.617,197.864a10.717,10.717,0,0,1-3.5-6.507c-1.106-.927-1.418-2.128-.627-2.843a2.146,2.146,0,0,1,.424-.274c.04-2.788.358-5.381,1.763-7.146a7.621,7.621,0,0,1,5.753-2.417,14.288,14.288,0,0,1,2.964.761,5.272,5.272,0,0,1,3.189,1.49c1.47,1.54,1.391,4.524,1.37,7.306a2.064,2.064,0,0,1,.439.28c.8.72.475,1.934-.653,2.864A10.594,10.594,0,0,1,253.078,198c4.81.942,7.727,3.534,7.727,6.709,0,3.989-4.467,7.1-11.556,7.091-7.347.007-11.373-3-11.373-7.091,0-3.266,2.675-6.019,7.741-6.841Zm7.385.19a5.775,5.775,0,0,1-7.31-.13,2.966,2.966,0,0,0-.02.343,3.694,3.694,0,0,0,7.338,0C253.01,198.2,253.007,198.124,253,198.053Zm.74-12.295c-.354-.813-1.541-.725-3.66.11-.259.1-.529.213-.853.351-2.434,1.033-2.383,1.013-2.934,1.062-1.247-.055-3.338,1.681-3.382,2.739a9.431,9.431,0,0,0,1.737,5.742,5.863,5.863,0,0,0,4.694,2.7c3.182,0,5.875-2.835,6.521-6.749.065-.79.089-1.2.089-1.7a4.647,4.647,0,0,0-.057-.908C255.083,188.678,254.646,187.964,253.742,185.759Zm-4.306,11.016c-1.153,0-2.568-1.119-2.119-1.119s.967.113,2.119.127c1.183-.014,1.7-.127,2.119-.127S250.618,196.775,249.436,196.775Z" transform="translate(-237.876 -178.677)"/>
</svg>
