<svg id="_8680019_shield_user_line_icon" data-name="8680019_shield_user_line_icon" xmlns="http://www.w3.org/2000/svg" width="48.044" height="48.044" viewBox="0 0 48.044 48.044">
  <path id="Path_189" data-name="Path 189" d="M0,0H48.044V48.044H0Z" fill="none"/>
  <path id="Path_190" data-name="Path 190" d="M4.567,4.655,21.016,1,37.465,4.655a2,2,0,0,1,1.567,1.954V26.6a12.011,12.011,0,0,1-5.348,9.993L21.016,45.04,8.349,36.594A12.011,12.011,0,0,1,3,26.6V6.609A2,2,0,0,1,4.567,4.655ZM7,8.215V26.6a8.007,8.007,0,0,0,3.565,6.662L21.016,40.23l10.448-6.966a8.007,8.007,0,0,0,3.565-6.66V8.215L21.016,5.1Zm14.013,12.8a5,5,0,1,1,5-5A5,5,0,0,1,21.016,21.018ZM12.062,31.027a9.008,9.008,0,0,1,17.908,0Z" transform="translate(3.005 1.002)" fill="#ed197a"/>
</svg>
