<svg xmlns="http://www.w3.org/2000/svg" width="24.908" height="23.417" viewBox="0 0 24.908 23.417">
  <g id="_5927126_alquran_holy_islam_islamic_muslim_icon" data-name="5927126_alquran_holy_islam_islamic_muslim_icon" transform="translate(-7.498 -7.5)">
    <path id="Path_215" data-name="Path 215" d="M21.924,33.284a.742.742,0,0,1-.423-.13,8.769,8.769,0,0,0-2.132-1.066,9.765,9.765,0,0,0-2.2-.463,7.852,7.852,0,0,1-2.606-.633,7.543,7.543,0,0,1-2.446-1.833.747.747,0,0,1-.194-.5V18.1A.747.747,0,0,1,13.1,17.49a7.727,7.727,0,0,0,2.112,1.056,9.631,9.631,0,0,0,2.755.394,5.188,5.188,0,0,1,3.258.882,3.831,3.831,0,0,1,1.445,3.034v9.68A.747.747,0,0,1,21.924,33.284Zm-8.51-4.9a5.934,5.934,0,0,0,1.769,1.246,6.437,6.437,0,0,0,2.147.5,11.14,11.14,0,0,1,2.516.5,10.143,10.143,0,0,1,1.325.558v-8.33a2.322,2.322,0,0,0-.852-1.838,4,4,0,0,0-2.411-.583,11.021,11.021,0,0,1-3.154-.463,9.058,9.058,0,0,1-1.34-.548Z" transform="translate(-2.219 -4.943)" fill="#ed197a"/>
    <path id="Path_216" data-name="Path 216" d="M31.247,33.289a.747.747,0,0,1-.747-.747v-9.68a3.826,3.826,0,0,1,1.435-3.019,5.14,5.14,0,0,1,3.273-.892,9.631,9.631,0,0,0,2.755-.394A7.727,7.727,0,0,0,40.076,17.5a.747.747,0,0,1,1.181.613V28.685a.747.747,0,0,1-.194.5,7.543,7.543,0,0,1-2.446,1.833,7.852,7.852,0,0,1-2.611.613,9.765,9.765,0,0,0-2.207.443,8.769,8.769,0,0,0-2.132,1.066.742.742,0,0,1-.419.149Zm8.51-13.86a9.058,9.058,0,0,1-1.34.548,11.021,11.021,0,0,1-3.154.463,3.9,3.9,0,0,0-2.4.573,2.327,2.327,0,0,0-.867,1.848v8.37a10.144,10.144,0,0,1,1.325-.558,11.14,11.14,0,0,1,2.516-.5,6.437,6.437,0,0,0,2.147-.5,5.934,5.934,0,0,0,1.769-1.27Z" transform="translate(-11.542 -4.949)" fill="#ed197a"/>
    <path id="Path_217" data-name="Path 217" d="M19.711,40.293a8.623,8.623,0,0,1-1.952-.224c-.733-.17-1.455-.354-2.148-.548a34.935,34.935,0,0,1-5.137-1.734,26.827,26.827,0,0,1-2.591-1.31.747.747,0,0,1-.374-.648V26.936a.747.747,0,0,1,1.126-.643,9.755,9.755,0,0,0,1.669.8.747.747,0,1,1-.5,1.4q-.4-.144-.8-.324V35.4q1,.553,2.073,1.026a33.75,33.75,0,0,0,4.932,1.659c.678.184,1.38.364,2.093.533a7.214,7.214,0,0,0,3.233,0c.712-.164,1.415-.344,2.088-.533a33.72,33.72,0,0,0,4.937-1.659q1.069-.471,2.073-1.026V28.162q-.394.174-.8.324a.747.747,0,1,1-.5-1.4,9.756,9.756,0,0,0,1.669-.787.747.747,0,0,1,1.131.643v8.9a.747.747,0,0,1-.374.648,26.824,26.824,0,0,1-2.591,1.31,34.906,34.906,0,0,1-5.167,1.754c-.693.189-1.415.374-2.147.548A8.628,8.628,0,0,1,19.711,40.293Z" transform="translate(-0.006 -9.377)" fill="#ed197a"/>
    <path id="Path_218" data-name="Path 218" d="M29.742,11.984a2.242,2.242,0,1,1,0-4.484.747.747,0,0,1,0,1.495.747.747,0,1,0,.707,1,.748.748,0,1,1,1.41.5A2.247,2.247,0,0,1,29.742,11.984Z" transform="translate(-10.037)" fill="#ed197a"/>
    <path id="Path_219" data-name="Path 219" d="M8.246,49.562a.747.747,0,0,1-.374-1.4l2.516-1.44a.747.747,0,0,1,.742,1.3L8.62,49.462a.742.742,0,0,1-.374.1Z" transform="translate(0 -19.642)" fill="#ed197a"/>
    <path id="Path_220" data-name="Path 220" d="M52.741,49.562a.742.742,0,0,1-.369-.1l-2.521-1.44a.747.747,0,0,1,.742-1.3l2.516,1.44a.747.747,0,0,1-.369,1.4Z" transform="translate(-21.079 -19.642)" fill="#ed197a"/>
  </g>
</svg>
