<svg xmlns="http://www.w3.org/2000/svg" width="29.019" height="29.004" viewBox="0 0 29.019 29.004">
  <path id="_8725982_image_upload_icon" data-name="8725982_image_upload_icon" d="M25.485,17.576A1.381,1.381,0,0,0,24.1,18.957v.525l-2.045-2.045a3.854,3.854,0,0,0-5.429,0l-.967.967-3.426-3.426a3.937,3.937,0,0,0-5.429,0L4.763,17.023V9.287A1.381,1.381,0,0,1,6.144,7.906h9.67a1.381,1.381,0,1,0,0-2.763H6.144A4.144,4.144,0,0,0,2,9.287V25.865a4.144,4.144,0,0,0,4.144,4.144H22.722a4.144,4.144,0,0,0,4.144-4.144V18.957A1.381,1.381,0,0,0,25.485,17.576ZM6.144,27.246a1.381,1.381,0,0,1-1.381-1.381V20.933l4.006-4.006a1.091,1.091,0,0,1,1.506,0l4.379,4.379h0l5.94,5.94ZM24.1,25.865a1.23,1.23,0,0,1-.249.732l-6.23-6.258.967-.967a1.064,1.064,0,0,1,1.52,0l3.992,4.02ZM30.61,5.543,26.466,1.4a1.428,1.428,0,0,0-1.962,0L20.36,5.543A1.387,1.387,0,0,0,22.322,7.5l1.782-1.8v7.722a1.381,1.381,0,0,0,2.763,0V5.709l1.782,1.8A1.387,1.387,0,1,0,30.61,5.543Z" transform="translate(-2 -1.005)" fill="#ed197a"/>
</svg>
