<svg xmlns="http://www.w3.org/2000/svg" width="25.726" height="27.696" viewBox="0 0 25.726 27.696">
  <g id="Group_83" data-name="Group 83" transform="translate(-145.104 -289)">
    <g id="Group_80" data-name="Group 80" transform="translate(-108 1)">
      <g id="shield-svgrepo-com_1_" data-name="shield-svgrepo-com (1)" transform="translate(253.104 288)">
        <path id="Path_229" data-name="Path 229" d="M60.625,5.833a1.269,1.269,0,0,0-1.154-1.245A24.025,24.025,0,0,1,48.271.165a.86.86,0,0,0-1.013,0,24,24,0,0,1-11.2,4.423,1.271,1.271,0,0,0-1.154,1.245c-.065,4.237.615,18.62,12.535,21.821a1.255,1.255,0,0,0,.646,0C60.007,24.456,60.687,10.069,60.625,5.833Z" transform="translate(-34.902 0)" fill="#01a601"/>
      </g>
      <g id="success-green-check-mark" transform="translate(259.009 294.891)">
        <path id="Path_230" data-name="Path 230" d="M6.957,0A6.935,6.935,0,0,1,9.97.684c-.374.3-.72.579-1.043.852a5.76,5.76,0,1,0,3.69,4.313q.449-.585.918-1.164A6.96,6.96,0,1,1,6.957,0ZM3.716,5.814l1.7-.022.126.033a6.548,6.548,0,0,1,.967.678,6.641,6.641,0,0,1,.623.6A24.476,24.476,0,0,1,9.073,4.4a23.187,23.187,0,0,1,2.384-2.48l.165-.064h1.852l-.374.415a39.584,39.584,0,0,0-3.13,3.953,38.53,38.53,0,0,0-2.531,4.21l-.233.449-.214-.457a11.106,11.106,0,0,0-1.431-2.32A9.373,9.373,0,0,0,3.578,6.268l.138-.454Z" fill="#fff"/>
      </g>
    </g>
  </g>
</svg>
